<?xml version="1.0" encoding="utf-8"?>
<!-- Generator: Adobe Illustrator 19.2.1, SVG Export Plug-In . SVG Version: 6.00 Build 0)  -->
<svg version="1.1" id="Layer_1" xmlns="http://www.w3.org/2000/svg" xmlns:xlink="http://www.w3.org/1999/xlink" x="0px" y="0px"
	 viewBox="0 0 142.3 184.9" style="enable-background:new 0 0 142.3 184.9;" xml:space="preserve">
<style type="text/css">
	.st0{fill:#E40C22;}
	.st1{clip-path:url(#SVGID_2_);fill:#FFFFFF;}
	.st2{fill:#FFFFFF;}
	.st3{clip-path:url(#SVGID_4_);fill:#FFFFFF;}
	.st4{clip-path:url(#SVGID_6_);fill:#FFFFFF;}
	.st5{clip-path:url(#SVGID_8_);fill:#FFFFFF;}
	.st6{clip-path:url(#SVGID_10_);fill:#FFFFFF;}
	.st7{clip-path:url(#SVGID_12_);fill:#FFFFFF;}
	.st8{clip-path:url(#SVGID_14_);fill:#FFFFFF;}
	.st9{clip-path:url(#SVGID_16_);fill:#FFFFFF;}
	.st10{clip-path:url(#SVGID_18_);fill:#FFFFFF;}
	.st11{clip-path:url(#SVGID_20_);fill:#FFFFFF;}
	.st12{clip-path:url(#SVGID_22_);fill:#FFFFFF;}
	.st13{clip-path:url(#SVGID_24_);fill:#FFFFFF;}
	.st14{clip-path:url(#SVGID_26_);fill:#FFFFFF;}
	.st15{clip-path:url(#SVGID_28_);fill:#FFFFFF;}
	.st16{clip-path:url(#SVGID_30_);fill:#FFFFFF;}
	.st17{clip-path:url(#SVGID_32_);fill:#FFFFFF;}
	.st18{clip-path:url(#SVGID_34_);fill:#FFFFFF;}
	.st19{clip-path:url(#SVGID_36_);fill:#FFFFFF;}
	.st20{clip-path:url(#SVGID_38_);fill:#FFFFFF;}
	.st21{clip-path:url(#SVGID_40_);fill:#FFFFFF;}
</style>
<g>
	<rect y="0" class="st0" width="142.3" height="184.9"/>
	<g>
		<g>
			<defs>
				<rect id="SVGID_1_" x="-0.7" y="0" width="143" height="184.9"/>
			</defs>
			<clipPath id="SVGID_2_">
				<use xlink:href="#SVGID_1_"  style="overflow:visible;"/>
			</clipPath>
			<path class="st1" d="M125.1,98.8c-3.1-0.2-2.3-7.2-8.8-6.4c-4.6,0.5-5.2,5.8-5.6,10c-0.5,4.6-1,8.6-2.4,7.9
				c-1.2-0.5-0.9-2.6-1.4-9.1c-0.6-7.4-2.5-11.5-7-12.2c-5.6-0.9-7.8,7.3-8.7,10.5c-1,3.1-2.6,4.6-3.7,4.6c-0.9,0-2.5-0.4-2.9-4.1
				s2.8-10.1,7.2-14.6c13.2-13.5,32.3-23,32.3-43.8c0-19.6-14.6-30-28.1-30c-10.3,0-16.1,5.8-18.1,7.7c-3.2,3.1-4.6,6.5-5.8,6.5
				c-1.2,0-2.6-3.4-5.8-6.5c-2-1.9-7.8-7.7-18.1-7.7c-13.5,0-28.1,10.4-28.1,30c0,20.8,19,30.3,32.3,43.8c4.4,4.5,7.5,10.9,7.1,14.6
				c-0.4,4-2,3.9-2.8,3.8c-0.4,0-2.5-0.7-3.8-5.3c-1.2-4.2-2.6-8.1-7.4-8.3c-5.4-0.3-6.8,6.8-7.2,12.5c-0.4,4.9-0.5,14-2.4,13.3
				c-1.1-0.4-1.7-10.9-2.6-19c-0.7-6.2-1.6-19.5-5.3-21.9c-4.5-2.9-8.5,0.4-9.8,5.4c-0.9,3.8-1.1,7-2.3,12.1
				c-0.9,3.8-1.9,6.2-5.7,6.2l-10.8,0.1v5.6h2.5c13.9,0.6,17.9-0.8,19.5-6.9c1.5-5.4,2.1-11.6,2.4-13.4c0.5-2.6,2.2-3.9,2.9,3.4
				c0.4,3.6,0.7,8.3,1.3,13c1.7,13.9,2.2,23.5,8.4,24c7,0.6,7-11.8,7.5-16.7c0.3-3.1,0.7-12,2.3-11c2.3,1.3,1.4,12.5,12.1,12.9
				c6.2,0.3,8.4-4.2,8.8-9.2c0.4-4.7-4.3-11.7-10.6-17.7c-15.2-14.5-25.9-22-25.9-38c0-16.3,11.8-24.4,22.1-24.4
				c2.3,0,9.2-0.4,17.6,12.7c0.4,0.6,1,0.8,1.6,0.9c0.6-0.1,1.3-0.3,1.6-0.9c8.4-13.1,15.3-12.7,17.6-12.7
				c10.3,0,22.1,8.1,22.1,24.4c0,16-10.7,23-26,37.5c-6.3,6-10.7,13.4-10.5,18.1c0.1,4.5,2.7,9.5,8.8,9.2
				c10.4-0.5,9.8-8.7,11.9-13.1c1.2-2.4,2.6-2.4,3,1.2c0.4,3.7,0.4,4.8,0.8,8.6c0.5,4.9,2.3,10.4,6.9,10c3.9-0.4,6.2-2.7,6.9-9.8
				c0.2-2.1,0.4-3,0.6-6c0.2-1.7,0.7-3,1.5-2.7s1.5,2,2,3.2c1.6,3.5,5.4,3.3,6.2,3.3c3.8,0.1,5.1,0,5.1,0h11V99
				C135.3,99,126.9,98.9,125.1,98.8"/>
		</g>
	</g>
	<polygon class="st2" points="7.9,171 11.7,171 11.7,164.2 17.8,164.2 17.8,161.1 11.7,161.1 11.7,157.2 18.2,157.2 18.2,154.1 
		7.9,154.1 	"/>
	<g>
		<g>
			<defs>
				<rect id="SVGID_3_" x="-0.7" y="0" width="143" height="184.9"/>
			</defs>
			<clipPath id="SVGID_4_">
				<use xlink:href="#SVGID_3_"  style="overflow:visible;"/>
			</clipPath>
			<path class="st3" d="M26.3,158.4c-4,0-6.6,2.5-6.6,6.5s2.8,6.3,6.4,6.3l0,0c3.3,0,6.5-2.1,6.5-6.6
				C32.6,161,30.1,158.4,26.3,158.4 M26.2,168.6L26.2,168.6c-1.6,0-2.5-1.6-2.5-3.7c0-1.9,0.7-3.7,2.5-3.7c1.7,0,2.4,1.9,2.4,3.7
				C28.6,167.1,27.7,168.6,26.2,168.6"/>
		</g>
		<g>
			<defs>
				<rect id="SVGID_5_" x="-0.7" y="0" width="143" height="184.9"/>
			</defs>
			<clipPath id="SVGID_6_">
				<use xlink:href="#SVGID_5_"  style="overflow:visible;"/>
			</clipPath>
			<path class="st4" d="M46.5,158.7h-3.8v7.3c0,0.3-0.1,0.6-0.2,0.8c-0.2,0.6-0.9,1.3-1.9,1.3c-1.4,0-1.9-1.1-1.9-2.9v-6.6h-3.8v7.2
				c0,3.8,1.8,5.4,4.3,5.4c2.2,0,3.4-1.3,3.8-2h0.1l0.2,1.7h3.3c0-1-0.1-2.4-0.1-4C46.5,166.9,46.5,158.7,46.5,158.7z"/>
		</g>
		<g>
			<defs>
				<rect id="SVGID_7_" x="-0.7" y="0" width="143" height="184.9"/>
			</defs>
			<clipPath id="SVGID_8_">
				<use xlink:href="#SVGID_7_"  style="overflow:visible;"/>
			</clipPath>
			<path class="st5" d="M56.9,158.4c-2.1,0-3.3,1.2-3.8,2H53l-0.2-1.7h-3.3c0,1.1,0.1,2.4,0.1,3.9v8.4h3.8v-7.1c0-0.4,0-0.7,0.1-1
				c0.3-0.7,0.9-1.4,2-1.4c1.4,0,1.9,1.1,1.9,2.7v6.8h3.8v-7.3C61.3,160.1,59.4,158.4,56.9,158.4"/>
		</g>
		<g>
			<defs>
				<rect id="SVGID_9_" x="-0.7" y="0" width="143" height="184.9"/>
			</defs>
			<clipPath id="SVGID_10_">
				<use xlink:href="#SVGID_9_"  style="overflow:visible;"/>
			</clipPath>
			<path class="st6" d="M76.3,153.2h-3.8v6.7l0,0c-0.6-0.8-1.7-1.4-3.2-1.4c-3,0-5.5,2.4-5.5,6.5c0,3.8,2.3,6.3,5.3,6.3
				c1.6,0,3.1-0.7,3.8-2.1H73l0,1.8h3.4c-0.1-0.8-0.1-2.3-0.1-3.7V153.2z M72.5,165.6c0,0.3,0,0.6-0.1,0.9c-0.2,1.1-1.1,1.8-2.2,1.8
				c-1.6,0-2.6-1.3-2.6-3.4c0-1.9,0.9-3.5,2.6-3.5c1.2,0,2,0.8,2.3,1.9c0,0.2,0,0.5,0,0.7C72.5,164,72.5,165.6,72.5,165.6z"/>
		</g>
		<g>
			<defs>
				<rect id="SVGID_11_" x="-0.7" y="0" width="143" height="184.9"/>
			</defs>
			<clipPath id="SVGID_12_">
				<use xlink:href="#SVGID_11_"  style="overflow:visible;"/>
			</clipPath>
			<path class="st7" d="M89.6,163.8c0-2.9-1.3-5.3-5.4-5.3c-2.2,0-3.9,0.6-4.8,1.1l0.7,2.4c0.8-0.5,2.1-0.9,3.4-0.9
				c1.9,0,2.2,0.9,2.2,1.6v0.1c-4.4,0-7.2,1.5-7.2,4.7c0,2,1.5,3.8,4,3.8c1.5,0,2.7-0.5,3.5-1.5h0.1l0.2,1.2h3.5
				c-0.2-0.7-0.2-1.8-0.2-3C89.6,168,89.6,163.8,89.6,163.8z M85.9,166.6c0,0.2,0,0.4-0.1,0.6c-0.2,0.8-1.1,1.4-2,1.4
				s-1.5-0.5-1.5-1.5c0-1.5,1.6-1.9,3.6-1.9V166.6z"/>
		</g>
		<g>
			<defs>
				<rect id="SVGID_13_" x="-0.7" y="0" width="143" height="184.9"/>
			</defs>
			<clipPath id="SVGID_14_">
				<use xlink:href="#SVGID_13_"  style="overflow:visible;"/>
			</clipPath>
			<path class="st8" d="M96.8,155.4l-3.7,1v2.3h-1.6v2.8H93v5.1c0,1.7,0.3,2.9,1.1,3.7c0.6,0.6,1.7,1.1,2.9,1.1c1.1,0,2-0.1,2.5-0.3
				v-2.9c-0.3,0.1-0.6,0.1-1.1,0.1c-1.1,0-1.5-0.7-1.5-2.2v-4.5h2.7v-2.8h-2.7L96.8,155.4L96.8,155.4z"/>
		</g>
	</g>
	<rect x="101.7" y="158.7" class="st2" width="3.8" height="12.3"/>
	<g>
		<g>
			<defs>
				<rect id="SVGID_15_" x="-0.7" y="0" width="143" height="184.9"/>
			</defs>
			<clipPath id="SVGID_16_">
				<use xlink:href="#SVGID_15_"  style="overflow:visible;"/>
			</clipPath>
			<path class="st9" d="M103.7,153c-1.3,0-2.2,0.9-2.2,2s0.8,2,2.1,2l0,0c1.3,0,2.2-0.9,2.2-2C105.8,153.9,105,153,103.7,153"/>
		</g>
		<g>
			<defs>
				<rect id="SVGID_17_" x="-0.7" y="0" width="143" height="184.9"/>
			</defs>
			<clipPath id="SVGID_18_">
				<use xlink:href="#SVGID_17_"  style="overflow:visible;"/>
			</clipPath>
			<path class="st10" d="M114.5,158.4c-4,0-6.6,2.5-6.6,6.5s2.8,6.3,6.4,6.3l0,0c3.3,0,6.5-2.1,6.5-6.6
				C120.8,161,118.3,158.4,114.5,158.4 M114.4,168.6L114.4,168.6c-1.6,0-2.5-1.6-2.5-3.7c0-1.9,0.7-3.7,2.5-3.7
				c1.7,0,2.4,1.9,2.4,3.7C116.8,167.1,115.9,168.6,114.4,168.6"/>
		</g>
		<g>
			<defs>
				<rect id="SVGID_19_" x="-0.7" y="0" width="143" height="184.9"/>
			</defs>
			<clipPath id="SVGID_20_">
				<use xlink:href="#SVGID_19_"  style="overflow:visible;"/>
			</clipPath>
			<path class="st11" d="M130.4,158.4c-2.1,0-3.3,1.2-3.8,2h-0.1l-0.2-1.7H123c0.1,1.1,0.1,2.4,0.1,3.9v8.4h3.8v-7.1
				c0-0.4,0-0.7,0.1-1c0.3-0.7,0.9-1.4,2-1.4c1.4,0,1.9,1.1,1.9,2.7v6.8h3.8v-7.3C134.8,160.1,132.9,158.4,130.4,158.4"/>
		</g>
		<g>
			<defs>
				<rect id="SVGID_21_" x="-0.7" y="0" width="143" height="184.9"/>
			</defs>
			<clipPath id="SVGID_22_">
				<use xlink:href="#SVGID_21_"  style="overflow:visible;"/>
			</clipPath>
			<path class="st12" d="M16.6,139.5L16.6,139.5c1.7-0.7,2.5-2,2.5-3.3c0-1.4-0.8-2.5-1.8-3c-1.1-0.7-2.4-0.9-4.5-0.9
				c-1.8,0-3.6,0.1-4.5,0.3v15.1c0.8,0.1,2.1,0.2,3.8,0.2c3,0,4.9-0.5,6-1.4c1-0.8,1.6-1.9,1.6-3.3C19.6,141.3,18.3,140,16.6,139.5
				 M11.7,135c0.3-0.1,0.7-0.1,1.5-0.1c1.6,0,2.5,0.6,2.5,1.8c0,1.1-1,1.9-2.8,1.9h-1.1L11.7,135L11.7,135z M13,145.4
				c-0.6,0-1,0-1.4-0.1V141h1.2c1.7,0,3.1,0.6,3.1,2.1C16,144.8,14.6,145.4,13,145.4"/>
		</g>
		<g>
			<defs>
				<rect id="SVGID_23_" x="-0.7" y="0" width="143" height="184.9"/>
			</defs>
			<clipPath id="SVGID_24_">
				<use xlink:href="#SVGID_23_"  style="overflow:visible;"/>
			</clipPath>
			<path class="st13" d="M25,138.7L25,138.7l-0.2-2.1h-3c0.1,0.9,0.1,2,0.1,3.7v7.5h3.5v-5.6c0-0.3,0-0.5,0.1-0.8
				c0.2-1.1,1.1-1.8,2.4-1.8c0.4,0,0.7,0,1,0.1v-3.3c-0.2-0.1-0.4-0.1-0.7-0.1C26.9,136.4,25.6,137.1,25,138.7"/>
		</g>
	</g>
	<rect x="30.5" y="136.6" class="st2" width="3.5" height="11.1"/>
	<g>
		<g>
			<defs>
				<rect id="SVGID_25_" x="-0.7" y="0" width="143" height="184.9"/>
			</defs>
			<clipPath id="SVGID_26_">
				<use xlink:href="#SVGID_25_"  style="overflow:visible;"/>
			</clipPath>
			<path class="st14" d="M32.3,131.5c-1.2,0-2,0.8-2,1.9c0,1,0.8,1.9,1.9,1.9l0,0c1.2,0,2-0.8,2-1.9S33.4,131.5,32.3,131.5"/>
		</g>
		<g>
			<defs>
				<rect id="SVGID_27_" x="-0.7" y="0" width="143" height="184.9"/>
			</defs>
			<clipPath id="SVGID_28_">
				<use xlink:href="#SVGID_27_"  style="overflow:visible;"/>
			</clipPath>
			<path class="st15" d="M40.6,133.6l-3.4,0.9v2.1h-1.5v2.5h1.5v4.6c0,1.6,0.3,2.6,1,3.3c0.6,0.6,1.5,1,2.6,1c1,0,1.8-0.1,2.2-0.3
				v-2.6c-0.3,0.1-0.5,0.1-1,0.1c-1,0-1.4-0.6-1.4-2v-4.1h2.5v-2.5h-2.5C40.6,136.6,40.6,133.6,40.6,133.6z"/>
		</g>
	</g>
	<rect x="45.1" y="136.6" class="st2" width="3.5" height="11.1"/>
	<g>
		<g>
			<defs>
				<rect id="SVGID_29_" x="-0.7" y="0" width="143" height="184.9"/>
			</defs>
			<clipPath id="SVGID_30_">
				<use xlink:href="#SVGID_29_"  style="overflow:visible;"/>
			</clipPath>
			<path class="st16" d="M46.8,131.5c-1.2,0-2,0.8-2,1.9c0,1,0.8,1.9,1.9,1.9l0,0c1.2,0,2-0.8,2-1.9C48.8,132.3,48,131.5,46.8,131.5
				"/>
		</g>
		<g>
			<defs>
				<rect id="SVGID_31_" x="-0.7" y="0" width="143" height="184.9"/>
			</defs>
			<clipPath id="SVGID_32_">
				<use xlink:href="#SVGID_31_"  style="overflow:visible;"/>
			</clipPath>
			<path class="st17" d="M56.1,141c-1.4-0.5-1.8-0.8-1.8-1.3s0.5-0.9,1.3-0.9c0.9,0,1.9,0.4,2.4,0.6l0.6-2.4
				c-0.7-0.4-1.8-0.7-3.1-0.7c-2.8,0-4.5,1.6-4.5,3.7c0,1.3,0.9,2.6,3.2,3.3c1.3,0.4,1.6,0.7,1.6,1.3s-0.4,0.9-1.5,0.9
				c-1,0-2.4-0.4-3-0.8l-0.6,2.5c0.9,0.4,2.2,0.8,3.6,0.8c3.2,0,4.8-1.5,4.8-3.6C59.1,142.8,58.2,141.7,56.1,141"/>
		</g>
		<g>
			<defs>
				<rect id="SVGID_33_" x="-0.7" y="0" width="143" height="184.9"/>
			</defs>
			<clipPath id="SVGID_34_">
				<use xlink:href="#SVGID_33_"  style="overflow:visible;"/>
			</clipPath>
			<path class="st18" d="M67.9,136.4c-0.6,0-1.3,0.2-1.8,0.4c-0.6,0.3-1,0.7-1.4,1.2l0,0v-6.4h-3.5v16.2h3.5v-6.6
				c0-0.2,0-0.5,0.1-0.7c0.2-0.6,0.8-1.2,1.7-1.2c1.3,0,1.8,1,1.8,2.5v6.1h3.4v-6.5C71.8,137.9,70.1,136.4,67.9,136.4"/>
		</g>
	</g>
	<polygon class="st2" points="88.5,138.3 82.8,138.3 82.8,132.4 79.3,132.4 79.3,147.8 82.8,147.8 82.8,141.4 88.5,141.4 
		88.5,147.8 91.9,147.8 91.9,132.4 88.5,132.4 	"/>
	<g>
		<g>
			<defs>
				<rect id="SVGID_35_" x="-0.7" y="0" width="143" height="184.9"/>
			</defs>
			<clipPath id="SVGID_36_">
				<use xlink:href="#SVGID_35_"  style="overflow:visible;"/>
			</clipPath>
			<path class="st19" d="M99.9,136.4c-3.8,0-5.6,3.1-5.6,5.9c0,3.5,2.2,5.7,5.9,5.7c1.5,0,2.9-0.2,4-0.7l-0.5-2.4
				c-0.9,0.3-1.9,0.5-3.1,0.5c-1.6,0-3-0.7-3.1-2.1h7.2c0-0.3,0.1-0.8,0.1-1.4C104.9,139.2,103.5,136.4,99.9,136.4 M97.5,140.9
				c0.1-0.9,0.7-2.3,2.2-2.3c1.6,0,1.9,1.4,1.9,2.3H97.5z"/>
		</g>
		<g>
			<defs>
				<rect id="SVGID_37_" x="-0.7" y="0" width="143" height="184.9"/>
			</defs>
			<clipPath id="SVGID_38_">
				<use xlink:href="#SVGID_37_"  style="overflow:visible;"/>
			</clipPath>
			<path class="st20" d="M116.2,141.2c0-2.6-1.2-4.8-4.9-4.8c-2,0-3.5,0.6-4.3,1l0.6,2.2c0.7-0.4,1.9-0.8,3.1-0.8c1.7,0,2,0.9,2,1.4
				v0.1c-3.9,0-6.5,1.4-6.5,4.3c0,1.8,1.3,3.4,3.6,3.4c1.3,0,2.5-0.5,3.2-1.4h0.1l0.2,1.1h3.1c-0.1-0.6-0.2-1.6-0.2-2.7L116.2,141.2
				L116.2,141.2z M112.8,143.7c0,0.2,0,0.4-0.1,0.6c-0.2,0.7-1,1.3-1.8,1.3s-1.4-0.4-1.4-1.3c0-1.3,1.4-1.8,3.2-1.8v1.2H112.8z"/>
		</g>
		<g>
			<defs>
				<rect id="SVGID_39_" x="-0.7" y="0" width="143" height="184.9"/>
			</defs>
			<clipPath id="SVGID_40_">
				<use xlink:href="#SVGID_39_"  style="overflow:visible;"/>
			</clipPath>
			<path class="st21" d="M122.1,138.7L122.1,138.7l-0.2-2.1h-3c0.1,0.9,0.1,2,0.1,3.7v7.5h3.5v-5.6c0-0.3,0-0.5,0.1-0.8
				c0.2-1.1,1.1-1.8,2.4-1.8c0.4,0,0.7,0,1,0.1v-3.3c-0.3-0.1-0.4-0.1-0.7-0.1C124,136.4,122.6,137.1,122.1,138.7"/>
		</g>
		<g>
			<path class="st2" d="M132,133.6l-3.4,0.9v2.1h-1.5v2.5h1.5v4.6c0,1.6,0.3,2.6,1,3.3c0.6,0.6,1.5,1,2.6,1c1,0,1.8-0.1,2.2-0.3
				v-2.6c-0.3,0.1-0.5,0.1-1,0.1c-1,0-1.4-0.6-1.4-2v-4.1h2.5v-2.5H132V133.6z"/>
		</g>
	</g>
</g>
</svg>
