<?xml version="1.0" encoding="utf-8"?>
<!-- Generator: Adobe Illustrator 21.0.2, SVG Export Plug-In . SVG Version: 6.00 Build 0)  -->
<svg version="1.1" id="Layer_1" xmlns="http://www.w3.org/2000/svg" xmlns:xlink="http://www.w3.org/1999/xlink" x="0px" y="0px"
	 viewBox="0 0 1067.8 508.1" style="enable-background:new 0 0 1067.8 508.1;" xml:space="preserve">
<style type="text/css">
	.st0{fill:#81CFF2;}
	.st1{filter:url(#Adobe_OpacityMaskFilter);}
	.st2{mask:url(#SVGID_1_);}
	.st3{fill:#FFFFFF;}
	.st4{fill:#E9600B;}
	.st5{fill:#F9B227;}
	.st6{fill:#ED7219;}
	.st7{opacity:0.8;fill:#E9600B;}
	.st8{opacity:0.16;fill:#FFFFFF;}
	.st9{fill:#403028;}
	.st10{fill:#634531;}
	.st11{opacity:0.8;fill:#ED7219;}
	.st12{fill:#5E3D27;}
	.st13{opacity:6.000000e-02;fill:#FFFFFF;}
	.st14{clip-path:url(#SVGID_3_);fill:#F39200;}
	.st15{fill:#F39200;}
	.st16{clip-path:url(#SVGID_5_);fill:#F39200;}
	.st17{clip-path:url(#SVGID_7_);fill:#F39200;}
	.st18{clip-path:url(#SVGID_9_);fill:#F39200;}
	.st19{clip-path:url(#SVGID_11_);fill:#F39200;}
</style>
<rect x="158.7" y="265.8" class="st0" width="748.5" height="33.8"/>
<g>
	<g>
		<defs>
			<filter id="Adobe_OpacityMaskFilter" filterUnits="userSpaceOnUse" x="162.2" y="96" width="743.7" height="208">
				
					<feColorMatrix  type="matrix" values="-1 0 0 0 1  0 -1 0 0 1  0 0 -1 0 1  0 0 0 1 0" color-interpolation-filters="sRGB" result="source"/>
			</filter>
		</defs>
		<mask maskUnits="userSpaceOnUse" x="162.2" y="96" width="743.7" height="208" id="SVGID_1_">
			<g class="st1">
				<g>
					<ellipse cx="526.7" cy="157.1" rx="1.2" ry="1.1"/>
					<ellipse cx="540.2" cy="157.1" rx="1.2" ry="1.1"/>
					<path d="M893.7,229.4c4-2.2,6.2-3.6,6.3-3.7l-1.6-2.5c-0.6,0.4-61.4,39-123.6,21c-44.1-12.8-100.3-61-112.5-71.7v-18h-1v-14.9
						h1c0,0-1.7-4.2-2.7-8.1c-0.8-3-1.8-7.7-2.3-9.8c0.4-0.1,0.7-0.4,0.7-0.7c0-0.3-0.3-0.6-0.7-0.7v-2.4h1.8v-0.5h-1.8v-2.7H657
						v2.7h-1.7v0.5h1.7v2.4c-0.4,0.1-0.8,0.4-0.8,0.7c0,0.4,0.3,0.6,0.8,0.7c-0.4,1.8-1.4,5.8-2.4,9h-4.8l-5.1-22.8H644V93.2h-1
						v14.6h-0.8l-4.9,23.3h-4.7c-0.8-3-1.8-7.5-2.2-9.5c0.4-0.1,0.7-0.4,0.7-0.7c0-0.3-0.3-0.6-0.7-0.7v-2.4h1.8v-0.5h-1.8v-2.7
						h-0.5v2.7h-1.7v0.5h1.7v2.4c-0.4,0.1-0.8,0.4-0.8,0.7c0,0.4,0.3,0.6,0.8,0.7c-0.5,2-1.5,6.4-2.6,9.8c-1.4,4.4-3.1,8.1-3.1,8.1
						h1v14.9h-0.9v4.5h-83.3v-0.5h-5.2c0-0.1,0.1-0.3,0.1-0.4c0-0.8-0.7-1.4-1.7-1.5v-1.2h1.3v-0.5h-1.3v-1.4h-0.5v1.4h-1.3v0.5h1.3
						v1.2c-1,0.1-1.7,0.7-1.7,1.5c0,0.1,0,0.3,0.1,0.4h-6.2v0.5h-83.1v-4.5h-0.9v-14.9h1c0,0-1.7-3.7-3.1-8.1
						c-1.1-3.3-2.1-7.8-2.6-9.8c0.4-0.1,0.8-0.4,0.8-0.7c0-0.4-0.3-0.6-0.8-0.7v-2.4h1.7v-0.5h-1.7v-2.7h-0.5v2.7h-1.8v0.5h1.8v2.4
						c-0.4,0.1-0.7,0.4-0.7,0.7c0,0.3,0.3,0.6,0.7,0.7c-0.4,2-1.4,6.5-2.2,9.5h-4.7l-4.9-23.3h-0.8V93.2h-1v14.6h-0.7l-5.1,22.8
						h-4.8c-1-3.2-1.9-7.1-2.4-9c0.4-0.1,0.8-0.4,0.8-0.7c0-0.4-0.3-0.6-0.8-0.7v-2.4h1.7v-0.5h-1.7v-2.7h-0.5v2.7h-1.8v0.5h1.8v2.4
						c-0.4,0.1-0.7,0.4-0.7,0.7c0,0.3,0.3,0.6,0.7,0.7c-0.5,2.1-1.5,6.8-2.3,9.8c-1,3.9-2.7,8.1-2.7,8.1h1v14.9h-1v18
						c-12.2,10.8-68.3,58.9-112.5,71.7c-62.2,18.1-123-20.6-123.6-21l-1.6,2.5c0.1,0.1,2.4,1.5,6.3,3.7v29h-5.5v8.1h227.1v19.1h57.4
						v-19.1h80.4h1.5h80.4v19.1h57.4v-19.1h227.1v-8.1h-5.5V229.4z M192.1,258.3h-17.6v-28.4c4.3,2.3,10.3,5.2,17.6,8.2V258.3z
						 M210.7,258.3h-17.6v-19.8c5.3,2.1,11.2,4.3,17.6,6.2V258.3z M229.2,258.3h-17.6V245c5.5,1.6,11.4,3.1,17.6,4.2V258.3z
						 M247.8,258.3h-17.6v-8.9c5.7,1,11.5,1.8,17.6,2.2V258.3z M262,258.3h-13.1v-6.7c2.9,0.2,5.8,0.3,8.8,0.3c1.4,0,2.9,0,4.3-0.1
						V258.3z M285,258.3H267v-6.7c5.9-0.4,12-1.2,18.1-2.5V258.3z M303.6,258.3H286v-9.5c2.4-0.5,4.7-1.1,7.1-1.8
						c3.4-1,6.9-2.2,10.5-3.6V258.3z M322.2,258.3h-17.6V243c5.8-2.3,11.7-5.1,17.6-8.1V258.3z M340.8,258.3h-17.6v-24
						c5.9-3.1,11.8-6.5,17.6-10.1V258.3z M359.4,258.3h-17.6v-34.7c6-3.8,11.9-7.7,17.6-11.7V258.3z M378,258.3h-17.6v-47.1
						c6.2-4.4,12.2-8.8,17.6-13V258.3z M396.6,257.5h-1.6v0.8h-16v-60.8c6.8-5.3,12.8-10.1,17.6-14.1V257.5z M406.3,257.5h-8.6v-75
						c2.9-2.4,5.3-4.5,7.1-6.1v5.4h1.5V257.5z M417.9,246.3h-1.7v-16h1.7V246.3z M417.9,218.6h-1.7v-6.9h1.7V218.6z M417.9,195.5
						h-1.7v-6.9h1.7V195.5z M418,168.9h-1.7v-11.3h1.7V168.9z M420.8,141.8h5.3v6.9h-5.3V141.8z M424,246.3h-1.7v-16h1.7V246.3z
						 M424,218.6h-1.7v-6.9h1.7V218.6z M424,195.5h-1.7v-6.9h1.7V195.5z M426.1,168.9h-5.3v-11.3h5.3V168.9z M430.1,246.3h-1.7v-16
						h1.7V246.3z M430.1,218.6h-1.7v-6.9h1.7V218.6z M430.1,195.5h-1.7v-6.9h1.7V195.5z M430.3,168.9h-1.7v-11.3h1.7V168.9z
						 M621.7,164.5l2.7-2.7v5.3h-0.2L621.7,164.5z M622.1,167h-3l1.5-1.5L622.1,167z M622.7,161.3l-2.1,2.1l-2.1-2.1H622.7z
						 M616.4,161.3l3.1,3.1L617,167h-1.2l-2.6-2.6L616.4,161.3L616.4,161.3z M613.6,167h-3l1.5-1.5L613.6,167z M614.2,161.3
						l-2.1,2.1l-2.1-2.1H614.2z M607.9,161.3l3.1,3.1l-2.6,2.6h-1.2l-2.6-2.6L607.9,161.3L607.9,161.3z M605.1,167h-3l1.5-1.5
						L605.1,167z M605.7,161.3l-2.1,2.1l-2.1-2.1H605.7z M599.5,161.3l3.1,3.1L600,167h-1.2l-2.6-2.6L599.5,161.3L599.5,161.3z
						 M596.7,167h-3l1.5-1.5L596.7,167z M597.3,161.3l-2.1,2.1l-2.1-2.1H597.3z M591,161.3l3.1,3.1l-2.6,2.6h-1.2l-2.6-2.6
						L591,161.3L591,161.3z M588.2,167h-3l1.5-1.5L588.2,167z M588.8,161.3l-2.1,2.1l-2.1-2.1H588.8z M582.5,161.3l3.1,3.1l-2.6,2.6
						h-1.2l-2.6-2.6L582.5,161.3L582.5,161.3z M579.7,167h-3l1.5-1.5L579.7,167z M580.3,161.3l-2.1,2.1l-2.1-2.1H580.3z M574,161.3
						l3.1,3.1l-2.6,2.6h-1.2l-2.6-2.6L574,161.3L574,161.3z M571.2,167h-3l1.5-1.5L571.2,167z M571.8,161.3l-2.1,2.1l-2.1-2.1H571.8
						z M565.6,161.3l3.1,3.1l-2.6,2.6h-1.2l-2.6-2.6L565.6,161.3L565.6,161.3z M562.8,167h-3l1.5-1.5L562.8,167z M563.3,161.3
						l-2.1,2.1l-2.1-2.1H563.3z M557.1,161.3l3.1,3.1l-2.6,2.6h-1.2l-2.6-2.6L557.1,161.3L557.1,161.3z M554.3,167h-3l1.5-1.5
						L554.3,167z M554.9,161.3l-2.1,2.1l-2.1-2.1H554.9z M548.6,161.3l3.1,3.1l-2.6,2.6h-1.2l-2.6-2.6L548.6,161.3L548.6,161.3z
						 M545.8,167h-3l1.5-1.5L545.8,167z M546.4,161.3l-2.1,2.1l-2.1-2.1H546.4z M543.3,164.5l-2.2,2.2v-4.4L543.3,164.5z
						 M525.9,166.5l-2-2l2-2V166.5z M524.3,167h-3l1.5-1.5L524.3,167z M524.9,161.3l-2.1,2.1l-2.1-2.1H524.9z M518.6,161.3l3.1,3.1
						l-2.6,2.6H518l-2.6-2.6L518.6,161.3L518.6,161.3z M515.8,167h-3l1.5-1.5L515.8,167z M516.4,161.3l-2.1,2.1l-2.1-2.1H516.4z
						 M510.1,161.3l3.1,3.1l-2.6,2.6h-1.2l-2.6-2.6L510.1,161.3L510.1,161.3z M507.3,167h-3l1.5-1.5L507.3,167z M507.9,161.3
						l-2.1,2.1l-2.1-2.1H507.9z M501.7,161.3l3.1,3.1l-2.6,2.6H501l-2.6-2.6L501.7,161.3L501.7,161.3z M498.9,167h-3l1.5-1.5
						L498.9,167z M499.5,161.3l-2.1,2.1l-2.1-2.1H499.5z M493.2,161.3l3.1,3.1l-2.6,2.6h-1.2l-2.6-2.6L493.2,161.3L493.2,161.3z
						 M490.4,167h-3l1.5-1.5L490.4,167z M491,161.3l-2.1,2.1l-2.1-2.1H491z M484.7,161.3l3.1,3.1l-2.6,2.6H484l-2.6-2.6L484.7,161.3
						L484.7,161.3z M481.9,167h-3l1.5-1.5L481.9,167z M482.5,161.3l-2.1,2.1l-2.1-2.1H482.5z M476.2,161.3l3.1,3.1l-2.6,2.6h-1.2
						l-2.6-2.6L476.2,161.3L476.2,161.3z M473.4,167h-3l1.5-1.5L473.4,167z M474,161.3l-2.1,2.1l-2.1-2.1H474z M467.8,161.3l3.1,3.1
						l-2.6,2.6h-1.2l-2.6-2.6L467.8,161.3L467.8,161.3z M465,167h-3l1.5-1.5L465,167z M465.5,161.3l-2.1,2.1l-2.1-2.1H465.5z
						 M459.3,161.3l3.1,3.1l-2.6,2.6h-1.2l-2.6-2.6L459.3,161.3L459.3,161.3z M456.5,167h-3l1.5-1.5L456.5,167z M457.1,161.3
						l-2.1,2.1l-2.1-2.1H457.1z M450.8,161.3l3.1,3.1l-2.6,2.6h-1.2l-2.6-2.6L450.8,161.3L450.8,161.3z M448,167h-3l1.5-1.5L448,167
						z M448.6,161.3l-2.1,2.1l-2.1-2.1H448.6z M442.7,161.7l2.7,2.7l-2.6,2.6h-0.2V161.7z M625.9,257.5h-11.2v0.8h-80.4h-1.5h-80.4
						v-0.8h-11.2v-75.7h1.5v-10.9h85.7v0h10.2v0h85.7v10.9h1.5V257.5z M636.8,157.6h1.7v11.3h-1.7V157.6z M638.7,246.3H637v-16h1.7
						V246.3z M638.7,218.6H637v-6.9h1.7V218.6z M638.7,195.5H637v-6.9h1.7V195.5z M644.8,246.3h-1.7v-16h1.7V246.3z M644.8,218.6
						h-1.7v-6.9h1.7V218.6z M644.8,195.5h-1.7v-6.9h1.7V195.5z M646.3,168.9H641v-11.3h5.3V168.9z M646.4,148.7h-5.3v-6.9h5.3V148.7
						z M649.1,157.6h1.7v11.3h-1.7V157.6z M650.9,246.3h-1.7v-16h1.7V246.3z M650.9,218.6h-1.7v-6.9h1.7V218.6z M650.9,195.5h-1.7
						v-6.9h1.7V195.5z M669.5,257.5h-8.6v-75.7h1.5v-5.4c1.9,1.6,4.3,3.7,7.1,6.1V257.5z M688.1,258.3h-16v-0.8h-1.6v-74.1
						c4.8,4,10.8,8.9,17.6,14.1V258.3z M706.7,258.3h-17.6v-60.1c5.4,4.2,11.3,8.6,17.6,13V258.3z M725.3,258.3h-17.6v-46.4
						c5.7,4,11.6,7.9,17.6,11.7V258.3z M743.9,258.3h-17.6v-34.1c5.8,3.6,11.7,7,17.6,10.1V258.3z M762.5,258.3h-17.6v-23.4
						c5.9,3.1,11.8,5.8,17.6,8.1V258.3z M781.1,258.3h-17.6v-14.9c3.5,1.4,7.1,2.6,10.5,3.6c2.4,0.7,4.7,1.3,7.1,1.8V258.3z
						 M800.2,258.3h-18.1v-9.3c6.1,1.3,12.1,2.1,18.1,2.5V258.3z M818.3,258.3h-13.1v-6.5c1.5,0,2.9,0.1,4.3,0.1
						c3,0,5.9-0.1,8.8-0.3V258.3z M836.9,258.3h-17.6v-6.7c6.1-0.4,11.9-1.2,17.6-2.2V258.3z M855.5,258.3h-17.6v-9.1
						c6.2-1.2,12.1-2.6,17.6-4.2V258.3z M874.1,258.3h-17.6v-13.6c6.4-1.9,12.3-4.1,17.6-6.2V258.3z M892.7,258.3h-17.6v-20.2
						c7.3-3,13.3-6,17.6-8.2V258.3z"/>
				</g>
			</g>
		</mask>
		<g class="st2">
			<g>
				<polygon id="triangle36_279_" class="st3" points="535,249.6 534.9,214.3 494.9,205.9 				"/>
				<polygon id="triangle36_278_" class="st3" points="494.9,205.9 444.9,187.2 418.7,255.3 				"/>
				<polygon id="triangle36_277_" class="st3" points="452.6,205.9 418.7,255.3 452.6,284.8 				"/>
				<polygon id="triangle36_276_" class="st3" points="456.3,282.9 452.6,304 410.6,304 				"/>
				<polygon id="triangle36_275_" class="st3" points="456.3,282.9 418.7,255.3 410.6,304 				"/>
				<polygon id="triangle36_274_" class="st3" points="456.3,282.9 452.6,304 535,304 				"/>
				<polygon id="triangle36_273_" class="st3" points="502.1,270.1 456.3,282.9 535,304 				"/>
				<polygon id="triangle36_272_" class="st3" points="534.9,214.3 494.9,205.9 519.7,160 				"/>
				<polygon id="triangle36_271_" class="st3" points="519.7,160 494.9,205.9 485.9,135.3 				"/>
				<polygon id="triangle36_270_" class="st3" points="494.9,205.9 444.9,187.2 485.9,135.3 				"/>
				<polygon id="triangle36_269_" class="st3" points="485.9,135.3 444.9,187.2 446.3,153.1 				"/>
				<polygon id="triangle36_268_" class="st3" points="519.7,160 485.9,135.3 535,125.9 				"/>
				<polygon id="triangle36_267_" class="st3" points="534.9,214.3 519.7,160 535,125.9 				"/>
				<polygon id="triangle36_266_" class="st3" points="535,125.9 485.9,135.3 535,96 				"/>
				<polygon id="triangle36_264_" class="st3" points="485.9,135.3 446.3,153.1 470.7,96 				"/>
				<polygon id="triangle36_263_" class="st3" points="535,96 485.9,135.3 470.7,96 				"/>
				<polygon id="triangle36_262_" class="st3" points="470.7,96 446.3,153.1 414.4,124.5 				"/>
				<polygon id="triangle36_261_" class="st3" points="446.3,153.1 444.9,187.2 368.2,178.8 				"/>
				<polygon id="triangle36_260_" class="st3" points="446.3,153.1 414.4,124.5 368.2,178.8 				"/>
				<polygon id="triangle36_259_" class="st3" points="418.7,255.3 410.6,304 370.1,251.8 				"/>
				<polygon id="triangle36_258_" class="st3" points="418.7,255.3 408.2,215.8 370.1,251.8 				"/>
				<polygon id="triangle36_256_" class="st3" points="408.2,215.8 368.2,178.8 370.1,251.8 				"/>
				<polygon id="triangle36_255_" class="st3" points="410.6,304 370.1,251.8 359.6,288.3 				"/>
				<polygon id="triangle36_254_" class="st3" points="410.6,304 359.6,288.3 363,304 				"/>
				<polygon id="triangle36_253_" class="st3" points="370.1,251.8 368.2,178.8 319.6,245.4 				"/>
				<polygon id="triangle36_252_" class="st3" points="370.1,251.8 359.6,288.3 319.6,245.4 				"/>
				<polygon id="triangle36_251_" class="st3" points="363,304 359.6,288.3 306.3,304 				"/>
				<polygon id="triangle36_250_" class="st3" points="359.6,288.3 319.6,245.4 306.3,304 				"/>
				<polygon id="triangle36_249_" class="st3" points="319.6,245.4 274.4,265.6 306.3,304 				"/>
				<polygon id="triangle36_248_" class="st3" points="319.6,245.4 274.4,265.6 255.3,250.3 				"/>
				<polygon id="triangle36_247_" class="st3" points="306.3,304 274.4,265.6 239.3,304 				"/>
				<polygon id="triangle36_246_" class="st3" points="274.4,265.6 255.3,250.3 239.3,304 				"/>
				<polygon id="triangle36_245_" class="st3" points="255.3,250.3 239.3,304 210.6,304 				"/>
				<polygon id="triangle36_244_" class="st3" points="255.3,250.3 203.9,226.1 210.6,304 				"/>
				<polygon id="triangle36_242_" class="st3" points="203.9,226.1 162.2,304 210.6,304 				"/>
				<polygon id="triangle36_240_" class="st3" points="203.9,226.1 162.2,304 162.2,188.2 				"/>
				<polygon id="triangle36_237_" class="st3" points="255.3,250.3 203.9,226.1 257.2,173.3 				"/>
				<polygon id="triangle36_229_" class="st3" points="368.2,178.8 319.6,245.4 305.3,175.3 				"/>
				<polygon id="triangle36_228_" class="st3" points="319.6,245.4 255.3,250.3 305.3,175.3 				"/>
				<polygon id="triangle36_226_" class="st3" points="257.2,173.3 255.3,250.3 305.3,175.3 				"/>
				<polygon id="triangle36_224_" class="st3" points="470.7,96 414.4,124.5 395.6,96 				"/>
				<polygon id="triangle36_186_" class="st3" points="414.4,124.5 395.6,96 356.8,132.4 				"/>
				<polygon id="triangle36_185_" class="st3" points="414.4,124.5 368.2,178.8 356.8,132.4 				"/>
				<polygon id="triangle36_184_" class="st3" points="395.6,96 287.1,96 356.8,132.4 				"/>
				<polygon id="triangle36_183_" class="st3" points="368.2,178.8 305.3,175.3 356.8,132.4 				"/>
				<polygon id="triangle36_182_" class="st3" points="305.3,175.3 287.1,96 356.8,132.4 				"/>
				<polygon id="triangle36_181_" class="st3" points="444.9,187.2 418.7,255.3 408.7,214.3 				"/>
				<polygon id="triangle36_180_" class="st3" points="444.9,187.2 368.2,178.8 408.7,214.3 				"/>
				<polygon id="triangle36_179_" class="st3" points="418.7,255.3 408.2,215.8 408.7,214.3 				"/>
				<polygon id="triangle36_178_" class="st3" points="408.2,215.8 368.2,178.8 408.7,214.3 				"/>
			</g>
			<g>
				<polygon id="triangle36_177_" class="st3" points="533.2,249.6 533.2,214.3 573.2,205.9 				"/>
				<polygon id="triangle36_176_" class="st3" points="573.2,205.9 623.3,187.2 649.5,255.3 				"/>
				<polygon id="triangle36_175_" class="st3" points="614.1,201.5 649.5,255.3 614.1,284 				"/>
				<polygon id="triangle36_174_" class="st3" points="611.8,282.9 615.5,304 657.5,304 				"/>
				<polygon id="triangle36_173_" class="st3" points="611.8,282.9 649.5,255.3 657.5,304 				"/>
				<polygon id="triangle36_172_" class="st3" points="611.8,282.9 615.5,304 533.2,304 				"/>
				<polygon id="triangle36_171_" class="st3" points="566.1,270.1 611.8,282.9 533.2,304 				"/>
				<polygon id="triangle36_170_" class="st3" points="533.2,214.3 573.2,205.9 548.5,160 				"/>
				<polygon id="triangle36_169_" class="st3" points="548.5,160 573.2,205.9 582.3,135.3 				"/>
				<polygon id="triangle36_168_" class="st3" points="573.2,205.9 623.3,187.2 582.3,135.3 				"/>
				<polygon id="triangle36_167_" class="st3" points="582.3,135.3 623.3,187.2 621.8,153.1 				"/>
				<polygon id="triangle36_166_" class="st3" points="548.5,160 582.3,135.3 533.2,125.9 				"/>
				<polygon id="triangle36_165_" class="st3" points="533.2,214.3 548.5,160 533.2,125.9 				"/>
				<polygon id="triangle36_164_" class="st3" points="533.2,125.9 582.3,135.3 533.2,96 				"/>
				<polygon id="triangle36_163_" class="st3" points="582.3,135.3 621.8,153.1 597.5,96 				"/>
				<polygon id="triangle36_162_" class="st3" points="533.2,96 582.3,135.3 597.5,96 				"/>
				<polygon id="triangle36_161_" class="st3" points="597.5,96 621.8,153.1 653.7,124.5 				"/>
				<polygon id="triangle36_160_" class="st3" points="621.8,153.1 623.3,187.2 699.9,178.8 				"/>
				<polygon id="triangle36_159_" class="st3" points="621.8,153.1 653.7,124.5 699.9,178.8 				"/>
				<polygon id="triangle36_158_" class="st3" points="649.5,255.3 657.5,304 698,251.8 				"/>
				<polygon id="triangle36_157_" class="st3" points="649.5,255.3 659.9,215.8 698,251.8 				"/>
				<polygon id="triangle36_156_" class="st3" points="659.9,215.8 699.9,178.8 698,251.8 				"/>
				<polygon id="triangle36_155_" class="st3" points="657.5,304 698,251.8 708.5,288.3 				"/>
				<polygon id="triangle36_154_" class="st3" points="657.5,304 708.5,288.3 705.2,304 				"/>
				<polygon id="triangle36_153_" class="st3" points="698,251.8 699.9,178.8 748.5,245.4 				"/>
				<polygon id="triangle36_152_" class="st3" points="698,251.8 708.5,288.3 748.5,245.4 				"/>
				<polygon id="triangle36_151_" class="st3" points="705.2,304 708.5,288.3 761.9,304 				"/>
				<polygon id="triangle36_150_" class="st3" points="708.5,288.3 748.5,245.4 761.9,304 				"/>
				<polygon id="triangle36_149_" class="st3" points="748.5,245.4 793.8,265.6 761.9,304 				"/>
				<polygon id="triangle36_148_" class="st3" points="748.5,245.4 793.8,265.6 812.8,250.3 				"/>
				<polygon id="triangle36_147_" class="st3" points="761.9,304 793.8,265.6 828.8,304 				"/>
				<polygon id="triangle36_146_" class="st3" points="793.8,265.6 812.8,250.3 828.8,304 				"/>
				<polygon id="triangle36_145_" class="st3" points="812.8,250.3 828.8,304 857.6,304 				"/>
				<polygon id="triangle36_144_" class="st3" points="812.8,250.3 864.3,226.1 857.6,304 				"/>
				<polygon id="triangle36_143_" class="st3" points="864.3,226.1 905.9,304 857.6,304 				"/>
				<polygon id="triangle36_142_" class="st3" points="864.3,226.1 905.9,304 905.9,188.2 				"/>
				<polygon id="triangle36_141_" class="st3" points="864.3,226.1 905.9,188.2 873.8,129.9 				"/>
				<polygon id="triangle36_140_" class="st3" points="873.8,129.9 905.9,188.2 905.9,96 				"/>
				<polygon id="triangle36_139_" class="st3" points="812.8,250.3 864.3,226.1 810.9,173.3 				"/>
				<polygon id="triangle36_138_" class="st3" points="864.3,226.1 873.8,129.9 810.9,173.3 				"/>
				<polygon id="triangle36_137_" class="st3" points="810.9,173.3 873.8,129.9 822.3,134.4 				"/>
				<polygon id="triangle36_136_" class="st3" points="822.3,134.4 873.8,129.9 857.2,96 				"/>
				<polygon id="triangle36_135_" class="st3" points="873.8,129.9 905.9,96 857.2,96 				"/>
				<polygon id="triangle36_134_" class="st3" points="822.3,134.4 857.2,96 781.1,96 				"/>
				<polygon id="triangle36_133_" class="st3" points="699.9,178.8 748.5,245.4 762.8,175.3 				"/>
				<polygon id="triangle36_132_" class="st3" points="748.5,245.4 812.8,250.3 762.8,175.3 				"/>
				<polygon id="triangle36_131_" class="st3" points="781.1,96 822.3,134.4 762.8,175.3 				"/>
				<polygon id="triangle36_130_" class="st3" points="810.9,173.3 812.8,250.3 762.8,175.3 				"/>
				<polygon id="triangle36_129_" class="st3" points="810.9,173.3 822.3,134.4 762.8,175.3 				"/>
				<polygon id="triangle36_128_" class="st3" points="597.5,96 653.7,124.5 672.6,96 				"/>
				<polygon id="triangle36_127_" class="st3" points="653.7,124.5 672.6,96 711.4,132.4 				"/>
				<polygon id="triangle36_126_" class="st3" points="653.7,124.5 699.9,178.8 711.4,132.4 				"/>
				<polygon id="triangle36_125_" class="st3" points="672.6,96 781.1,96 711.4,132.4 				"/>
				<polygon id="triangle36_124_" class="st3" points="699.9,178.8 762.8,175.3 711.4,132.4 				"/>
				<polygon id="triangle36_123_" class="st3" points="762.8,175.3 781.1,96 711.4,132.4 				"/>
				<polygon id="triangle36_122_" class="st3" points="623.3,187.2 649.5,255.3 659.5,214.3 				"/>
				<polygon id="triangle36_121_" class="st3" points="623.3,187.2 699.9,178.8 659.5,214.3 				"/>
				<polygon id="triangle36_120_" class="st3" points="649.5,255.3 659.9,215.8 659.5,214.3 				"/>
				<polygon id="triangle36_119_" class="st3" points="659.9,215.8 699.9,178.8 659.5,214.3 				"/>
			</g>
		</g>
		<rect x="395.1" y="257.9" class="st3" width="60.2" height="27.6"/>
		<rect x="614.1" y="257.9" class="st3" width="60.2" height="27.6"/>
		<polygon class="st3" points="523.4,226.2 450.3,257.9 454.2,266.9 527.3,235.1 		"/>
		<polygon class="st3" points="544.9,226.2 618,257.9 614.2,266.9 541.1,235.1 		"/>
	</g>
	<rect x="154" y="215" class="st3" width="16" height="70"/>
	<rect x="895" y="215" class="st3" width="16" height="70"/>
</g>
<g>
	<g>
		<path class="st4" d="M336.2,366.4c0,0-33.6,19.6-56.7,59.4c-25.1,43.2-27.3,60.9-16.8,67c10.5,6.1,24.8-4.5,49.9-47.7
			C335.7,405.3,336.2,366.4,336.2,366.4z"/>
		<path class="st5" d="M330.8,375.6c0,0-28.8,17.9-49.2,53c-22.2,38.2-24.4,53.6-15.7,58.6c8.7,5,21-4.5,43.2-42.6
			C329.5,409.5,330.8,375.6,330.8,375.6z"/>
		<path class="st6" d="M325.5,384.8c0,0-27.8,16-46.7,48.6c-20.6,35.4-22.3,50-13.6,55.1c8.7,5.1,20.5-3.6,41.2-39
			C325.3,416.8,325.5,384.8,325.5,384.8z"/>
		<path class="st7" d="M310.7,410.2c-3.9-2.3-8.9-1-10.9,2.4l-8.2,14.1c-2,3.4-0.6,8.3,3.3,10.6c3.9,2.3,8.9,1,10.9-2.4l8.2-14.1
			C316,417.4,314.6,412.5,310.7,410.2z M303.7,433.7c-1.4,2.4-4.8,3-7.6,1.4c-2.8-1.6-3.9-4.9-2.5-7.3l8.2-14.1
			c1.4-2.4,4.8-3,7.6-1.4c2.8,1.6,3.9,4.9,2.5,7.3L303.7,433.7z"/>
		<path class="st7" d="M282.6,458.4c-2.9-1.7-6.7-0.8-8.1,1.8l-6.1,10.5c-1.5,2.5-0.5,6.2,2.5,7.9c2.9,1.7,6.7,0.8,8.1-1.8l6.1-10.5
			C286.5,463.9,285.5,460.1,282.6,458.4z M277.4,476c-1,1.8-3.6,2.3-5.7,1.1c-2.1-1.2-2.9-3.7-1.9-5.4l6.1-10.5
			c1-1.8,3.6-2.3,5.7-1.1c2.1,1.2,2.9,3.7,1.9,5.4L277.4,476z"/>
		
			<ellipse transform="matrix(0.503 -0.8643 0.8643 0.503 -190.5786 472.426)" class="st7" cx="315.5" cy="401.9" rx="2.6" ry="2.6"/>
		
			<ellipse transform="matrix(0.503 -0.8643 0.8643 0.503 -183.8512 472.461)" class="st7" cx="318.9" cy="396.1" rx="1.7" ry="1.7"/>
		<path class="st8" d="M336.2,366.4c0,0-33.6,19.6-56.7,59.4c-25.1,43.2-27.3,60.9-16.8,67L336.2,366.4z"/>
		<path class="st5" d="M293,466.4c-2.9,4.9-10.5,6.6-16.7,3l0,0c-6.2-3.6-8.5-11.1-5.7-16l12-20.7c2.9-4.9,10.5-6.6,16.7-3l0,0
			c6.2,3.6,8.5,11.1,5.7,16L293,466.4z"/>
		<path class="st8" d="M299.3,429.7l-23.1,39.7c6.2,3.6,13.9,1.9,16.7-3l12-20.7C307.9,440.8,305.5,433.3,299.3,429.7z"/>
		<path class="st9" d="M297.5,432.8c-4.4-2.6-9.6-1.8-11.7,1.7l-12,20.7c-2,3.5-0.1,8.4,4.3,11c4.4,2.6,9.6,1.8,11.7-1.7l12-20.7
			C303.8,440.3,301.9,435.4,297.5,432.8z"/>
		<path class="st10" d="M286,452.6c-2.8-1.6-6.1-2.2-9-2.8l-3.2,5.4c-2,3.5-0.1,8.4,4.3,11c4.4,2.6,9.6,1.8,11.7-1.7l3.2-5.4
			C290.9,456.8,288.8,454.2,286,452.6z"/>
	</g>
	<g>
		<g>
			<g>
				<g>
					<path class="st4" d="M268.3,416.1L257.8,406c-2.6-2.5-6.8-2.5-9.3,0.2c-2.5,2.6-2.5,6.8,0.2,9.3l10.5,10.1
						c2.6,2.5,6.8,2.5,9.3-0.2C271,422.9,270.9,418.7,268.3,416.1z"/>
					<path class="st11" d="M267.2,416.8l-8.6-8.3c-2.1-2.1-5.6-2-7.6,0.1c-2.1,2.1-2,5.6,0.1,7.6l8.6,8.3c2.1,2.1,5.6,2,7.6-0.1
						C269.4,422.3,269.4,418.8,267.2,416.8z"/>
				</g>
				<path class="st8" d="M268.3,416.1L257.8,406c-2.6-2.5-6.8-2.5-9.3,0.2l20,19.3C271,422.9,270.9,418.7,268.3,416.1z"/>
			</g>
			<g>
				<g>
					<path class="st4" d="M320.5,466.5l10.5,10.1c2.6,2.5,2.7,6.7,0.2,9.3c-2.5,2.6-6.7,2.7-9.3,0.2L311.3,476
						c-2.6-2.5-2.7-6.7-0.2-9.3C313.7,464,317.8,463.9,320.5,466.5z"/>
					<path class="st11" d="M319.9,467.6l8.6,8.3c2.1,2.1,2.2,5.5,0.1,7.6c-2.1,2.1-5.5,2.2-7.6,0.1l-8.6-8.3
						c-2.1-2.1-2.2-5.5-0.1-7.6C314.3,465.6,317.7,465.5,319.9,467.6z"/>
				</g>
				<path class="st8" d="M320.5,466.5l10.5,10.1c2.6,2.5,2.7,6.7,0.2,9.3l-20-19.3C313.7,464,317.8,463.9,320.5,466.5z"/>
			</g>
		</g>
		<g>
			<path class="st12" d="M316,471.4c-0.5,0.5-1.3,0.5-1.9,0l-50.5-48.8c-0.5-0.5-0.5-1.3,0-1.9l0,0c0.5-0.5,1.3-0.5,1.9,0l50.5,48.8
				C316.5,470,316.5,470.8,316,471.4L316,471.4z"/>
			<path class="st13" d="M263.6,422.6l50.5,48.8c0.5,0.5,1.4,0.5,1.9,0l-52.4-50.6C263.1,421.3,263.1,422.1,263.6,422.6z"/>
		</g>
	</g>
</g>
<g>
	<g>
		<path class="st4" d="M510.4,295.7c0,0-18.4,10.8-31.1,32.6c-13.8,23.7-15,33.4-9.2,36.7c5.7,3.3,13.6-2.5,27.4-26.2
			C510.2,317.1,510.4,295.7,510.4,295.7z"/>
		<path class="st5" d="M507.5,300.8c0,0-15.8,9.8-27,29c-12.2,20.9-13.4,29.4-8.6,32.2s11.5-2.5,23.7-23.4
			C506.7,319.4,507.5,300.8,507.5,300.8z"/>
		<path class="st6" d="M504.6,305.8c0,0-15.2,8.8-25.6,26.7c-11.3,19.4-12.2,27.4-7.5,30.2c4.8,2.8,11.3-2,22.6-21.4
			C504.4,323.4,504.6,305.8,504.6,305.8z"/>
		<path class="st7" d="M496.4,319.8c-2.1-1.3-4.9-0.6-6,1.3l-4.5,7.7c-1.1,1.8-0.3,4.6,1.8,5.8s4.9,0.6,6-1.3l4.5-7.7
			C499.3,323.7,498.6,321,496.4,319.8z M492.6,332.7c-0.8,1.3-2.6,1.7-4.2,0.8c-1.5-0.9-2.1-2.7-1.4-4l4.5-7.7
			c0.8-1.3,2.6-1.7,4.2-0.8c1.5,0.9,2.1,2.7,1.4,4L492.6,332.7z"/>
		<path class="st7" d="M481,346.2c-1.6-0.9-3.7-0.4-4.5,1l-3.4,5.8c-0.8,1.4-0.2,3.4,1.4,4.4c1.6,0.9,3.7,0.4,4.5-1l3.4-5.8
			C483.2,349.2,482.6,347.2,481,346.2z M478.2,355.9c-0.6,1-2,1.2-3.1,0.6c-1.1-0.7-1.6-2-1-3l3.4-5.8c0.6-1,2-1.2,3.1-0.6
			c1.1,0.7,1.6,2,1,3L478.2,355.9z"/>
		
			<ellipse transform="matrix(0.503 -0.8643 0.8643 0.503 -24.4224 588.0226)" class="st7" cx="499.1" cy="315.2" rx="1.4" ry="1.4"/>
		<ellipse transform="matrix(0.503 -0.8643 0.8643 0.503 -20.7324 588.0419)" class="st7" cx="500.9" cy="312" rx="0.9" ry="0.9"/>
		<path class="st8" d="M510.4,295.7c0,0-18.4,10.8-31.1,32.6c-13.8,23.7-15,33.4-9.2,36.7L510.4,295.7z"/>
		<path class="st5" d="M486.7,350.6c-1.6,2.7-5.8,3.6-9.2,1.6l0,0c-3.4-2-4.7-6.1-3.1-8.8l6.6-11.3c1.6-2.7,5.8-3.6,9.2-1.6l0,0
			c3.4,2,4.7,6.1,3.1,8.8L486.7,350.6z"/>
		<path class="st8" d="M490.2,330.5l-12.7,21.8c3.4,2,7.6,1.1,9.2-1.6l6.6-11.3C494.9,336.6,493.6,332.5,490.2,330.5z"/>
		<path class="st9" d="M489.2,332.2c-2.4-1.4-5.3-1-6.4,0.9l-6.6,11.3c-1.1,1.9-0.1,4.6,2.3,6c2.4,1.4,5.3,1,6.4-0.9l6.6-11.3
			C492.7,336.3,491.6,333.6,489.2,332.2z"/>
		<path class="st10" d="M482.9,343c-1.5-0.9-3.3-1.2-5-1.5l-1.7,3c-1.1,1.9-0.1,4.6,2.3,6c2.4,1.4,5.3,1,6.4-0.9l1.7-3
			C485.6,345.4,484.4,343.9,482.9,343z"/>
	</g>
	<g>
		<g>
			<g>
				<g>
					<path class="st4" d="M473.2,323l-5.8-5.6c-1.4-1.4-3.7-1.3-5.1,0.1c-1.4,1.4-1.3,3.7,0.1,5.1l5.8,5.6c1.4,1.4,3.7,1.3,5.1-0.1
						C474.7,326.7,474.6,324.4,473.2,323z"/>
					<path class="st11" d="M472.6,323.4l-4.7-4.6c-1.2-1.1-3.1-1.1-4.2,0.1c-1.1,1.2-1.1,3.1,0.1,4.2l4.7,4.6
						c1.2,1.1,3.1,1.1,4.2-0.1C473.8,326.4,473.8,324.5,472.6,323.4z"/>
				</g>
				<path class="st8" d="M473.2,323l-5.8-5.6c-1.4-1.4-3.7-1.3-5.1,0.1l11,10.6C474.7,326.7,474.6,324.4,473.2,323z"/>
			</g>
			<g>
				<g>
					<path class="st4" d="M501.8,350.7l5.8,5.6c1.4,1.4,1.5,3.7,0.1,5.1c-1.4,1.4-3.7,1.5-5.1,0.1l-5.8-5.6
						c-1.4-1.4-1.5-3.7-0.1-5.1C498.1,349.3,500.4,349.3,501.8,350.7z"/>
					<path class="st11" d="M501.5,351.3l4.7,4.6c1.2,1.1,1.2,3,0.1,4.2c-1.1,1.2-3,1.2-4.2,0.1l-4.7-4.6c-1.2-1.1-1.2-3-0.1-4.2
						C498.4,350.2,500.3,350.1,501.5,351.3z"/>
				</g>
				<path class="st8" d="M501.8,350.7l5.8,5.6c1.4,1.4,1.5,3.7,0.1,5.1l-11-10.6C498.1,349.3,500.4,349.3,501.8,350.7z"/>
			</g>
		</g>
		<g>
			<path class="st12" d="M499.4,353.3c-0.3,0.3-0.7,0.3-1,0l-27.7-26.7c-0.3-0.3-0.3-0.7,0-1l0,0c0.3-0.3,0.7-0.3,1,0l27.7,26.7
				C499.6,352.6,499.6,353,499.4,353.3L499.4,353.3z"/>
			<path class="st13" d="M470.6,326.6l27.7,26.7c0.3,0.3,0.7,0.3,1,0l-28.8-27.7C470.3,325.9,470.3,326.3,470.6,326.6z"/>
		</g>
	</g>
</g>
<g>
	<g>
		<path class="st4" d="M752.6,373.7c0,0,36.5,19.9,62.5,61.6c28.2,45.3,31.1,64.2,20.1,71c-11,6.8-26.6-4-54.9-49.3
			C754.3,415.2,752.6,373.7,752.6,373.7z"/>
		<path class="st5" d="M758.7,383.4c0,0,31.3,18.2,54.2,55c24.9,40,27.8,56.4,18.7,62.1c-9.1,5.7-22.6-4.1-47.5-44.2
			C761.1,419.5,758.7,383.4,758.7,383.4z"/>
		<path class="st6" d="M764.6,393c0,0,30.2,16.2,51.5,50.4c23.2,37.2,25.4,52.7,16.3,58.4c-9.1,5.7-22-3.2-45.2-40.4
			C765.9,427.2,764.6,393,764.6,393z"/>
		<path class="st7" d="M778,431.1l9.2,14.8c2.2,3.5,7.6,4.7,11.7,2.2c4.1-2.6,5.4-7.9,3.2-11.4l-9.2-14.8c-2.2-3.5-7.6-4.7-11.7-2.2
			C777.1,422.2,775.8,427.6,778,431.1z M780.2,429.8c-1.6-2.5-0.5-6,2.5-7.9c2.9-1.8,6.6-1.3,8.1,1.3L800,438c1.6,2.5,0.5,6-2.5,7.9
			c-2.9,1.8-6.6,1.3-8.1-1.3L780.2,429.8z"/>
		<path class="st7" d="M810.4,478.9l6.9,11.1c1.6,2.6,5.7,3.5,8.7,1.6c3.1-1.9,4-5.9,2.4-8.6l-6.9-11.1c-1.6-2.6-5.7-3.5-8.7-1.6
			C809.7,472.2,808.7,476.2,810.4,478.9z M812,477.9c-1.2-1.9-0.3-4.5,1.8-5.9c2.2-1.4,4.9-0.9,6.1,0.9l6.9,11.1
			c1.2,1.9,0.3,4.5-1.8,5.9c-2.2,1.4-4.9,0.9-6.1-0.9L812,477.9z"/>
		
			<ellipse transform="matrix(0.8489 -0.5286 0.5286 0.8489 -100.0048 472.2367)" class="st7" cx="775.8" cy="411" rx="2.8" ry="2.8"/>
		
			<ellipse transform="matrix(0.8489 -0.5286 0.5286 0.8489 -97.3457 469.2971)" class="st7" cx="772" cy="404.9" rx="1.8" ry="1.8"/>
		<path class="st8" d="M752.6,373.7c0,0,36.5,19.9,62.5,61.6c28.2,45.3,31.1,64.2,20.1,71L752.6,373.7z"/>
		<path class="st5" d="M802,479.1c3.2,5.2,11.5,6.7,18,2.7l0,0c6.5-4,8.8-12.1,5.5-17.3l-13.5-21.7c-3.2-5.2-11.5-6.7-18-2.7l0,0
			c-6.5,4-8.8,12.1-5.5,17.3L802,479.1z"/>
		<path class="st8" d="M794,440.1l25.9,41.6c-6.5,4-14.7,2.5-18-2.7l-13.5-21.7C785.2,452.3,787.5,444.2,794,440.1z"/>
		<path class="st9" d="M791.8,455.3l13.5,21.7c2.3,3.7,7.9,4.3,12.5,1.5c4.6-2.9,6.5-8.2,4.2-11.9l-13.5-21.7
			c-2.3-3.7-7.9-4.3-12.5-1.5C791.4,446.3,789.5,451.7,791.8,455.3z"/>
		<path class="st10" d="M809,464.2c2.9-1.8,6.4-2.5,9.6-3.3l3.5,5.7c2.3,3.7,0.4,9-4.2,11.9c-4.6,2.9-10.2,2.2-12.5-1.5l-3.5-5.7
			C803.9,468.9,806,466,809,464.2z"/>
	</g>
	<g>
		<g>
			<g>
				<g>
					<path class="st4" d="M826.7,424.7l10.9-11.2c2.7-2.8,7.2-2.8,10-0.1c2.8,2.7,2.8,7.2,0.1,10l-10.9,11.2
						c-2.7,2.8-7.2,2.8-10,0.1C824,431.9,823.9,427.5,826.7,424.7z"/>
					<path class="st11" d="M827.9,425.3l8.9-9.1c2.2-2.3,5.9-2.3,8.2-0.1c2.3,2.2,2.3,5.9,0.1,8.2l-8.9,9.1
						c-2.2,2.3-5.9,2.3-8.2,0.1C825.7,431.3,825.6,427.6,827.9,425.3z"/>
				</g>
				<path class="st8" d="M826.7,424.7l10.9-11.2c2.7-2.8,7.2-2.8,10-0.1l-20.8,21.3C824,431.9,823.9,427.5,826.7,424.7z"/>
			</g>
			<g>
				<g>
					<path class="st4" d="M772.6,480.1l-10.9,11.2c-2.7,2.8-2.7,7.3,0.1,10c2.8,2.7,7.3,2.7,10-0.1l10.9-11.2
						c2.7-2.8,2.7-7.3-0.1-10C779.8,477.3,775.3,477.3,772.6,480.1z"/>
					<path class="st11" d="M773.2,481.3l-8.9,9.1c-2.2,2.3-2.2,5.9,0.1,8.2c2.3,2.2,5.9,2.2,8.2-0.1l8.9-9.1
						c2.2-2.3,2.2-5.9-0.1-8.2C779.1,478.9,775.5,479,773.2,481.3z"/>
				</g>
				<path class="st8" d="M772.6,480.1l-10.9,11.2c-2.7,2.8-2.7,7.3,0.1,10l20.8-21.3C779.8,477.3,775.3,477.3,772.6,480.1z"/>
			</g>
		</g>
		<g>
			<path class="st12" d="M777.5,485.2c0.6,0.5,1.5,0.5,2,0l52.4-53.7c0.5-0.6,0.5-1.5,0-2l0,0c-0.6-0.5-1.5-0.5-2,0l-52.4,53.7
				C776.9,483.7,776.9,484.6,777.5,485.2L777.5,485.2z"/>
			<path class="st13" d="M831.9,431.5l-52.4,53.7c-0.5,0.6-1.4,0.6-2,0l54.4-55.7C832.4,430,832.4,430.9,831.9,431.5z"/>
		</g>
	</g>
</g>
<g>
	<g>
		<path class="st4" d="M596.8,349.4c0,0,26.3,14.3,45,44.4c20.3,32.7,22.4,46.2,14.5,51.1c-7.9,4.9-19.2-2.9-39.5-35.5
			C598.1,379.3,596.8,349.4,596.8,349.4z"/>
		<path class="st5" d="M601.2,356.4c0,0,22.6,13.1,39.1,39.6c18,28.8,20,40.7,13.5,44.7s-16.3-3-34.2-31.8
			C603,382.4,601.2,356.4,601.2,356.4z"/>
		<path class="st6" d="M605.5,363.3c0,0,21.7,11.7,37.1,36.3c16.7,26.8,18.3,37.9,11.7,42s-15.9-2.3-32.6-29.1
			C606.4,387.9,605.5,363.3,605.5,363.3z"/>
		<path class="st7" d="M615.1,390.7l6.6,10.7c1.6,2.5,5.5,3.4,8.4,1.6c3-1.8,3.9-5.7,2.3-8.2l-6.6-10.7c-1.6-2.5-5.5-3.4-8.4-1.6
			C614.5,384.3,613.5,388.2,615.1,390.7z M616.7,389.8c-1.1-1.8-0.3-4.3,1.8-5.7c2.1-1.3,4.7-0.9,5.9,0.9l6.6,10.7
			c1.1,1.8,0.3,4.3-1.8,5.7c-2.1,1.3-4.7,0.9-5.9-0.9L616.7,389.8z"/>
		<path class="st7" d="M638.4,425.1l5,8c1.2,1.9,4.1,2.6,6.3,1.2c2.2-1.4,2.9-4.3,1.7-6.2l-5-8c-1.2-1.9-4.1-2.6-6.3-1.2
			C637.9,420.4,637.2,423.2,638.4,425.1z M639.6,424.4c-0.8-1.4-0.2-3.3,1.3-4.2c1.6-1,3.5-0.7,4.4,0.7l5,8c0.8,1.4,0.2,3.3-1.3,4.2
			c-1.6,1-3.5,0.7-4.4-0.7L639.6,424.4z"/>
		<ellipse transform="matrix(0.8489 -0.5286 0.5286 0.8489 -106.169 381.2054)" class="st7" cx="613.6" cy="376.3" rx="2" ry="2"/>
		
			<ellipse transform="matrix(0.8489 -0.5286 0.5286 0.8489 -104.2537 379.0881)" class="st7" cx="610.8" cy="371.9" rx="1.3" ry="1.3"/>
		<path class="st8" d="M596.8,349.4c0,0,26.3,14.3,45,44.4c20.3,32.7,22.4,46.2,14.5,51.1L596.8,349.4z"/>
		<path class="st5" d="M632.4,425.3c2.3,3.7,8.3,4.8,12.9,1.9l0,0c4.7-2.9,6.3-8.7,4-12.5l-9.7-15.6c-2.3-3.7-8.3-4.8-12.9-1.9l0,0
			c-4.7,2.9-6.3,8.7-4,12.5L632.4,425.3z"/>
		<path class="st8" d="M626.6,397.3l18.7,30c-4.7,2.9-10.6,1.8-12.9-1.9l-9.7-15.6C620.3,406,622,400.2,626.6,397.3z"/>
		<path class="st9" d="M625.1,408.2l9.7,15.6c1.7,2.7,5.7,3.1,9,1.1c3.3-2.1,4.7-5.9,3-8.6l-9.7-15.6c-1.7-2.7-5.7-3.1-9-1.1
			C624.8,401.7,623.4,405.5,625.1,408.2z"/>
		<path class="st10" d="M637.4,414.6c2.1-1.3,4.6-1.8,6.9-2.4l2.5,4.1c1.7,2.7,0.3,6.5-3,8.6c-3.3,2.1-7.4,1.6-9-1.1l-2.5-4.1
			C633.7,417.9,635.3,415.9,637.4,414.6z"/>
	</g>
	<g>
		<g>
			<g>
				<g>
					<path class="st4" d="M650.2,386.1l7.9-8c2-2,5.2-2,7.2-0.1c2,2,2,5.2,0.1,7.2l-7.9,8c-2,2-5.2,2-7.2,0.1
						C648.3,391.4,648.2,388.1,650.2,386.1z"/>
					<path class="st11" d="M651,386.6l6.4-6.6c1.6-1.6,4.2-1.7,5.9-0.1c1.6,1.6,1.7,4.2,0.1,5.9l-6.4,6.6c-1.6,1.6-4.2,1.7-5.9,0.1
						C649.5,390.9,649.4,388.2,651,386.6z"/>
				</g>
				<path class="st8" d="M650.2,386.1l7.9-8c2-2,5.2-2,7.2-0.1l-15,15.3C648.3,391.4,648.2,388.1,650.2,386.1z"/>
			</g>
			<g>
				<g>
					<path class="st4" d="M611.2,426l-7.9,8c-2,2-1.9,5.2,0.1,7.2c2,2,5.2,1.9,7.2-0.1l7.9-8c2-2,1.9-5.2-0.1-7.2
						C616.4,424,613.2,424,611.2,426z"/>
					<path class="st11" d="M611.7,426.9l-6.4,6.6c-1.6,1.6-1.6,4.3,0.1,5.9c1.6,1.6,4.3,1.6,5.9-0.1l6.4-6.6
						c1.6-1.6,1.6-4.3-0.1-5.9C615.9,425.2,613.3,425.2,611.7,426.9z"/>
				</g>
				<path class="st8" d="M611.2,426l-7.9,8c-2,2-1.9,5.2,0.1,7.2l15-15.3C616.4,424,613.2,424,611.2,426z"/>
			</g>
		</g>
		<g>
			<path class="st12" d="M614.8,429.7c0.4,0.4,1,0.4,1.4,0l37.7-38.7c0.4-0.4,0.4-1,0-1.4l0,0c-0.4-0.4-1-0.4-1.4,0l-37.7,38.7
				C614.3,428.7,614.4,429.3,614.8,429.7L614.8,429.7z"/>
			<path class="st13" d="M653.9,391l-37.7,38.7c-0.4,0.4-1,0.4-1.4,0l39.2-40.1C654.3,390,654.3,390.6,653.9,391z"/>
		</g>
	</g>
</g>
<g>
	<defs>
		<rect id="SVGID_2_" x="0" width="1068.4" height="196.2"/>
	</defs>
	<clipPath id="SVGID_3_">
		<use xlink:href="#SVGID_2_"  style="overflow:visible;"/>
	</clipPath>
	<path class="st14" d="M832.3,90.5c0,0,19.3-14,48.1-15.4c28.8-1.4,31.8,9.1,31,11.2c-0.8,2.2-7.3-0.2-17.9-3.6
		C883,79.3,871.4,74.6,832.3,90.5"/>
	<path class="st14" d="M830.5,96.8c0,0,21.1,11.2,35.1,36.5c14,25.3,5.7,32.5,3.4,32.7c-2.2,0.2-3.2-6.7-4.5-17.8
		C862.7,137.5,861.7,125,830.5,96.8"/>
	<path class="st14" d="M826,75.9c0,0,0-18.9,12.6-37.9c12.6-18.9,20.5-16,21.5-14.4c1,1.4-3.6,4.7-10.7,9.9
		C842.4,38.6,834.1,43.8,826,75.9"/>
	<path class="st14" d="M819.9,90.7c0,0-22.3-8.5-50.5-2.4c-28.2,6.1-28.4,17-27.2,18.9c1.2,1.8,7.1-2,16.4-8.1
		C767.8,93.1,777.9,85.6,819.9,90.7"/>
	<path class="st14" d="M820.9,86c0,0-6.9-16.8-24.9-29c-17.9-12.2-23.9-6.7-24.3-5.1c-0.4,1.6,4.7,2.8,13,4.7
		C792.9,58.8,802.1,60.3,820.9,86"/>
	<path class="st14" d="M821.1,96.8c0,0-17.2,5.5-31,22.3c-13.8,16.8-8.7,23.3-7.1,23.9c1.6,0.6,3.2-4.5,5.9-12.4
		C791.7,122.7,794.1,113.6,821.1,96.8"/>
	<path class="st14" d="M798,99.2c0,0-13,1.8-25,12c-12,10.3-9.1,15.6-8.1,16.2c1,0.6,3-2.8,5.7-8.3C773.5,114,776.3,107.7,798,99.2"
		/>
	<path class="st14" d="M820.7,73c0,0,1.4-13-6.1-27.2c-7.3-14-13.2-12.4-14-11.6c-0.8,0.8,2.2,3.6,6.7,7.5
		C811.8,45.6,817.3,49.9,820.7,73"/>
	<path class="st14" d="M823,99.2c0,0-10.1,8.5-14.8,23.7c-4.7,15.2,0.6,18.1,1.8,17.9c1.2,0,1-3.9,0.6-10.1
		C810,124.6,809.2,118,823,99.2"/>
	<path class="st14" d="M842,95.3c0,0,13,1.8,25,12c12,10.5,9.1,15.6,8.1,16.2c-1,0.6-3-2.8-5.7-8.3
		C866.4,110.1,863.7,103.7,842,95.3"/>
	<path class="st14" d="M832.3,78.3c0,0,4.7-12.2,17.8-21.5c13-9.3,17.4-5.1,17.8-3.9c0.4,1.2-3.6,2.2-9.5,3.7
		C852.4,58,845.7,59.4,832.3,78.3"/>
	<path class="st14" d="M863.1,91.7c0,0,11.2-0.8,23.1,5.9c11.8,6.7,10.3,11.6,9.5,12.2c-0.8,0.6-3-2-6.3-5.9
		C886,99.8,882.6,95.1,863.1,91.7"/>
	<path class="st14" d="M828,106.3c0,0,7.5,8.3,9.7,21.7c2.2,13.4-2.8,15.2-3.8,15c-1-0.2-0.4-3.6,0.8-8.5
		C835.7,129.4,837.3,123.9,828,106.3"/>
</g>
<polygon class="st15" points="783.4,73 778.7,73 777.3,77.3 775.9,72.8 771.2,72.8 774.9,70.2 773.5,65.7 777.3,68.4 781,65.9 
	779.6,70.2 "/>
<polygon class="st15" points="825.8,95.3 825.4,91.7 822.1,90.9 825.4,89.5 825,85.8 827.4,88.6 830.7,87.2 828.8,90.3 831.1,93.1 
	827.6,92.3 "/>
<polygon class="st15" points="881,40.2 879.1,34.3 872.8,34.3 877.9,30.6 875.9,24.5 881,28.2 886.2,24.5 884.2,30.6 889.3,34.3 
	883,34.3 "/>
<polygon class="st15" points="913.6,64.5 907.9,63.3 904.7,68.2 904.3,62.5 898.6,61.1 903.9,58.8 903.3,52.9 907.3,57.4 912.6,55 
	909.6,60.2 "/>
<polygon class="st15" points="771.2,36.1 771.6,28 764.1,25.2 771.8,23.1 772.2,15.2 776.5,21.9 784.2,19.7 779.3,25.8 783.6,32.5 
	776.1,29.8 "/>
<polygon class="st15" points="748.5,46.3 745.9,45.7 744.5,48.1 744.3,45.4 741.8,45 744.1,43.8 743.8,41.2 745.5,43.2 747.9,42 
	746.7,44.4 "/>
<polygon class="st15" points="750.7,148.9 749.3,141 741.4,139.8 748.5,136.1 747.1,128.2 752.8,133.7 759.9,130 756.4,137.3 
	762.1,142.8 754.2,141.8 "/>
<polygon class="st15" points="812.4,170.2 808.7,168.4 805.9,171.2 806.5,167.3 802.7,165.3 806.9,164.7 807.5,160.7 809.4,164.3 
	813.4,163.7 810.4,166.5 "/>
<polygon class="st15" points="844.2,163.7 844.9,161.1 842.8,159.6 845.5,159.6 846.3,156.8 847.3,159.6 850.1,159.6 847.7,161.1 
	848.7,163.7 846.3,162.1 "/>
<polygon class="st15" points="903.1,139.6 893.9,136.5 887.9,144.4 888.1,134.5 878.7,131.6 888.1,128.6 888.1,118.7 893.9,126.6 
	903.3,123.7 897.4,131.6 "/>
<polygon class="st15" points="910.2,107.7 909.4,105.9 907.3,105.9 908.8,104.7 908.1,102.8 909.8,103.7 911.4,102.6 910.8,104.5 
	912.6,105.5 910.6,105.7 "/>
<polygon class="st15" points="819.9,27.8 817.1,24.6 813.2,26.2 815.3,22.7 812.6,19.5 816.7,20.3 818.9,16.8 819.3,20.9 
	823.2,21.9 819.5,23.7 "/>
<g>
	<defs>
		<rect id="SVGID_4_" x="0" width="1068.4" height="196.2"/>
	</defs>
	<clipPath id="SVGID_5_">
		<use xlink:href="#SVGID_4_"  style="overflow:visible;"/>
	</clipPath>
	<path class="st16" d="M177.2,113.6l-8.8,32.2l13.3-30.5l19.5,26.8l-14.6-27.5c0.9,0.2,1.9,0.6,3,0.9c1.1,0.4,2.6,0.9,3.9,1.3
		c1.3,0.4,2.8,0.8,4.3,1.5c1.5,0.6,3.2,1.3,4.7,1.9c1.7,0.6,3.2,1.5,4.9,2.4c3.2,1.5,6.6,3.6,10.1,5.6c1.7,1.1,3.4,2.4,5.2,3.4
		c1.7,1.3,3.4,2.4,5.2,3.6c3.4,2.6,6.9,4.9,10.1,7.9c3.2,2.8,6.6,5.8,9.4,8.8c1.1,1.1,1.9,1.9,2.8,2.8l0.2,3.6l-3.6-1.9l3.2,2.4
		l-3.6,1.5l3.9-1.1l-1.3,4.3l1.7-3.6l2.4,3.2l-1.9-3.6l3.4,0.2c0.6,0.6,1.1,1.1,1.5,1.7c2.6,3,5.1,5.8,7.5,8.8
		c2.1,3,4.3,5.8,6.2,8.4c1.1,1.3,1.9,2.4,2.8,3.6c0.9,1.1,1.7,2.4,2.4,3.4c1.5,2.1,2.8,4.1,3.9,5.6c1.9,3.2,3.2,4.9,3.2,4.9
		s-1.3-1.7-3.2-4.9c-1.1-1.7-2.1-3.6-3.6-5.8c-0.6-1.3-1.3-2.4-2.1-3.6c-0.9-1.3-1.9-2.6-2.8-3.9c-1.9-2.8-4.1-5.6-6.2-8.6
		c-2.1-3-4.7-5.8-6.9-9.2c-1.1-1.5-2.1-2.8-3.4-4.1l0.6-0.9l-0.9,0.6c-1.7-1.7-3.2-3.4-4.9-5.2c-2.8-3.2-6-6-9.2-9
		c-3-3-6.6-5.6-9.9-8.4c-1.7-1.3-3.4-2.4-5.2-3.6c-1.7-1.1-3.4-2.4-5.2-3.4c-3.7-1.9-6.9-4.3-10.3-5.8c-1.7-0.9-3.2-1.7-4.9-2.4
		c-1.7-0.7-3.2-1.3-4.7-1.9c-1.5-0.9-3-1.3-4.5-1.7c-1.5-0.4-2.8-0.9-4.1-1.3h-0.4l28.8,1.3l-32.8-6l21.9-25.1l-25.1,21.9l-6-32.8
		l1.3,33.3l-29.2-15.9l26.8,19.7L145,122.6L177.2,113.6z M251,158.4l1.3-1.5c0.7,0.9,1.3,1.5,1.9,2.1L251,158.4z M250.1,154.8
		c0.6,0.6,1.5,1.5,2.1,2.1l-1.5,1.3L250.1,154.8z"/>
</g>
<polygon class="st15" points="168.8,84.2 165.4,81.8 169,83.8 168.8,79.7 169.7,83.8 172.7,81 170.1,84 174,84.8 169.9,84.6 
	171.8,88.3 169.5,85 167.7,88.7 168.8,84.8 165,85.9 "/>
<polygon class="st15" points="218,82.7 214.7,80.3 218.4,82.3 218.2,78.2 218.8,82.3 222,79.5 219.2,82.7 223.3,83.3 219.2,83.1 
	221.2,86.8 218.8,83.5 217.1,87.2 218.2,83.3 214.3,84.4 "/>
<polygon class="st15" points="234.5,50.5 236.4,54.2 234,50.9 232.5,54.6 233.6,50.7 229.5,51.8 233.4,50.1 230.2,47.7 233.6,49.6 
	233.4,45.6 234.3,49.6 237.3,46.9 234.7,50.1 238.5,50.7 "/>
<polygon class="st15" points="279.5,50.5 281.5,54.2 278.9,50.9 277.4,54.6 278.5,50.7 274.6,51.8 278.2,50.1 275,47.7 278.7,49.6 
	278.5,45.6 279.1,49.6 282.1,46.9 279.5,50.1 283.6,50.7 "/>
<polygon class="st15" points="286.4,87.6 288.3,91.3 285.7,88.1 284.3,91.7 285.3,87.8 281.5,88.9 285.1,87.2 281.9,84.8 
	285.3,86.8 285.3,82.7 286,86.8 289,84 286.4,87.2 290.5,87.8 "/>
<polygon class="st15" points="186.8,6.1 188.8,9.7 186.4,6.5 184.7,10.2 185.8,6.3 181.9,7.4 185.6,5.7 182.3,3.3 186,5.2 
	185.8,1.2 186.4,5.2 189.6,2.4 186.8,5.7 190.9,6.3 "/>
<polygon class="st15" points="156.6,28.6 158.5,32.3 156.2,28.8 154.7,32.7 155.7,28.8 151.7,29.7 155.5,28.2 152.1,25.8 
	155.7,27.8 155.5,23.7 156.4,27.5 159.4,25 156.8,28 160.7,28.8 "/>
<polygon class="st15" points="209.2,133.1 205.7,130.7 209.4,132.5 209.2,128.6 210,132.5 213,129.9 210.4,132.9 214.3,133.7 
	210.2,133.5 212.2,137 209.8,133.7 208.3,137.6 209.4,133.5 205.3,134.6 "/>
<polygon class="st15" points="153.6,140.2 150.2,137.8 153.8,139.8 153.6,135.7 154.5,139.8 157.5,137 154.9,140 158.7,140.8 
	154.7,140.6 156.6,144.3 154.2,141 152.5,144.7 153.6,140.8 149.7,141.9 "/>
<g>
	<defs>
		<rect id="SVGID_6_" x="0" width="1068.4" height="196.2"/>
	</defs>
	<clipPath id="SVGID_7_">
		<use xlink:href="#SVGID_6_"  style="overflow:visible;"/>
	</clipPath>
	<path class="st17" d="M280.4,188.7c0.9,4.7,1.5,7.3,1.5,7.3s-0.2-1.7-0.9-4.7c0.2,1.1,0.4,1.7,0.4,1.7S281,191.5,280.4,188.7
		c0,0,0-0.2,0-0.2V188c-0.4-2.6-1.1-5.6-1.7-9.2c-0.6-3.6-1.9-7.5-3-11.8c-0.4-2.1-1.1-4.3-1.7-6.6c-0.2-1.1-0.6-2.1-0.9-3.4
		c-0.4-1.3-0.9-2.4-1.3-3.6c-1.7-4.7-3.4-9.9-5.4-15c-0.4-0.9-0.6-1.5-1.1-2.4l0.9-2.1l2.4,3.2l-1.9-3.6l4.1,0.2l-4.1-0.6l2.6-3
		l-3,2.6l-0.6-4.1l0.2,4.1l-2.4-1.3c-1.3-2.8-2.6-5.8-3.9-8.8c-2.8-5.2-5.4-10.5-8.4-15.7c-3-5.2-6-10.3-9.4-15
		c-1.7-2.4-3.2-4.7-4.9-7.1l-0.2-0.2l16.3-7.5l-2.4,23.4l5.4-21.9c0.4,0.6,0.9,1.3,1.3,1.9c0.9,1.3,2.1,3,3.2,5.2
		c1.3,2.1,2.6,4.5,3.9,7.1c1.3,2.6,2.6,5.6,4.1,8.6c1.1,3.2,2.8,6.4,3.9,9.9c0.6,1.7,1.3,3.6,1.9,5.4c0.6,1.9,1.1,3.6,1.7,5.6
		c1.3,3.7,2.1,7.5,3,11.4c0.9,3.9,1.5,7.7,2.1,11.6c0.4,3.6,0.9,7.3,1.3,10.7l-0.4,0.2l0.4-0.2v0.4c0.4,3.9,0.4,7.3,0.6,10.7
		c0.2,3.2,0,6.4,0,9.4c0,3,0,5.8-0.2,8.2c0,2.4-0.2,4.5-0.4,6.2c-0.2,3.4-0.4,5.4-0.4,5.4s0.2-1.9,0.6-5.4c0.2-1.7,0.4-3.9,0.6-6.2
		c0.4-2.4,0.2-5.1,0.4-8.2c0.2-3,0.4-6.2,0.2-9.7c-0.2-3.4-0.2-7.1-0.4-10.7v-0.6l2.6-0.6l-1.1,3.9l1.7-3.6l2.4,3.2l-1.9-3.6
		l4.1,0.2l-4.1-0.6l2.6-3l-3,2.6l-0.6-4.1l0.2,4.1l-3-1.5c-0.2-2.6-0.4-4.9-0.9-7.5c-0.6-3.9-1.1-7.7-1.9-11.6
		c-0.9-3.9-1.7-7.9-2.8-11.6c-0.4-1.9-1.1-3.6-1.5-5.6c-0.4-1.7-1.1-3.6-1.7-5.4c-1.3-3.6-2.6-6.9-3.9-10.1
		c-1.5-3.2-2.8-6.2-4.1-8.8c-1.3-2.8-2.6-5.2-3.9-7.3c-0.2-0.4-0.4-0.6-0.7-1.1l10.9,10.7l-14.4-18.7l23.4-2.8L258.3,72l12.2-20.2
		l-15,18.2l-7.9-22.1l4.7,23L230,63.4l21,10.5l-15,9.7c-1.7-1.9-3.2-3.9-4.7-5.8c-3.4-4.5-7.1-8.4-10.5-12.2
		c-1.7-1.9-3.4-3.6-5.2-5.4c-1.7-1.7-3.2-3.4-4.9-4.9c-1.7-1.5-3.2-3-4.7-4.3c-1.7-1.3-3-2.6-4.5-3.6c-2.8-2.4-5.4-4.3-7.5-5.8
		l-0.2-0.2l16.1,1.5l-20.6-4.7l14.6-15.2l-16.5,12.7l-2.8-20.8v21L166.3,25l16.5,13.3l-19.7,7.5l20.6-4.5l-6.4,20.2l9.2-18.9
		L198,60.2l-8.8-18.4c1.1,0.6,2.1,1.5,3.4,2.4c2.1,1.5,4.7,3.2,7.5,5.6c1.5,1.1,3,2.4,4.5,3.6c1.5,1.5,3,2.8,4.7,4.3
		c1.5,1.5,3.2,3,4.9,4.7c1.5,1.7,3.4,3.2,5.1,5.1c3.2,3.9,7.1,7.7,10.5,12c1.5,1.7,3,3.6,4.5,5.6l-3.2,2.1l3.4-1.7
		c0.2,0.2,0.2,0.2,0.4,0.4c1.7,2.4,3.4,4.7,5.2,7.1c3.6,4.7,6.4,9.9,9.7,14.8c3.2,4.9,5.8,10.3,8.6,15.4c1.9,3.6,3.4,7.3,5.2,10.9
		l-1.7,0.6l1.7-0.4c0.4,1.1,0.9,1.9,1.3,2.8l-0.2,0.7l0.2-0.4c0.2,0.4,0.4,1.1,0.6,1.5c2.1,5.2,3.9,10.3,5.6,15
		c0.4,1.1,0.9,2.4,1.3,3.4c0.4,1.1,0.6,2.4,1.1,3.4c0.6,2.4,1.3,4.5,1.9,6.7c1.1,4.3,2.4,8.2,3,11.8c0.6,2.8,1.1,5.1,1.5,7.3
		c-0.2-0.9-0.4-1.5-0.6-2.4c-0.2-1.1-0.4-1.9-0.9-3c-0.4-1.1-0.9-2.1-1.3-3.2c-1.1-2.1-1.9-4.7-3.2-7.1c-0.6-1.3-1.3-2.6-1.9-3.9
		c-0.6-1.3-1.5-2.6-2.1-3.9c-2.8-5.2-6-10.7-9.4-16.1c-10.5-16.7-22.5-32.6-27.2-38.8l10.9,0.9l-12.4-3v-0.2l8.8-9.4l-10.3,8.2
		l-1.7-12.9v13.1l-11.2-6.6l10.1,8.2l-12,4.3l12.7-2.8l-4.1,12.5l5.8-11.8l7.3,10.9l-3.2-6.9c1.5,1.9,3.2,4.1,5.2,6.7
		c5.8,7.5,13.3,17.8,20.4,28.3c3.4,5.4,6.9,10.7,9.9,15.9c0.6,1.3,1.5,2.6,2.1,3.9c0.6,1.3,1.3,2.4,1.9,3.6c1.3,2.4,2.4,4.7,3.2,6.9
		c0.4,1.1,0.9,2.1,1.3,3.2c0.4,1.1,0.6,2.1,1.1,3C279.5,185.7,280.2,187.4,280.4,188.7C280.4,188.9,280.4,188.9,280.4,188.7
		 M283.2,155.2c0-1.1-0.2-1.9-0.2-3l2.6,1.9L283.2,155.2z M265.4,133.1l-1.1,0.4c-0.2-0.6-0.6-1.3-0.9-1.9L265.4,133.1z
		 M265.2,135.2c-0.2-0.4-0.4-1.1-0.6-1.5l1.3-0.2L265.2,135.2z"/>
	<path class="st17" d="M404.3,69.6l-17.6-7.5l15.4-11.3l-16.7,9.1l0.7-19.1l-3.4,18.8l-14.4-12.5l12.5,14.4L362,64.9l16.5-0.7h-0.2
		c-0.7,0.2-1.5,0.5-2.3,0.7c-0.9,0.2-1.7,0.5-2.6,1c-0.9,0.4-1.7,0.7-2.7,1.1c-1,0.4-1.8,0.9-2.8,1.4c-2,0.9-3.8,2.2-5.9,3.3
		c-1,0.6-2,1.4-3,2c-1,0.7-2,1.4-3,2.1c-1.8,1.6-3.9,3.1-5.7,4.8c-1.8,1.7-3.7,3.3-5.3,5.2c-1,1-1.8,2-2.8,3l-0.5-0.4l0.4,0.5
		c-0.7,0.7-1.4,1.5-2,2.3c-1.2,2-2.7,3.6-3.9,5.3c-1.2,1.7-2.5,3.3-3.6,4.9c-0.5,0.7-1.1,1.5-1.6,2.2c-0.5,0.7-0.9,1.4-1.2,2.1
		c-0.9,1.2-1.5,2.3-2.1,3.3c-1.1,1.8-1.8,2.8-1.8,2.8s0.7-1,1.8-2.8c0.6-0.9,1.4-2,2.2-3.2c0.4-0.6,0.9-1.4,1.4-2
		c0.5-0.7,1-1.4,1.6-2.1c1.1-1.5,2.3-3.1,3.6-4.8c1.4-1.7,2.8-3.3,4.3-5c0.2-0.4,0.5-0.6,0.9-1l2-0.1l-1.1,2.1l1.4-1.8l1,2.1
		l-0.7-2.5l2.2,0.6l-2.1-0.9L346,89l-2.1,1.1l0.1-2.1c0.5-0.5,1-1,1.6-1.6c1.6-1.7,3.6-3.4,5.4-5c1.8-1.7,3.8-3.1,5.8-4.5
		c1-0.7,2-1.4,3-2.1c1-0.6,2-1.4,3-2c2-1.1,3.9-2.3,5.8-3.2c1-0.5,1.8-1,2.8-1.4c0.9-0.4,1.8-0.7,2.7-1.1c0.9-0.4,1.7-0.6,2.5-0.9
		c0.7-0.2,1.6-0.5,2.2-0.7c0.6-0.1,1.2-0.4,1.7-0.5l-8.4,15.7l11.2-15.4l7.6,17.5l-5-18.4L404.3,69.6z M341.7,90.5
		c0.4-0.4,0.7-0.7,1.1-1.2l0.7,0.9L341.7,90.5z M343.6,90l-0.9-0.7c0.4-0.4,0.9-0.9,1.2-1.2L343.6,90z"/>
</g>
<polygon class="st15" points="390.6,47.6 392.6,46.2 390.5,47.3 390.6,45 390.1,47.3 388.4,45.7 389.9,47.5 387.7,48 390,47.8 
	388.9,49.9 390.3,48.1 391.2,50.2 390.6,48 392.8,48.6 "/>
<polygon class="st15" points="362.5,46.7 364.3,45.4 362.2,46.5 362.3,44.1 362,46.5 360.1,44.9 361.7,46.7 359.4,47.1 361.7,47 
	360.6,49.1 362,47.2 363,49.3 362.3,47.1 364.6,47.7 "/>
<polygon class="st15" points="353,28.3 351.9,30.4 353.2,28.5 354.1,30.6 353.5,28.4 355.8,29 353.6,28 355.5,26.7 353.5,27.8 
	353.6,25.5 353.1,27.8 351.4,26.2 352.9,28 350.7,28.4 "/>
<polygon class="st15" points="327.2,28.3 326.1,30.4 327.5,28.5 328.4,30.6 327.8,28.4 330,29 327.9,28 329.8,26.7 327.7,27.8 
	327.8,25.5 327.4,27.8 325.7,26.2 327.2,28 324.8,28.4 "/>
<polygon class="st15" points="323.2,49.6 322.1,51.7 323.6,49.8 324.5,51.9 323.8,49.7 326.1,50.3 324,49.3 325.8,48 323.8,49.1 
	323.8,46.7 323.5,49.1 321.8,47.5 323.2,49.3 320.9,49.7 "/>
<polygon class="st15" points="380.9,0 380.5,2.3 378.7,0.7 380.3,2.6 378,2.9 380.3,2.8 379.2,4.9 380.5,3.1 381.5,5.2 380.9,2.9 
	383.1,3.6 381,2.6 382.9,1.2 380.8,2.3 "/>
<polygon class="st15" points="397.6,15.7 396.5,17.8 397.9,15.9 398.7,18.1 398.1,15.9 400.5,16.4 398.3,15.5 400.2,14.1 
	398.1,15.2 398.3,12.9 397.8,15.1 396,13.7 397.5,15.4 395.3,15.9 "/>
<polygon class="st15" points="367.5,75.6 369.5,74.3 367.4,75.3 367.5,73 367,75.3 365.3,73.8 366.8,75.5 364.6,76 366.9,75.9 
	365.8,77.8 367.1,76 368,78.2 367.4,75.9 369.7,76.5 "/>
<polygon class="st15" points="399.4,79.7 401.3,78.3 399.2,79.4 399.4,77.1 398.9,79.4 397.1,77.8 398.6,79.6 396.4,80.1 
	398.7,79.9 397.6,82 399,80.2 400,82.3 399.4,80.1 401.6,80.7 "/>
<g>
	<defs>
		<rect id="SVGID_8_" x="0" width="1068.4" height="196.2"/>
	</defs>
	<clipPath id="SVGID_9_">
		<use xlink:href="#SVGID_8_"  style="overflow:visible;"/>
	</clipPath>
	<path class="st18" d="M318.2,107.5c0.1-0.7,0.5-1.7,0.9-2.7c0.2-0.5,0.4-1.1,0.6-1.7c0.2-0.6,0.5-1.2,0.7-1.8
		c0.5-1.2,1.1-2.6,1.8-3.9c0.4-0.7,0.7-1.4,1.1-2.1c0.4-0.7,0.9-1.5,1.2-2.2c1.7-3,3.7-6,5.7-9.1c4.1-6,8.4-11.9,11.7-16.2
		c1.1-1.5,2.1-2.7,3-3.8l-1.8,3.9l4.2-6.3l3.3,6.8l-2.3-7.1l7.3,1.6l-6.9-2.5l5.8-4.7l-6.4,3.8v-7.5l-1,7.4l-5.9-4.7l5,5.4v0.1
		l-7.1,1.7l6.3-0.5c-2.7,3.6-9.6,12.7-15.6,22.3c-2,3.1-3.8,6.3-5.4,9.2c-0.4,0.7-0.9,1.5-1.2,2.2c-0.4,0.7-0.7,1.5-1.1,2.2
		c-0.7,1.4-1.2,2.8-1.8,4.1c-0.2,0.6-0.5,1.2-0.7,1.8c-0.2,0.6-0.4,1.1-0.5,1.7c-0.1,0.5-0.2,0.9-0.4,1.4c0.2-1.2,0.5-2.6,0.9-4.2
		c0.4-2.1,1.1-4.3,1.7-6.8c0.4-1.2,0.7-2.5,1.1-3.8c0.2-0.6,0.4-1.4,0.6-2c0.2-0.6,0.5-1.4,0.7-2c1-2.7,2-5.7,3.2-8.6
		c0.1-0.2,0.2-0.6,0.4-0.9l0.1,0.2L327,78c0.2-0.5,0.5-1,0.7-1.6l1,0.2l-1-0.4c1-2.1,1.8-4.2,3-6.3c1.6-3,3.1-6,4.9-8.9
		c1.8-2.8,3.4-5.8,5.5-8.5c1-1.4,2-2.7,3-4.1c0.1-0.1,0.1-0.1,0.2-0.2l2,1l-1.8-1.2c0.9-1.1,1.7-2.2,2.6-3.2c2-2.5,4.2-4.7,6-6.9
		c1-1.1,2.1-2,3-3c1-1,2-1.8,2.8-2.7c1-0.9,1.8-1.6,2.7-2.5c0.9-0.7,1.7-1.5,2.6-2.1c1.6-1.4,3.1-2.3,4.3-3.2c0.7-0.5,1.4-1,2-1.4
		l-5,10.6l6.6-10.1l5.3,10.8L373.6,23l11.8,2.6l-11.3-4.3l9.5-7.6l-10.5,6.2V7.8l-1.6,11.9l-9.5-7.3l8.4,8.7l-11.8,2.7l9.2-0.9
		l-0.1,0.1c-1.2,0.9-2.7,2-4.3,3.3c-0.9,0.6-1.6,1.4-2.6,2.1c-0.9,0.7-1.7,1.6-2.7,2.5c-1,0.9-1.8,1.8-2.8,2.8c-1,1-2,2-3,3.1
		c-2,2.2-4.1,4.4-6,7c-0.9,1.1-1.7,2.2-2.7,3.3l-8.6-5.5l12.1-6L334.3,40l2.7-13.2l-4.5,12.7L323.8,29l7,11.6l-13.5,0.2l13.4,1.6
		l-8.2,10.7l6.3-6.1c-0.1,0.2-0.2,0.4-0.4,0.6c-0.7,1.2-1.5,2.6-2.2,4.2c-0.7,1.5-1.5,3.2-2.3,5c-0.7,1.8-1.5,3.7-2.2,5.8
		c-0.4,1-0.7,2.1-1,3.1c-0.2,1.1-0.6,2.1-0.9,3.2c-0.6,2.1-1.1,4.4-1.6,6.6c-0.5,2.2-0.7,4.4-1.1,6.6c-0.2,1.5-0.4,2.8-0.5,4.3
		l-1.7,0.9L315,85l-0.4,2.3l-1.7-1.5l1.5,1.7l-2.3,0.4l2.3-0.1l-1.1,2.1l1.4-1.8l1,2.1l-0.6-2.2l1.5,0.4v0.4
		c-0.1,2.1-0.1,4.2-0.2,6.1c-0.1,2,0,3.8,0.1,5.5c0.1,1.7,0,3.3,0.2,4.7c0.1,1.4,0.2,2.6,0.4,3.6c0.2,2,0.4,3.1,0.4,3.1
		s-0.1-1.1-0.2-3.1c-0.1-1-0.2-2.2-0.2-3.6c-0.1-1.4-0.1-3-0.1-4.7c0-1.7-0.1-3.6,0-5.4c0.1-2,0.1-3.9,0.4-6.1v-0.2l0.2,0.1
		l-0.2-0.1c0.2-2,0.5-4.1,0.7-6.1c0.4-2.2,0.7-4.4,1.2-6.6c0.5-2.2,1-4.4,1.7-6.5c0.4-1.1,0.6-2.1,1-3.2c0.4-1,0.7-2.1,1.1-3.1
		c0.6-2,1.6-3.8,2.2-5.7c0.9-1.7,1.6-3.4,2.3-4.9c0.7-1.5,1.5-2.8,2.2-4.1c0.6-1.2,1.4-2.2,1.8-3c0.2-0.4,0.5-0.7,0.7-1.1l3.1,12.5
		l-1.4-13.4l9.3,4.3l-0.1,0.1c-1,1.4-1.8,2.7-2.8,4.1c-2,2.7-3.7,5.7-5.4,8.6c-1.7,3-3.2,6-4.8,9c-0.7,1.7-1.5,3.4-2.2,5l-1.4,0.7
		l0.1-2.3l-0.4,2.3l-1.7-1.5l1.5,1.7l-2.3,0.4l2.3-0.1l-1.1,2.1l1.4-1.8l0.5,1.2c-0.2,0.5-0.4,0.9-0.6,1.4c-1.1,3-2.1,5.9-3.1,8.6
		c-0.2,0.7-0.5,1.4-0.7,2.1c-0.1,0.7-0.4,1.4-0.5,2c-0.4,1.4-0.7,2.6-1,3.8c-0.6,2.5-1.4,4.7-1.7,6.8c-0.4,2.1-0.7,3.8-1,5.3v0.2
		C318.2,107.4,318.2,107.5,318.2,107.5c-0.4,1.6-0.6,2.5-0.6,2.5s0.1-0.4,0.2-1c-0.4,1.7-0.5,2.7-0.5,2.7S317.7,110.2,318.2,107.5
		C318.2,107.6,318.2,107.6,318.2,107.5 M315.2,87.7l1.5-1.1c0,0.6-0.1,1.1-0.1,1.7L315.2,87.7z M327.9,74.8
		c-0.1,0.4-0.4,0.7-0.5,1.1l-0.6-0.2L327.9,74.8z M326.5,75.9l0.7,0.1c-0.1,0.2-0.2,0.6-0.4,0.9L326.5,75.9z"/>
	<path class="st18" d="M55.1,106.8c0,0,11.7-8.5,29.1-9.3c17.4-0.8,19.2,5.5,18.8,6.8c-0.5,1.3-4.4-0.1-10.9-2.2
		C85.8,100,78.7,97.1,55.1,106.8"/>
	<path class="st18" d="M54,110.6c0,0,12.8,6.8,21.3,22.1c8.5,15.3,3.5,19.7,2,19.8c-1.3,0.1-1.9-4.1-2.8-10.8
		C73.5,135.2,72.9,127.7,54,110.6"/>
	<path class="st18" d="M51.2,98c0,0,0-11.5,7.6-22.9c7.6-11.5,12.4-9.7,13-8.7c0.6,0.8-2.2,2.9-6.5,6C61.2,75.4,56.1,78.5,51.2,98"
		/>
	<path class="st18" d="M47.5,106.9c0,0-13.5-5.1-30.6-1.4C-0.1,109.2-0.2,115.8,0.5,117c0.7,1.1,4.3-1.2,9.9-4.9
		C16,108.4,22.1,103.8,47.5,106.9"/>
	<path class="st18" d="M48.1,104.1c0,0-4.2-10.2-15-17.6c-10.9-7.4-14.4-4.1-14.7-3.1c-0.2,1,2.9,1.7,7.9,2.9
		C31.2,87.6,36.8,88.5,48.1,104.1"/>
	<path class="st18" d="M48.3,110.6c0,0-10.4,3.3-18.7,13.5s-5.3,14.1-4.3,14.4c1,0.4,1.9-2.8,3.6-7.5
		C30.5,126.3,31.9,120.8,48.3,110.6"/>
	<path class="st18" d="M34.3,112.1c0,0-7.9,1.1-15.2,7.3c-7.3,6.2-5.5,9.4-4.9,9.8c0.6,0.4,1.8-1.7,3.5-5
		C19.5,121,21.1,117.2,34.3,112.1"/>
	<path class="st18" d="M48,96.2c0,0,0.8-7.9-3.7-16.5c-4.4-8.5-8-7.5-8.5-7c-0.5,0.5,1.3,2.2,4.1,4.5C42.6,79.6,46,82.2,48,96.2"/>
	<path class="st18" d="M49.4,112.1c0,0-6.1,5.1-9,14.3c-2.9,9.2,0.4,11,1.1,10.9c0.7,0,0.6-2.4,0.4-6.1
		C41.6,127.5,41.1,123.4,49.4,112.1"/>
	<path class="st18" d="M60.9,109.7c0,0,7.9,1.1,15.2,7.3c7.3,6.3,5.5,9.4,4.9,9.8c-0.6,0.4-1.8-1.7-3.5-5
		C75.7,118.6,74.1,114.8,60.9,109.7"/>
	<path class="st18" d="M55.1,99.4c0,0,2.9-7.4,10.7-13c7.9-5.6,10.5-3.1,10.7-2.4c0.2,0.7-2.2,1.3-5.7,2.3
		C67.2,87.1,63.2,87.9,55.1,99.4"/>
	<path class="st18" d="M73.7,107.5c0,0,6.8-0.5,14,3.6c7.2,4.1,6.2,7,5.7,7.4c-0.5,0.4-1.8-1.2-3.8-3.6
		C87.6,112.4,85.5,109.6,73.7,107.5"/>
	<path class="st18" d="M52.4,116.4c0,0,4.5,5,5.9,13.1c1.3,8.1-1.7,9.2-2.3,9.1c-0.6-0.1-0.2-2.2,0.5-5.1
		C57.1,130.3,58.1,127,52.4,116.4"/>
</g>
<polygon class="st15" points="25.4,96.2 22.6,96.2 21.7,98.8 20.9,96.1 18,96.1 20.3,94.5 19.5,91.8 21.7,93.4 24,91.9 23.2,94.5 
	"/>
<polygon class="st15" points="51.1,109.7 50.9,107.5 48.9,107.1 50.9,106.2 50.6,103.9 52.1,105.6 54.1,104.8 52.9,106.7 
	54.3,108.4 52.2,107.9 "/>
<polygon class="st15" points="84.6,76.4 83.4,72.8 79.6,72.8 82.7,70.5 81.5,66.8 84.6,69.1 87.7,66.8 86.5,70.5 89.6,72.8 
	85.8,72.8 "/>
<polygon class="st15" points="104.3,91 100.8,90.3 98.9,93.3 98.7,89.8 95.2,89 98.4,87.6 98.1,84 100.5,86.7 103.7,85.3 
	101.9,88.4 "/>
<polygon class="st15" points="18,73.9 18.3,68.9 13.7,67.3 18.4,66 18.6,61.2 21.3,65.2 25.9,63.9 22.9,67.6 25.6,71.7 21,70 "/>
<polygon class="st15" points="1.7,78.5 0.2,79.2 1.8,79.5 1.9,81.1 2.8,79.7 4.3,80.1 3.2,78.9 3.9,77.4 2.5,78.1 1.4,77 "/>
<polygon class="st15" points="4.3,134.4 0,136.7 4.8,137.4 5.6,142.2 7.8,137.9 12.5,138.5 9.1,135.1 11.2,130.7 6.9,133 3.5,129.6 
	"/>
<polygon class="st15" points="43,155.1 40.7,154 39.1,155.7 39.4,153.3 37.2,152.1 39.7,151.7 40,149.3 41.2,151.5 43.6,151.1 
	41.8,152.8 "/>
<polygon class="st15" points="62.2,151.1 62.7,149.6 61.4,148.6 63.1,148.6 63.5,146.9 64.1,148.6 65.8,148.6 64.4,149.6 65,151.1 
	63.5,150.2 "/>
<polygon class="st15" points="97.9,136.6 92.3,134.6 88.7,139.4 88.9,133.4 83.1,131.7 88.9,129.9 88.9,123.9 92.3,128.7 
	98.1,126.9 94.5,131.7 "/>
<polygon class="st15" points="102.2,117.2 101.8,116.1 100.5,116.1 101.4,115.4 100.9,114.2 102,114.8 103,114.1 102.6,115.3 
	103.7,115.9 102.5,116 "/>
<polygon class="st15" points="47.5,68.8 45.9,66.9 43.5,67.9 44.8,65.7 43.1,63.8 45.6,64.3 46.9,62.1 47.2,64.7 49.6,65.2 
	47.3,66.3 "/>
<g>
	<defs>
		<rect id="SVGID_10_" x="0" width="1068.4" height="196.2"/>
	</defs>
	<clipPath id="SVGID_11_">
		<use xlink:href="#SVGID_10_"  style="overflow:visible;"/>
	</clipPath>
	<path class="st19" d="M1019.2,45.6c0,0,11.7-8.5,29.1-9.3c17.4-0.8,19.2,5.5,18.8,6.8c-0.5,1.3-4.4-0.1-10.9-2.2
		C1049.9,38.8,1042.8,36,1019.2,45.6"/>
	<path class="st19" d="M1018.1,49.4c0,0,12.8,6.8,21.3,22.1c8.5,15.3,3.5,19.7,2,19.8c-1.3,0.1-1.9-4.1-2.8-10.8
		C1037.6,74.1,1037,66.5,1018.1,49.4"/>
	<path class="st19" d="M1015.4,36.8c0,0,0-11.5,7.6-22.9c7.6-11.5,12.4-9.7,13-8.7c0.6,0.8-2.2,2.9-6.5,6
		C1025.3,14.2,1020.3,17.3,1015.4,36.8"/>
	<path class="st19" d="M1011.7,45.7c0,0-13.5-5.1-30.6-1.4C964,48,963.9,54.6,964.6,55.8c0.7,1.1,4.3-1.2,9.9-4.9
		C980.1,47.2,986.2,42.6,1011.7,45.7"/>
	<path class="st19" d="M1012.3,42.9c0,0-4.2-10.2-15-17.6c-10.9-7.4-14.5-4.1-14.7-3.1c-0.2,1,2.9,1.7,7.9,2.9
		C995.3,26.4,1000.9,27.4,1012.3,42.9"/>
	<path class="st19" d="M1012.4,49.4c0,0-10.4,3.3-18.7,13.5s-5.3,14.1-4.3,14.5c1,0.4,1.9-2.8,3.6-7.5
		C994.6,65.1,996,59.6,1012.4,49.4"/>
	<path class="st19" d="M998.4,50.9c0,0-7.9,1.1-15.2,7.3c-7.3,6.2-5.5,9.4-4.9,9.8c0.6,0.4,1.8-1.7,3.5-5
		C983.6,59.8,985.3,56,998.4,50.9"/>
	<path class="st19" d="M1012.1,35c0,0,0.8-7.9-3.7-16.5c-4.4-8.5-8-7.5-8.5-7c-0.5,0.5,1.3,2.2,4.1,4.5
		C1006.8,18.4,1010.1,21,1012.1,35"/>
	<path class="st19" d="M1013.6,50.9c0,0-6.1,5.1-9,14.3c-2.9,9.2,0.4,11,1.1,10.9c0.7,0,0.6-2.4,0.4-6.1
		C1005.7,66.3,1005.2,62.2,1013.6,50.9"/>
	<path class="st19" d="M1025,48.5c0,0,7.9,1.1,15.2,7.3c7.3,6.3,5.5,9.4,4.9,9.8c-0.6,0.4-1.8-1.7-3.5-5
		C1039.9,57.5,1038.2,53.6,1025,48.5"/>
	<path class="st19" d="M1019.2,38.2c0,0,2.9-7.4,10.7-13c7.9-5.6,10.5-3.1,10.8-2.4c0.2,0.7-2.2,1.3-5.7,2.3
		C1031.4,25.9,1027.3,26.8,1019.2,38.2"/>
	<path class="st19" d="M1037.8,46.3c0,0,6.8-0.5,14,3.6c7.2,4.1,6.2,7,5.7,7.4c-0.5,0.4-1.8-1.2-3.8-3.6
		C1051.7,51.2,1049.6,48.4,1037.8,46.3"/>
	<path class="st19" d="M1016.6,55.2c0,0,4.5,5,5.9,13.1c1.3,8.1-1.7,9.2-2.3,9.1c-0.6-0.1-0.2-2.2,0.5-5.1
		C1021.2,69.2,1022.2,65.8,1016.6,55.2"/>
</g>
<polygon class="st15" points="989.6,35 986.7,35 985.9,37.6 985,34.9 982.2,34.9 984.4,33.3 983.6,30.6 985.9,32.2 988.1,30.7 
	987.3,33.3 "/>
<polygon class="st15" points="1015.2,48.5 1015,46.3 1013,45.9 1015,45 1014.8,42.8 1016.2,44.4 1018.2,43.6 1017,45.5 1018.5,47.2 
	1016.3,46.7 "/>
<polygon class="st15" points="1048.7,15.2 1047.5,11.6 1043.7,11.6 1046.8,9.3 1045.6,5.6 1048.7,7.9 1051.8,5.6 1050.6,9.3 
	1053.7,11.6 1049.9,11.6 "/>
<polygon class="st15" points="1062.5,26.4 1059.3,27.8 1062.8,28.7 1063,32.1 1064.9,29.1 1068.4,29.9 1066,27.2 1067.8,24.1 
	1064.6,25.6 1062.2,22.8 "/>
<polygon class="st15" points="982.8,0 982.5,4.8 977.9,6.1 982.4,7.8 982.2,12.7 985.2,8.8 989.7,10.5 987.1,6.5 990,2.8 985.4,4.1 
	"/>
<polygon class="st15" points="968.4,18.9 966.9,18.5 966,20 965.9,18.3 964.4,18 965.8,17.3 965.6,15.8 966.6,17 968.1,16.3 
	967.4,17.7 "/>
<polygon class="st15" points="969.7,81 968.9,76.2 964.1,75.5 968.4,73.2 967.6,68.4 971.1,71.8 975.4,69.5 973.2,73.9 976.7,77.3 
	971.9,76.7 "/>
<polygon class="st15" points="1007.1,93.9 1004.9,92.8 1003.2,94.5 1003.5,92.1 1001.3,90.9 1003.8,90.5 1004.1,88.1 1005.3,90.3 
	1007.7,89.9 1005.9,91.6 "/>
<polygon class="st15" points="1026.4,89.9 1026.8,88.4 1025.5,87.4 1027.2,87.4 1027.7,85.8 1028.3,87.4 1029.9,87.4 1028.5,88.4 
	1029.1,89.9 1027.7,89 "/>
<polygon class="st15" points="1062.1,75.4 1056.5,73.5 1052.9,78.2 1053,72.3 1047.3,70.5 1053,68.7 1053,62.7 1056.5,67.5 
	1062.2,65.7 1058.6,70.5 "/>
<polygon class="st15" points="1066.4,56 1065.9,54.9 1064.6,54.9 1065.5,54.2 1065.1,53 1066.1,53.6 1067.1,52.9 1066.7,54.1 
	1067.8,54.7 1066.6,54.8 "/>
<polygon class="st15" points="1011.7,7.6 1010,5.7 1007.6,6.7 1008.9,4.5 1007.2,2.6 1009.8,3.1 1011.1,1 1011.3,3.5 1013.7,4.1 
	1011.4,5.1 "/>
</svg>
