<!-- Generator: Adobe Illustrator 19.2.1, SVG Export Plug-In  -->
<svg version="1.1"
	 xmlns="http://www.w3.org/2000/svg" xmlns:xlink="http://www.w3.org/1999/xlink" xmlns:a="http://ns.adobe.com/AdobeSVGViewerExtensions/3.0/"
	 x="0px" y="0px" width="1068.4px" height="541.9px" viewBox="0 0 1068.4 541.9" style="enable-background:new 0 0 1068.4 541.9;"
	 xml:space="preserve">
<style type="text/css">
	.st0{fill:#81CFF2;}
	.st1{clip-path:url(#SVGID_2_);}
	.st2{clip-path:url(#SVGID_4_);fill:#F29100;}
	.st3{clip-path:url(#SVGID_2_);fill:#F29100;}
	.st4{clip-path:url(#SVGID_6_);fill:#F29100;}
	.st5{clip-path:url(#SVGID_8_);fill:#F29100;}
	.st6{clip-path:url(#SVGID_10_);fill:#F29100;}
	.st7{clip-path:url(#SVGID_12_);fill:#F29100;}
	.st8{filter:url(#Adobe_OpacityMaskFilter);}
	.st9{enable-background:new    ;}
	.st10{clip-path:url(#SVGID_14_);}
	.st11{clip-path:url(#SVGID_14_);mask:url(#SVGID_15_);}
	.st12{clip-path:url(#SVGID_17_);fill:#FFFFFF;}
	.st13{clip-path:url(#SVGID_2_);fill:#FFFFFF;}
	.st14{clip-path:url(#SVGID_19_);fill:#E8600B;}
	.st15{clip-path:url(#SVGID_19_);fill:#F8B127;}
	.st16{clip-path:url(#SVGID_19_);fill:#EC7219;}
	.st17{opacity:0.8;clip-path:url(#SVGID_19_);}
	.st18{clip-path:url(#SVGID_21_);}
	.st19{clip-path:url(#SVGID_23_);fill:#E8600B;}
	.st20{clip-path:url(#SVGID_25_);}
	.st21{clip-path:url(#SVGID_27_);fill:#E8600B;}
	.st22{clip-path:url(#SVGID_29_);}
	.st23{clip-path:url(#SVGID_31_);fill:#E8600B;}
	.st24{clip-path:url(#SVGID_33_);}
	.st25{clip-path:url(#SVGID_35_);fill:#E8600B;}
	.st26{opacity:0.16;clip-path:url(#SVGID_19_);}
	.st27{clip-path:url(#SVGID_37_);}
	.st28{clip-path:url(#SVGID_39_);fill:#FFFFFF;}
	.st29{clip-path:url(#SVGID_41_);}
	.st30{clip-path:url(#SVGID_43_);fill:#FFFFFF;}
	.st31{clip-path:url(#SVGID_19_);fill:#403028;}
	.st32{clip-path:url(#SVGID_19_);fill:#634531;}
	.st33{clip-path:url(#SVGID_45_);}
	.st34{clip-path:url(#SVGID_47_);fill:#EC7219;}
	.st35{clip-path:url(#SVGID_49_);}
	.st36{clip-path:url(#SVGID_51_);fill:#FFFFFF;}
	.st37{clip-path:url(#SVGID_53_);}
	.st38{clip-path:url(#SVGID_55_);fill:#EC7219;}
	.st39{clip-path:url(#SVGID_57_);}
	.st40{clip-path:url(#SVGID_59_);fill:#FFFFFF;}
	.st41{clip-path:url(#SVGID_19_);fill:#5E3D27;}
	.st42{opacity:5.999760e-02;clip-path:url(#SVGID_19_);}
	.st43{clip-path:url(#SVGID_61_);}
	.st44{clip-path:url(#SVGID_63_);fill:#FFFFFF;}
	.st45{clip-path:url(#SVGID_65_);fill:#E8600B;}
	.st46{clip-path:url(#SVGID_65_);fill:#F8B127;}
	.st47{clip-path:url(#SVGID_65_);fill:#EC7219;}
	.st48{opacity:0.8;clip-path:url(#SVGID_65_);}
	.st49{clip-path:url(#SVGID_67_);}
	.st50{clip-path:url(#SVGID_69_);fill:#E8600B;}
	.st51{clip-path:url(#SVGID_71_);}
	.st52{clip-path:url(#SVGID_73_);fill:#E8600B;}
	.st53{clip-path:url(#SVGID_75_);}
	.st54{clip-path:url(#SVGID_77_);fill:#E8600B;}
	.st55{clip-path:url(#SVGID_79_);}
	.st56{clip-path:url(#SVGID_81_);fill:#E8600B;}
	.st57{opacity:0.16;clip-path:url(#SVGID_65_);}
	.st58{clip-path:url(#SVGID_83_);}
	.st59{clip-path:url(#SVGID_85_);fill:#FFFFFF;}
	.st60{clip-path:url(#SVGID_87_);}
	.st61{clip-path:url(#SVGID_89_);fill:#FFFFFF;}
	.st62{clip-path:url(#SVGID_65_);fill:#403028;}
	.st63{clip-path:url(#SVGID_65_);fill:#634531;}
	.st64{clip-path:url(#SVGID_91_);}
	.st65{clip-path:url(#SVGID_93_);fill:#EC7219;}
	.st66{clip-path:url(#SVGID_95_);}
	.st67{clip-path:url(#SVGID_97_);fill:#FFFFFF;}
	.st68{clip-path:url(#SVGID_99_);}
	.st69{clip-path:url(#SVGID_101_);fill:#EC7219;}
	.st70{clip-path:url(#SVGID_103_);}
	.st71{clip-path:url(#SVGID_105_);fill:#FFFFFF;}
	.st72{clip-path:url(#SVGID_65_);fill:#5E3D27;}
	.st73{opacity:5.999760e-02;clip-path:url(#SVGID_65_);}
	.st74{clip-path:url(#SVGID_107_);}
	.st75{clip-path:url(#SVGID_109_);fill:#FFFFFF;}
	.st76{clip-path:url(#SVGID_111_);fill:#E8600B;}
	.st77{clip-path:url(#SVGID_111_);fill:#F8B127;}
	.st78{clip-path:url(#SVGID_111_);fill:#EC7219;}
	.st79{opacity:0.8;clip-path:url(#SVGID_111_);}
	.st80{clip-path:url(#SVGID_113_);}
	.st81{clip-path:url(#SVGID_115_);fill:#E8600B;}
	.st82{clip-path:url(#SVGID_117_);}
	.st83{clip-path:url(#SVGID_119_);fill:#E8600B;}
	.st84{clip-path:url(#SVGID_121_);}
	.st85{clip-path:url(#SVGID_123_);fill:#E8600B;}
	.st86{clip-path:url(#SVGID_125_);}
	.st87{clip-path:url(#SVGID_127_);fill:#E8600B;}
	.st88{opacity:0.16;clip-path:url(#SVGID_111_);}
	.st89{clip-path:url(#SVGID_129_);}
	.st90{clip-path:url(#SVGID_131_);fill:#FFFFFF;}
	.st91{clip-path:url(#SVGID_133_);}
	.st92{clip-path:url(#SVGID_135_);fill:#FFFFFF;}
	.st93{clip-path:url(#SVGID_111_);fill:#403028;}
	.st94{clip-path:url(#SVGID_111_);fill:#634531;}
	.st95{clip-path:url(#SVGID_137_);}
	.st96{clip-path:url(#SVGID_139_);fill:#EC7219;}
	.st97{clip-path:url(#SVGID_141_);}
	.st98{clip-path:url(#SVGID_143_);fill:#FFFFFF;}
	.st99{clip-path:url(#SVGID_145_);}
	.st100{clip-path:url(#SVGID_147_);fill:#EC7219;}
	.st101{clip-path:url(#SVGID_149_);}
	.st102{clip-path:url(#SVGID_151_);fill:#FFFFFF;}
	.st103{clip-path:url(#SVGID_111_);fill:#5E3D27;}
	.st104{opacity:5.999760e-02;clip-path:url(#SVGID_111_);}
	.st105{clip-path:url(#SVGID_153_);}
	.st106{clip-path:url(#SVGID_155_);fill:#FFFFFF;}
	.st107{clip-path:url(#SVGID_157_);fill:#E8600B;}
	.st108{clip-path:url(#SVGID_157_);fill:#F8B127;}
	.st109{clip-path:url(#SVGID_157_);fill:#EC7219;}
	.st110{opacity:0.8;clip-path:url(#SVGID_157_);}
	.st111{clip-path:url(#SVGID_159_);}
	.st112{clip-path:url(#SVGID_161_);fill:#E8600B;}
	.st113{clip-path:url(#SVGID_163_);}
	.st114{clip-path:url(#SVGID_165_);fill:#E8600B;}
	.st115{clip-path:url(#SVGID_167_);}
	.st116{clip-path:url(#SVGID_169_);fill:#E8600B;}
	.st117{clip-path:url(#SVGID_171_);}
	.st118{clip-path:url(#SVGID_173_);fill:#E8600B;}
	.st119{opacity:0.16;clip-path:url(#SVGID_157_);}
	.st120{clip-path:url(#SVGID_175_);}
	.st121{clip-path:url(#SVGID_177_);fill:#FFFFFF;}
	.st122{clip-path:url(#SVGID_179_);}
	.st123{clip-path:url(#SVGID_181_);fill:#FFFFFF;}
	.st124{clip-path:url(#SVGID_157_);fill:#403028;}
	.st125{clip-path:url(#SVGID_157_);fill:#634531;}
	.st126{clip-path:url(#SVGID_183_);}
	.st127{clip-path:url(#SVGID_185_);fill:#EC7219;}
	.st128{clip-path:url(#SVGID_187_);}
	.st129{clip-path:url(#SVGID_189_);fill:#FFFFFF;}
	.st130{clip-path:url(#SVGID_191_);}
	.st131{clip-path:url(#SVGID_193_);fill:#EC7219;}
	.st132{clip-path:url(#SVGID_195_);}
	.st133{clip-path:url(#SVGID_197_);fill:#FFFFFF;}
	.st134{clip-path:url(#SVGID_157_);fill:#5E3D27;}
	.st135{opacity:5.999760e-02;clip-path:url(#SVGID_157_);}
	.st136{clip-path:url(#SVGID_199_);}
	.st137{clip-path:url(#SVGID_201_);fill:#FFFFFF;}
	.st138{clip-path:url(#SVGID_203_);}
	.st139{clip-path:url(#SVGID_205_);fill:#F29100;}
	.st140{clip-path:url(#SVGID_203_);fill:#F29100;}
	.st141{clip-path:url(#SVGID_207_);fill:#F29100;}
	.st142{clip-path:url(#SVGID_209_);fill:#F29100;}
	.st143{clip-path:url(#SVGID_211_);fill:#F29100;}
	.st144{clip-path:url(#SVGID_213_);fill:#F29100;}
	.st145{filter:url(#Adobe_OpacityMaskFilter_1_);}
	.st146{clip-path:url(#SVGID_215_);}
	.st147{clip-path:url(#SVGID_215_);mask:url(#SVGID_216_);}
	.st148{clip-path:url(#SVGID_218_);fill:#FFFFFF;}
	.st149{clip-path:url(#SVGID_203_);fill:#FFFFFF;}
	.st150{clip-path:url(#SVGID_220_);fill:#E8600B;}
	.st151{clip-path:url(#SVGID_220_);fill:#F8B127;}
	.st152{clip-path:url(#SVGID_220_);fill:#EC7219;}
	.st153{opacity:0.8;clip-path:url(#SVGID_220_);}
	.st154{clip-path:url(#SVGID_222_);}
	.st155{clip-path:url(#SVGID_224_);fill:#E8600B;}
	.st156{clip-path:url(#SVGID_226_);}
	.st157{clip-path:url(#SVGID_228_);fill:#E8600B;}
	.st158{clip-path:url(#SVGID_230_);}
	.st159{clip-path:url(#SVGID_232_);fill:#E8600B;}
	.st160{clip-path:url(#SVGID_234_);}
	.st161{clip-path:url(#SVGID_236_);fill:#E8600B;}
	.st162{opacity:0.16;clip-path:url(#SVGID_220_);}
	.st163{clip-path:url(#SVGID_238_);}
	.st164{clip-path:url(#SVGID_240_);fill:#FFFFFF;}
	.st165{clip-path:url(#SVGID_242_);}
	.st166{clip-path:url(#SVGID_244_);fill:#FFFFFF;}
	.st167{clip-path:url(#SVGID_220_);fill:#403028;}
	.st168{clip-path:url(#SVGID_220_);fill:#634531;}
	.st169{clip-path:url(#SVGID_246_);}
	.st170{clip-path:url(#SVGID_248_);fill:#EC7219;}
	.st171{clip-path:url(#SVGID_250_);}
	.st172{clip-path:url(#SVGID_252_);fill:#FFFFFF;}
	.st173{clip-path:url(#SVGID_254_);}
	.st174{clip-path:url(#SVGID_256_);fill:#EC7219;}
	.st175{clip-path:url(#SVGID_258_);}
	.st176{clip-path:url(#SVGID_260_);fill:#FFFFFF;}
	.st177{clip-path:url(#SVGID_220_);fill:#5E3D27;}
	.st178{opacity:5.999760e-02;clip-path:url(#SVGID_220_);}
	.st179{clip-path:url(#SVGID_262_);}
	.st180{clip-path:url(#SVGID_264_);fill:#FFFFFF;}
	.st181{clip-path:url(#SVGID_266_);fill:#E8600B;}
	.st182{clip-path:url(#SVGID_266_);fill:#F8B127;}
	.st183{clip-path:url(#SVGID_266_);fill:#EC7219;}
	.st184{opacity:0.8;clip-path:url(#SVGID_266_);}
	.st185{clip-path:url(#SVGID_268_);}
	.st186{clip-path:url(#SVGID_270_);fill:#E8600B;}
	.st187{clip-path:url(#SVGID_272_);}
	.st188{clip-path:url(#SVGID_274_);fill:#E8600B;}
	.st189{clip-path:url(#SVGID_276_);}
	.st190{clip-path:url(#SVGID_278_);fill:#E8600B;}
	.st191{clip-path:url(#SVGID_280_);}
	.st192{clip-path:url(#SVGID_282_);fill:#E8600B;}
	.st193{opacity:0.16;clip-path:url(#SVGID_266_);}
	.st194{clip-path:url(#SVGID_284_);}
	.st195{clip-path:url(#SVGID_286_);fill:#FFFFFF;}
	.st196{clip-path:url(#SVGID_288_);}
	.st197{clip-path:url(#SVGID_290_);fill:#FFFFFF;}
	.st198{clip-path:url(#SVGID_266_);fill:#403028;}
	.st199{clip-path:url(#SVGID_266_);fill:#634531;}
	.st200{clip-path:url(#SVGID_292_);}
	.st201{clip-path:url(#SVGID_294_);fill:#EC7219;}
	.st202{clip-path:url(#SVGID_296_);}
	.st203{clip-path:url(#SVGID_298_);fill:#FFFFFF;}
	.st204{clip-path:url(#SVGID_300_);}
	.st205{clip-path:url(#SVGID_302_);fill:#EC7219;}
	.st206{clip-path:url(#SVGID_304_);}
	.st207{clip-path:url(#SVGID_306_);fill:#FFFFFF;}
	.st208{clip-path:url(#SVGID_266_);fill:#5E3D27;}
	.st209{opacity:5.999760e-02;clip-path:url(#SVGID_266_);}
	.st210{clip-path:url(#SVGID_308_);}
	.st211{clip-path:url(#SVGID_310_);fill:#FFFFFF;}
	.st212{clip-path:url(#SVGID_312_);fill:#E8600B;}
	.st213{clip-path:url(#SVGID_312_);fill:#F8B127;}
	.st214{clip-path:url(#SVGID_312_);fill:#EC7219;}
	.st215{opacity:0.8;clip-path:url(#SVGID_312_);}
	.st216{clip-path:url(#SVGID_314_);}
	.st217{clip-path:url(#SVGID_316_);fill:#E8600B;}
	.st218{clip-path:url(#SVGID_318_);}
	.st219{clip-path:url(#SVGID_320_);fill:#E8600B;}
	.st220{clip-path:url(#SVGID_322_);}
	.st221{clip-path:url(#SVGID_324_);fill:#E8600B;}
	.st222{clip-path:url(#SVGID_326_);}
	.st223{clip-path:url(#SVGID_328_);fill:#E8600B;}
	.st224{opacity:0.16;clip-path:url(#SVGID_312_);}
	.st225{clip-path:url(#SVGID_330_);}
	.st226{clip-path:url(#SVGID_332_);fill:#FFFFFF;}
	.st227{clip-path:url(#SVGID_334_);}
	.st228{clip-path:url(#SVGID_336_);fill:#FFFFFF;}
	.st229{clip-path:url(#SVGID_312_);fill:#403028;}
	.st230{clip-path:url(#SVGID_312_);fill:#634531;}
	.st231{clip-path:url(#SVGID_338_);}
	.st232{clip-path:url(#SVGID_340_);fill:#EC7219;}
	.st233{clip-path:url(#SVGID_342_);}
	.st234{clip-path:url(#SVGID_344_);fill:#FFFFFF;}
	.st235{clip-path:url(#SVGID_346_);}
	.st236{clip-path:url(#SVGID_348_);fill:#EC7219;}
	.st237{clip-path:url(#SVGID_350_);}
	.st238{clip-path:url(#SVGID_352_);fill:#FFFFFF;}
	.st239{clip-path:url(#SVGID_312_);fill:#5E3D27;}
	.st240{opacity:5.999760e-02;clip-path:url(#SVGID_312_);}
	.st241{clip-path:url(#SVGID_354_);}
	.st242{clip-path:url(#SVGID_356_);fill:#FFFFFF;}
	.st243{clip-path:url(#SVGID_358_);fill:#E8600B;}
	.st244{clip-path:url(#SVGID_358_);fill:#F8B127;}
	.st245{clip-path:url(#SVGID_358_);fill:#EC7219;}
	.st246{opacity:0.8;clip-path:url(#SVGID_358_);}
	.st247{clip-path:url(#SVGID_360_);}
	.st248{clip-path:url(#SVGID_362_);fill:#E8600B;}
	.st249{clip-path:url(#SVGID_364_);}
	.st250{clip-path:url(#SVGID_366_);fill:#E8600B;}
	.st251{clip-path:url(#SVGID_368_);}
	.st252{clip-path:url(#SVGID_370_);fill:#E8600B;}
	.st253{clip-path:url(#SVGID_372_);}
	.st254{clip-path:url(#SVGID_374_);fill:#E8600B;}
	.st255{opacity:0.16;clip-path:url(#SVGID_358_);}
	.st256{clip-path:url(#SVGID_376_);}
	.st257{clip-path:url(#SVGID_378_);fill:#FFFFFF;}
	.st258{clip-path:url(#SVGID_380_);}
	.st259{clip-path:url(#SVGID_382_);fill:#FFFFFF;}
	.st260{clip-path:url(#SVGID_358_);fill:#403028;}
	.st261{clip-path:url(#SVGID_358_);fill:#634531;}
	.st262{clip-path:url(#SVGID_384_);}
	.st263{clip-path:url(#SVGID_386_);fill:#EC7219;}
	.st264{clip-path:url(#SVGID_388_);}
	.st265{clip-path:url(#SVGID_390_);fill:#FFFFFF;}
	.st266{clip-path:url(#SVGID_392_);}
	.st267{clip-path:url(#SVGID_394_);fill:#EC7219;}
	.st268{clip-path:url(#SVGID_396_);}
	.st269{clip-path:url(#SVGID_398_);fill:#FFFFFF;}
	.st270{clip-path:url(#SVGID_358_);fill:#5E3D27;}
	.st271{opacity:5.999760e-02;clip-path:url(#SVGID_358_);}
	.st272{clip-path:url(#SVGID_400_);}
	.st273{clip-path:url(#SVGID_402_);fill:#FFFFFF;}
</style>
<defs>
</defs>
<rect x="161.3" y="262.8" class="st0" width="745.3" height="24.6"/>
<g>
	<defs>
		<rect id="SVGID_1_" x="0" width="1068.4" height="541.9"/>
	</defs>
	<clipPath id="SVGID_2_">
		<use xlink:href="#SVGID_1_"  style="overflow:visible;"/>
	</clipPath>
	<g class="st1">
		<defs>
			<rect id="SVGID_3_" x="0" width="1068.4" height="541.9"/>
		</defs>
		<clipPath id="SVGID_4_">
			<use xlink:href="#SVGID_3_"  style="overflow:visible;"/>
		</clipPath>
		<path class="st2" d="M832.3,90.5c0,0,19.3-14,48.1-15.4c28.8-1.4,31.8,9.1,31,11.2c-0.8,2.2-7.3-0.2-17.9-3.6
			C883,79.3,871.4,74.6,832.3,90.5"/>
		<path class="st2" d="M830.5,96.8c0,0,21.1,11.2,35.1,36.5c14,25.3,5.7,32.5,3.4,32.7c-2.2,0.2-3.2-6.7-4.5-17.8
			C862.7,137.5,861.7,125,830.5,96.8"/>
		<path class="st2" d="M826,75.9c0,0,0-18.9,12.6-37.9c12.6-18.9,20.5-16,21.5-14.4c1,1.4-3.6,4.7-10.7,9.9
			C842.4,38.6,834.1,43.8,826,75.9"/>
		<path class="st2" d="M819.9,90.7c0,0-22.3-8.5-50.5-2.4c-28.2,6.1-28.4,17-27.2,18.9c1.2,1.8,7.1-2,16.4-8.1
			C767.8,93.1,777.9,85.6,819.9,90.7"/>
		<path class="st2" d="M820.9,86c0,0-6.9-16.8-24.9-29c-17.9-12.2-23.9-6.7-24.3-5.1c-0.4,1.6,4.7,2.8,13,4.7
			C792.9,58.8,802.1,60.3,820.9,86"/>
		<path class="st2" d="M821.1,96.8c0,0-17.2,5.5-31,22.3c-13.8,16.8-8.7,23.3-7.1,23.9c1.6,0.6,3.2-4.5,5.9-12.4
			C791.7,122.7,794.1,113.6,821.1,96.8"/>
		<path class="st2" d="M798,99.2c0,0-13,1.8-25,12c-12,10.3-9.1,15.6-8.1,16.2c1,0.6,3-2.8,5.7-8.3C773.5,114,776.3,107.7,798,99.2"
			/>
		<path class="st2" d="M820.7,73c0,0,1.4-13-6.1-27.2c-7.3-14-13.2-12.4-14-11.6c-0.8,0.8,2.2,3.6,6.7,7.5
			C811.8,45.6,817.3,49.9,820.7,73"/>
		<path class="st2" d="M823,99.2c0,0-10.1,8.5-14.8,23.7c-4.7,15.2,0.6,18.1,1.8,17.9c1.2,0,1-3.9,0.6-10.1
			C810,124.6,809.2,118,823,99.2"/>
		<path class="st2" d="M842,95.3c0,0,13,1.8,25,12c12,10.5,9.1,15.6,8.1,16.2c-1,0.6-3-2.8-5.7-8.3
			C866.4,110.1,863.7,103.7,842,95.3"/>
		<path class="st2" d="M832.3,78.3c0,0,4.7-12.2,17.8-21.5c13-9.3,17.4-5.1,17.8-3.9c0.4,1.2-3.6,2.2-9.5,3.7
			C852.4,58,845.7,59.4,832.3,78.3"/>
		<path class="st2" d="M863.1,91.7c0,0,11.2-0.8,23.1,5.9c11.8,6.7,10.3,11.6,9.5,12.2c-0.8,0.6-3-2-6.3-5.9
			C886,99.8,882.6,95.1,863.1,91.7"/>
		<path class="st2" d="M828,106.3c0,0,7.5,8.3,9.7,21.7c2.2,13.4-2.8,15.2-3.8,15c-1-0.2-0.4-3.6,0.8-8.5
			C835.7,129.4,837.3,123.9,828,106.3"/>
	</g>
	<polygon class="st3" points="783.4,73 778.7,73 777.3,77.3 775.9,72.8 771.2,72.8 774.9,70.2 773.5,65.7 777.3,68.4 781,65.9
		779.6,70.2 	"/>
	<polygon class="st3" points="825.8,95.3 825.4,91.7 822.1,90.9 825.4,89.5 825,85.8 827.4,88.6 830.7,87.2 828.8,90.3 831.1,93.1
		827.6,92.3 	"/>
	<polygon class="st3" points="881,40.2 879.1,34.3 872.8,34.3 877.9,30.6 875.9,24.5 881,28.2 886.2,24.5 884.2,30.6 889.3,34.3
		883,34.3 	"/>
	<polygon class="st3" points="913.6,64.5 907.9,63.3 904.7,68.2 904.3,62.5 898.6,61.1 903.9,58.8 903.3,52.9 907.3,57.4 912.6,55
		909.6,60.2 	"/>
	<polygon class="st3" points="771.2,36.1 771.6,28 764.1,25.2 771.8,23.1 772.2,15.2 776.5,21.9 784.2,19.7 779.3,25.8 783.6,32.5
		776.1,29.8 	"/>
	<polygon class="st3" points="748.5,46.3 745.9,45.7 744.5,48.1 744.3,45.4 741.8,45 744.1,43.8 743.8,41.2 745.5,43.2 747.9,42
		746.7,44.4 	"/>
	<polygon class="st3" points="750.7,148.9 749.3,141 741.4,139.8 748.5,136.1 747.1,128.2 752.8,133.7 759.9,130 756.4,137.3
		762.1,142.8 754.2,141.8 	"/>
	<polygon class="st3" points="812.4,170.2 808.7,168.4 805.9,171.2 806.5,167.3 802.7,165.3 806.9,164.7 807.5,160.7 809.4,164.3
		813.4,163.7 810.4,166.5 	"/>
	<polygon class="st3" points="844.2,163.7 844.9,161.1 842.8,159.6 845.5,159.6 846.3,156.8 847.3,159.6 850.1,159.6 847.7,161.1
		848.7,163.7 846.3,162.1 	"/>
	<polygon class="st3" points="903.1,139.6 893.9,136.5 887.9,144.4 888.1,134.5 878.7,131.6 888.1,128.6 888.1,118.7 893.9,126.6
		903.3,123.7 897.4,131.6 	"/>
	<polygon class="st3" points="910.2,107.7 909.4,105.9 907.3,105.9 908.8,104.7 908.1,102.8 909.8,103.7 911.4,102.6 910.8,104.5
		912.6,105.5 910.6,105.7 	"/>
	<polygon class="st3" points="819.9,27.8 817.1,24.6 813.2,26.2 815.3,22.7 812.6,19.5 816.7,20.3 818.9,16.8 819.3,20.9
		823.2,21.9 819.5,23.7 	"/>
	<g class="st1">
		<defs>
			<rect id="SVGID_5_" x="0" width="1068.4" height="541.9"/>
		</defs>
		<clipPath id="SVGID_6_">
			<use xlink:href="#SVGID_5_"  style="overflow:visible;"/>
		</clipPath>
		<path class="st4" d="M177.2,113.6l-8.8,32.2l13.3-30.5l19.5,26.8l-14.6-27.5c0.9,0.2,1.9,0.6,3,0.9c1.1,0.4,2.6,0.9,3.9,1.3
			c1.3,0.4,2.8,0.9,4.3,1.5c1.5,0.6,3.2,1.3,4.7,1.9c1.7,0.6,3.2,1.5,4.9,2.4c3.2,1.5,6.6,3.6,10.1,5.6c1.7,1.1,3.4,2.4,5.2,3.4
			c1.7,1.3,3.4,2.4,5.2,3.6c3.4,2.6,6.9,4.9,10.1,7.9c3.2,2.8,6.6,5.8,9.4,8.8c1.1,1.1,1.9,1.9,2.8,2.8l0.2,3.6l-3.6-1.9l3.2,2.4
			l-3.6,1.5l3.9-1.1l-1.3,4.3l1.7-3.6l2.4,3.2l-1.9-3.6l3.4,0.2c0.6,0.6,1.1,1.1,1.5,1.7c2.6,3,5.1,5.8,7.5,8.8
			c2.1,3,4.3,5.8,6.2,8.4c1.1,1.3,1.9,2.4,2.8,3.6c0.9,1.1,1.7,2.4,2.4,3.4c1.5,2.1,2.8,4.1,3.9,5.6c1.9,3.2,3.2,4.9,3.2,4.9
			s-1.3-1.7-3.2-4.9c-1.1-1.7-2.1-3.6-3.6-5.8c-0.6-1.3-1.3-2.4-2.1-3.6c-0.9-1.3-1.9-2.6-2.8-3.9c-1.9-2.8-4.1-5.6-6.2-8.6
			c-2.1-3-4.7-5.8-6.9-9.2c-1.1-1.5-2.1-2.8-3.4-4.1l0.6-0.9l-0.9,0.6c-1.7-1.7-3.2-3.4-4.9-5.2c-2.8-3.2-6-6-9.2-9
			c-3-3-6.6-5.6-9.9-8.4c-1.7-1.3-3.4-2.4-5.2-3.6c-1.7-1.1-3.4-2.4-5.2-3.4c-3.7-1.9-6.9-4.3-10.3-5.8c-1.7-0.9-3.2-1.7-4.9-2.4
			c-1.7-0.6-3.2-1.3-4.7-1.9c-1.5-0.9-3-1.3-4.5-1.7c-1.5-0.4-2.8-0.9-4.1-1.3h-0.4l28.8,1.3l-32.8-6l21.9-25.1l-25.1,21.9l-6-32.8
			l1.3,33.3l-29.2-15.9l26.8,19.7L145,122.6L177.2,113.6z M251,158.4l1.3-1.5c0.7,0.9,1.3,1.5,1.9,2.1L251,158.4z M250.1,154.8
			c0.6,0.6,1.5,1.5,2.1,2.1l-1.5,1.3L250.1,154.8z"/>
	</g>
	<polygon class="st3" points="168.8,84.2 165.4,81.8 169,83.8 168.8,79.7 169.7,83.8 172.7,81 170.1,84 174,84.8 169.9,84.6
		171.8,88.3 169.5,85 167.7,88.7 168.8,84.8 165,85.9 	"/>
	<polygon class="st3" points="218,82.7 214.7,80.3 218.4,82.3 218.2,78.2 218.8,82.3 222,79.5 219.2,82.7 223.3,83.3 219.2,83.1
		221.2,86.8 218.8,83.5 217.1,87.2 218.2,83.3 214.3,84.4 	"/>
	<polygon class="st3" points="234.5,50.5 236.4,54.2 234,50.9 232.5,54.6 233.6,50.7 229.5,51.8 233.4,50.1 230.2,47.7 233.6,49.6
		233.4,45.6 234.3,49.6 237.3,46.9 234.7,50.1 238.5,50.7 	"/>
	<polygon class="st3" points="279.5,50.5 281.5,54.2 278.9,50.9 277.4,54.6 278.5,50.7 274.6,51.8 278.2,50.1 275,47.7 278.7,49.6
		278.5,45.6 279.1,49.6 282.1,46.9 279.5,50.1 283.6,50.7 	"/>
	<polygon class="st3" points="286.4,87.6 288.3,91.3 285.7,88.1 284.3,91.7 285.3,87.8 281.5,88.9 285.1,87.2 281.9,84.8
		285.3,86.8 285.3,82.7 286,86.8 289,84 286.4,87.2 290.5,87.8 	"/>
	<polygon class="st3" points="186.8,6.1 188.8,9.7 186.4,6.5 184.7,10.2 185.8,6.3 181.9,7.4 185.6,5.7 182.3,3.3 186,5.2
		185.8,1.2 186.4,5.2 189.6,2.4 186.8,5.7 190.9,6.3 	"/>
	<polygon class="st3" points="156.6,28.6 158.5,32.3 156.2,28.8 154.7,32.7 155.7,28.8 151.7,29.7 155.5,28.2 152.1,25.8
		155.7,27.8 155.5,23.7 156.4,27.5 159.4,25 156.8,28 160.7,28.8 	"/>
	<polygon class="st3" points="209.2,133.1 205.7,130.7 209.4,132.5 209.2,128.6 210,132.5 213,129.9 210.4,132.9 214.3,133.7
		210.2,133.5 212.2,137 209.8,133.7 208.3,137.6 209.4,133.5 205.3,134.6 	"/>
	<polygon class="st3" points="153.6,140.2 150.2,137.8 153.8,139.8 153.6,135.7 154.5,139.8 157.5,137 154.9,140 158.7,140.8
		154.7,140.6 156.6,144.3 154.2,141 152.5,144.7 153.6,140.8 149.7,141.9 	"/>
	<g class="st1">
		<defs>
			<rect id="SVGID_7_" x="0" width="1068.4" height="541.9"/>
		</defs>
		<clipPath id="SVGID_8_">
			<use xlink:href="#SVGID_7_"  style="overflow:visible;"/>
		</clipPath>
		<path class="st5" d="M280.4,188.7c0.9,4.7,1.5,7.3,1.5,7.3s-0.2-1.7-0.9-4.7c0.2,1.1,0.4,1.7,0.4,1.7S281,191.5,280.4,188.7
			c0,0,0-0.2,0-0.2V188c-0.4-2.6-1.1-5.6-1.7-9.2c-0.6-3.6-1.9-7.5-3-11.8c-0.4-2.1-1.1-4.3-1.7-6.6c-0.2-1.1-0.6-2.1-0.9-3.4
			c-0.4-1.3-0.9-2.4-1.3-3.6c-1.7-4.7-3.4-9.9-5.4-15c-0.4-0.9-0.6-1.5-1.1-2.4l0.9-2.1l2.4,3.2l-1.9-3.6l4.1,0.2l-4.1-0.6l2.6-3
			l-3,2.6l-0.6-4.1l0.2,4.1l-2.4-1.3c-1.3-2.8-2.6-5.8-3.9-8.8c-2.8-5.2-5.4-10.5-8.4-15.7c-3-5.2-6-10.3-9.4-15
			c-1.7-2.4-3.2-4.7-4.9-7.1l-0.2-0.2l16.3-7.5l-2.4,23.4l5.4-21.9c0.4,0.6,0.9,1.3,1.3,1.9c0.9,1.3,2.1,3,3.2,5.2
			c1.3,2.1,2.6,4.5,3.9,7.1c1.3,2.6,2.6,5.6,4.1,8.6c1.1,3.2,2.8,6.4,3.9,9.9c0.6,1.7,1.3,3.6,1.9,5.4c0.6,1.9,1.1,3.6,1.7,5.6
			c1.3,3.7,2.1,7.5,3,11.4c0.9,3.9,1.5,7.7,2.1,11.6c0.4,3.6,0.9,7.3,1.3,10.7l-0.4,0.2l0.4-0.2v0.4c0.4,3.9,0.4,7.3,0.6,10.7
			c0.2,3.2,0,6.4,0,9.4c0,3,0,5.8-0.2,8.2c0,2.4-0.2,4.5-0.4,6.2c-0.2,3.4-0.4,5.4-0.4,5.4s0.2-1.9,0.6-5.4c0.2-1.7,0.4-3.9,0.6-6.2
			c0.4-2.4,0.2-5.1,0.4-8.2c0.2-3,0.4-6.2,0.2-9.7c-0.2-3.4-0.2-7.1-0.4-10.7v-0.6l2.6-0.6l-1.1,3.9l1.7-3.6l2.4,3.2l-1.9-3.6
			l4.1,0.2l-4.1-0.6l2.6-3l-3,2.6l-0.6-4.1l0.2,4.1l-3-1.5c-0.2-2.6-0.4-4.9-0.9-7.5c-0.6-3.9-1.1-7.7-1.9-11.6
			c-0.9-3.9-1.7-7.9-2.8-11.6c-0.4-1.9-1.1-3.6-1.5-5.6c-0.4-1.7-1.1-3.6-1.7-5.4c-1.3-3.6-2.6-6.9-3.9-10.1
			c-1.5-3.2-2.8-6.2-4.1-8.8c-1.3-2.8-2.6-5.2-3.9-7.3c-0.2-0.4-0.4-0.6-0.7-1.1l10.9,10.7l-14.4-18.7l23.4-2.8L258.3,72l12.2-20.2
			l-15,18.2l-7.9-22.1l4.7,23L230,63.4l21,10.5l-15,9.7c-1.7-1.9-3.2-3.9-4.7-5.8c-3.4-4.5-7.1-8.4-10.5-12.2
			c-1.7-1.9-3.4-3.6-5.2-5.4c-1.7-1.7-3.2-3.4-4.9-4.9c-1.7-1.5-3.2-3-4.7-4.3c-1.7-1.3-3-2.6-4.5-3.6c-2.8-2.4-5.4-4.3-7.5-5.8
			l-0.2-0.2l16.1,1.5l-20.6-4.7l14.6-15.2l-16.5,12.7l-2.8-20.8v21L166.3,25l16.5,13.3l-19.7,7.5l20.6-4.5l-6.4,20.2l9.2-18.9
			L198,60.2l-8.8-18.4c1.1,0.6,2.1,1.5,3.4,2.4c2.1,1.5,4.7,3.2,7.5,5.6c1.5,1.1,3,2.4,4.5,3.6c1.5,1.5,3,2.8,4.7,4.3
			c1.5,1.5,3.2,3,4.9,4.7c1.5,1.7,3.4,3.2,5.1,5.1c3.2,3.9,7.1,7.7,10.5,12c1.5,1.7,3,3.6,4.5,5.6l-3.2,2.1l3.4-1.7
			c0.2,0.2,0.2,0.2,0.4,0.4c1.7,2.4,3.4,4.7,5.2,7.1c3.6,4.7,6.4,9.9,9.7,14.8c3.2,4.9,5.8,10.3,8.6,15.4c1.9,3.6,3.4,7.3,5.2,10.9
			l-1.7,0.6l1.7-0.4c0.4,1.1,0.9,1.9,1.3,2.8l-0.2,0.6l0.2-0.4c0.2,0.4,0.4,1.1,0.6,1.5c2.1,5.2,3.9,10.3,5.6,15
			c0.4,1.1,0.9,2.4,1.3,3.4c0.4,1.1,0.6,2.4,1.1,3.4c0.6,2.4,1.3,4.5,1.9,6.7c1.1,4.3,2.4,8.2,3,11.8c0.6,2.8,1.1,5.1,1.5,7.3
			c-0.2-0.9-0.4-1.5-0.6-2.4c-0.2-1.1-0.4-1.9-0.9-3c-0.4-1.1-0.9-2.1-1.3-3.2c-1.1-2.1-1.9-4.7-3.2-7.1c-0.6-1.3-1.3-2.6-1.9-3.9
			c-0.6-1.3-1.5-2.6-2.1-3.9c-2.8-5.2-6-10.7-9.4-16.1c-10.5-16.7-22.5-32.6-27.2-38.8l10.9,0.9l-12.4-3v-0.2l8.8-9.4l-10.3,8.2
			l-1.7-12.9v13.1l-11.2-6.6l10.1,8.2l-12,4.3l12.7-2.8l-4.1,12.5l5.8-11.8l7.3,10.9l-3.2-6.9c1.5,1.9,3.2,4.1,5.2,6.7
			c5.8,7.5,13.3,17.8,20.4,28.3c3.4,5.4,6.9,10.7,9.9,15.9c0.6,1.3,1.5,2.6,2.1,3.9c0.6,1.3,1.3,2.4,1.9,3.6
			c1.3,2.4,2.4,4.7,3.2,6.9c0.4,1.1,0.9,2.1,1.3,3.2c0.4,1.1,0.6,2.1,1.1,3C279.5,185.7,280.2,187.4,280.4,188.7
			C280.4,188.9,280.4,188.9,280.4,188.7 M283.2,155.2c0-1.1-0.2-1.9-0.2-3l2.6,1.9L283.2,155.2z M265.4,133.1l-1.1,0.4
			c-0.2-0.6-0.6-1.3-0.9-1.9L265.4,133.1z M265.2,135.2c-0.2-0.4-0.4-1.1-0.6-1.5l1.3-0.2L265.2,135.2z"/>
		<path class="st5" d="M404.3,69.6l-17.6-7.5l15.4-11.3l-16.7,9.1l0.7-19.1l-3.4,18.8l-14.4-12.5l12.5,14.4L362,64.9l16.5-0.7h-0.2
			c-0.7,0.2-1.5,0.5-2.3,0.7c-0.9,0.2-1.7,0.5-2.6,1c-0.9,0.4-1.7,0.7-2.7,1.1c-1,0.4-1.8,0.9-2.8,1.4c-2,0.9-3.8,2.2-5.9,3.3
			c-1,0.6-2,1.4-3,2c-1,0.7-2,1.4-3,2.1c-1.8,1.6-3.9,3.1-5.7,4.8c-1.8,1.7-3.7,3.3-5.3,5.2c-1,1-1.8,2-2.8,3l-0.5-0.4l0.4,0.5
			c-0.7,0.7-1.4,1.5-2,2.3c-1.2,2-2.7,3.6-3.9,5.3c-1.2,1.7-2.5,3.3-3.6,4.9c-0.5,0.7-1.1,1.5-1.6,2.2c-0.5,0.7-0.9,1.4-1.2,2.1
			c-0.9,1.2-1.5,2.3-2.1,3.3c-1.1,1.8-1.8,2.8-1.8,2.8s0.7-1,1.8-2.8c0.6-0.9,1.4-2,2.2-3.2c0.4-0.6,0.9-1.4,1.4-2
			c0.5-0.7,1-1.4,1.6-2.1c1.1-1.5,2.3-3.1,3.6-4.8c1.4-1.7,2.8-3.3,4.3-5c0.2-0.4,0.5-0.6,0.9-1l2-0.1l-1.1,2.1l1.4-1.8l1,2.1
			l-0.7-2.5l2.2,0.6l-2.1-0.9L346,89l-2.1,1.1l0.1-2.1c0.5-0.5,1-1,1.6-1.6c1.6-1.7,3.6-3.4,5.4-5c1.8-1.7,3.8-3.1,5.8-4.5
			c1-0.7,2-1.4,3-2.1c1-0.6,2-1.4,3-2c2-1.1,3.9-2.3,5.8-3.2c1-0.5,1.8-1,2.8-1.4c0.9-0.4,1.8-0.7,2.7-1.1c0.9-0.4,1.7-0.6,2.5-0.9
			c0.7-0.2,1.6-0.5,2.2-0.7c0.6-0.1,1.2-0.4,1.7-0.5l-8.4,15.7l11.2-15.4l7.6,17.5l-5-18.4L404.3,69.6z M341.7,90.5
			c0.4-0.4,0.7-0.7,1.1-1.2l0.7,0.9L341.7,90.5z M343.6,90l-0.9-0.7c0.4-0.4,0.9-0.9,1.2-1.2L343.6,90z"/>
	</g>
	<polygon class="st3" points="390.6,47.6 392.6,46.2 390.5,47.3 390.6,45 390.1,47.3 388.4,45.7 389.9,47.5 387.7,48 390,47.8
		388.9,49.9 390.3,48.1 391.2,50.2 390.6,48 392.8,48.6 	"/>
	<polygon class="st3" points="362.5,46.7 364.3,45.4 362.2,46.5 362.3,44.1 362,46.5 360.1,44.9 361.7,46.7 359.4,47.1 361.7,47
		360.6,49.1 362,47.2 363,49.3 362.3,47.1 364.6,47.7 	"/>
	<polygon class="st3" points="353,28.3 351.9,30.4 353.2,28.5 354.1,30.6 353.5,28.4 355.8,29 353.6,28 355.5,26.7 353.5,27.8
		353.6,25.5 353.1,27.8 351.4,26.2 352.9,28 350.7,28.4 	"/>
	<polygon class="st3" points="327.2,28.3 326.1,30.4 327.5,28.5 328.4,30.6 327.8,28.4 330,29 327.9,28 329.8,26.7 327.7,27.8
		327.8,25.5 327.4,27.8 325.7,26.2 327.2,28 324.8,28.4 	"/>
	<polygon class="st3" points="323.2,49.6 322.1,51.7 323.6,49.8 324.5,51.9 323.8,49.7 326.1,50.3 324,49.3 325.8,48 323.8,49.1
		323.8,46.7 323.5,49.1 321.8,47.5 323.2,49.3 320.9,49.7 	"/>
	<polygon class="st3" points="380.9,0 380.5,2.3 378.7,0.7 380.3,2.6 378,2.9 380.3,2.8 379.2,4.9 380.5,3.1 381.5,5.2 380.9,2.9
		383.1,3.6 381,2.6 382.9,1.2 380.8,2.3 	"/>
	<polygon class="st3" points="397.6,15.7 396.5,17.8 397.9,15.9 398.7,18.1 398.1,15.9 400.5,16.4 398.3,15.5 400.2,14.1
		398.1,15.2 398.3,12.9 397.8,15.1 396,13.7 397.5,15.4 395.3,15.9 	"/>
	<polygon class="st3" points="367.5,75.6 369.5,74.3 367.4,75.3 367.5,73 367,75.3 365.3,73.8 366.8,75.5 364.6,76 366.9,75.9
		365.8,77.8 367.1,76 368,78.2 367.4,75.9 369.7,76.5 	"/>
	<polygon class="st3" points="399.4,79.7 401.3,78.3 399.2,79.4 399.4,77.1 398.9,79.4 397.1,77.8 398.6,79.6 396.4,80.1
		398.7,79.9 397.6,82 399,80.2 400,82.3 399.4,80.1 401.6,80.7 	"/>
	<g class="st1">
		<defs>
			<rect id="SVGID_9_" x="0" width="1068.4" height="541.9"/>
		</defs>
		<clipPath id="SVGID_10_">
			<use xlink:href="#SVGID_9_"  style="overflow:visible;"/>
		</clipPath>
		<path class="st6" d="M318.2,107.5c0.1-0.7,0.5-1.7,0.9-2.7c0.2-0.5,0.4-1.1,0.6-1.7c0.2-0.6,0.5-1.2,0.7-1.8
			c0.5-1.2,1.1-2.6,1.8-3.9c0.4-0.7,0.7-1.4,1.1-2.1c0.4-0.7,0.9-1.5,1.2-2.2c1.7-3,3.7-6,5.7-9.1c4.1-6,8.4-11.9,11.7-16.2
			c1.1-1.5,2.1-2.7,3-3.8l-1.8,3.9l4.2-6.3l3.3,6.8l-2.3-7.1l7.3,1.6l-6.9-2.5l5.8-4.7l-6.4,3.8v-7.5l-1,7.4l-5.9-4.7l5,5.4v0.1
			l-7.1,1.7l6.3-0.5c-2.7,3.6-9.6,12.7-15.6,22.3c-2,3.1-3.8,6.3-5.4,9.2c-0.4,0.7-0.9,1.5-1.2,2.2c-0.4,0.7-0.7,1.5-1.1,2.2
			c-0.7,1.4-1.2,2.8-1.8,4.1c-0.2,0.6-0.5,1.2-0.7,1.8c-0.2,0.6-0.4,1.1-0.5,1.7c-0.1,0.5-0.2,0.9-0.4,1.4c0.2-1.2,0.5-2.6,0.9-4.2
			c0.4-2.1,1.1-4.3,1.7-6.8c0.4-1.2,0.7-2.5,1.1-3.8c0.2-0.6,0.4-1.4,0.6-2c0.2-0.6,0.5-1.4,0.7-2c1-2.7,2-5.7,3.2-8.6
			c0.1-0.2,0.2-0.6,0.4-0.9l0.1,0.2L327,78c0.2-0.5,0.5-1,0.7-1.6l1,0.2l-1-0.4c1-2.1,1.8-4.2,3-6.3c1.6-3,3.1-6,4.9-8.9
			c1.8-2.8,3.4-5.8,5.5-8.5c1-1.4,2-2.7,3-4.1c0.1-0.1,0.1-0.1,0.2-0.2l2,1l-1.8-1.2c0.9-1.1,1.7-2.2,2.6-3.2c2-2.5,4.2-4.7,6-6.9
			c1-1.1,2.1-2,3-3c1-1,2-1.8,2.8-2.7c1-0.9,1.8-1.6,2.7-2.5c0.9-0.7,1.7-1.5,2.6-2.1c1.6-1.4,3.1-2.3,4.3-3.2c0.7-0.5,1.4-1,2-1.4
			l-5,10.6l6.6-10.1l5.3,10.8L373.6,23l11.8,2.6l-11.3-4.3l9.5-7.6l-10.5,6.2V7.8l-1.6,11.9l-9.5-7.3l8.4,8.7l-11.8,2.7l9.2-0.9
			l-0.1,0.1c-1.2,0.9-2.7,2-4.3,3.3c-0.9,0.6-1.6,1.4-2.6,2.1c-0.9,0.7-1.7,1.6-2.7,2.5c-1,0.9-1.8,1.8-2.8,2.8c-1,1-2,2-3,3.1
			c-2,2.2-4.1,4.4-6,7c-0.9,1.1-1.7,2.2-2.7,3.3l-8.6-5.5l12.1-6L334.3,40l2.7-13.2l-4.5,12.7L323.8,29l7,11.6l-13.5,0.2l13.4,1.6
			l-8.2,10.7l6.3-6.1c-0.1,0.2-0.2,0.4-0.4,0.6c-0.7,1.2-1.5,2.6-2.2,4.2c-0.7,1.5-1.5,3.2-2.3,5c-0.7,1.8-1.5,3.7-2.2,5.8
			c-0.4,1-0.7,2.1-1,3.1c-0.2,1.1-0.6,2.1-0.9,3.2c-0.6,2.1-1.1,4.4-1.6,6.6c-0.5,2.2-0.7,4.4-1.1,6.6c-0.2,1.5-0.4,2.8-0.5,4.3
			l-1.7,0.9L315,85l-0.4,2.3l-1.7-1.5l1.5,1.7l-2.3,0.4l2.3-0.1l-1.1,2.1l1.4-1.8l1,2.1l-0.6-2.2l1.5,0.4v0.4
			c-0.1,2.1-0.1,4.2-0.2,6.1c-0.1,2,0,3.8,0.1,5.5c0.1,1.7,0,3.3,0.2,4.7c0.1,1.4,0.2,2.6,0.4,3.6c0.2,2,0.4,3.1,0.4,3.1
			s-0.1-1.1-0.2-3.1c-0.1-1-0.2-2.2-0.2-3.6c-0.1-1.4-0.1-3-0.1-4.7c0-1.7-0.1-3.6,0-5.4c0.1-2,0.1-3.9,0.4-6.1v-0.2l0.2,0.1
			l-0.2-0.1c0.2-2,0.5-4.1,0.7-6.1c0.4-2.2,0.7-4.4,1.2-6.6c0.5-2.2,1-4.4,1.7-6.5c0.4-1.1,0.6-2.1,1-3.2c0.4-1,0.7-2.1,1.1-3.1
			c0.6-2,1.6-3.8,2.2-5.7c0.9-1.7,1.6-3.4,2.3-4.9c0.7-1.5,1.5-2.8,2.2-4.1c0.6-1.2,1.4-2.2,1.8-3c0.2-0.4,0.5-0.7,0.7-1.1l3.1,12.5
			l-1.4-13.4l9.3,4.3l-0.1,0.1c-1,1.4-1.8,2.7-2.8,4.1c-2,2.7-3.7,5.7-5.4,8.6c-1.7,3-3.2,6-4.8,9c-0.7,1.7-1.5,3.4-2.2,5l-1.4,0.7
			l0.1-2.3l-0.4,2.3l-1.7-1.5l1.5,1.7l-2.3,0.4l2.3-0.1l-1.1,2.1l1.4-1.8l0.5,1.2c-0.2,0.5-0.4,0.9-0.6,1.4c-1.1,3-2.1,5.9-3.1,8.6
			c-0.2,0.7-0.5,1.4-0.7,2.1c-0.1,0.7-0.4,1.4-0.5,2c-0.4,1.4-0.7,2.6-1,3.8c-0.6,2.5-1.4,4.7-1.7,6.8c-0.4,2.1-0.7,3.8-1,5.3v0.2
			C318.2,107.4,318.2,107.5,318.2,107.5c-0.4,1.6-0.6,2.5-0.6,2.5s0.1-0.4,0.2-1c-0.4,1.7-0.5,2.7-0.5,2.7S317.7,110.2,318.2,107.5
			C318.2,107.6,318.2,107.6,318.2,107.5 M315.2,87.7l1.5-1.1c0,0.6-0.1,1.1-0.1,1.7L315.2,87.7z M327.9,74.8
			c-0.1,0.4-0.4,0.7-0.5,1.1l-0.6-0.2L327.9,74.8z M326.5,75.9l0.7,0.1c-0.1,0.2-0.2,0.6-0.4,0.9L326.5,75.9z"/>
		<path class="st6" d="M55.1,106.8c0,0,11.7-8.5,29.1-9.3c17.4-0.8,19.2,5.5,18.8,6.8c-0.5,1.3-4.4-0.1-10.9-2.2
			C85.8,100,78.7,97.1,55.1,106.8"/>
		<path class="st6" d="M54,110.6c0,0,12.8,6.8,21.3,22.1c8.5,15.3,3.5,19.7,2,19.8c-1.3,0.1-1.9-4.1-2.8-10.8
			C73.5,135.2,72.9,127.7,54,110.6"/>
		<path class="st6" d="M51.2,98c0,0,0-11.5,7.6-22.9c7.6-11.5,12.4-9.7,13-8.7c0.6,0.8-2.2,2.9-6.5,6C61.2,75.4,56.1,78.5,51.2,98"
			/>
		<path class="st6" d="M47.5,106.9c0,0-13.5-5.1-30.6-1.4C-0.1,109.2-0.2,115.8,0.5,117c0.7,1.1,4.3-1.2,9.9-4.9
			C16,108.4,22.1,103.8,47.5,106.9"/>
		<path class="st6" d="M48.1,104.1c0,0-4.2-10.2-15-17.6c-10.9-7.4-14.4-4.1-14.7-3.1c-0.2,1,2.9,1.7,7.9,2.9
			C31.2,87.6,36.8,88.5,48.1,104.1"/>
		<path class="st6" d="M48.3,110.6c0,0-10.4,3.3-18.7,13.5c-8.4,10.2-5.3,14.1-4.3,14.5c1,0.4,1.9-2.8,3.6-7.5
			C30.5,126.3,31.9,120.8,48.3,110.6"/>
		<path class="st6" d="M34.3,112.1c0,0-7.9,1.1-15.2,7.3c-7.3,6.2-5.5,9.4-4.9,9.8c0.6,0.4,1.8-1.7,3.5-5
			C19.5,121,21.1,117.2,34.3,112.1"/>
		<path class="st6" d="M48,96.2c0,0,0.8-7.9-3.7-16.5c-4.4-8.5-8-7.5-8.5-7c-0.5,0.5,1.3,2.2,4.1,4.5C42.6,79.6,46,82.2,48,96.2"/>
		<path class="st6" d="M49.4,112.1c0,0-6.1,5.1-9,14.3c-2.9,9.2,0.4,11,1.1,10.9c0.7,0,0.6-2.4,0.4-6.1
			C41.6,127.5,41.1,123.4,49.4,112.1"/>
		<path class="st6" d="M60.9,109.7c0,0,7.9,1.1,15.2,7.3c7.3,6.3,5.5,9.4,4.9,9.8c-0.6,0.4-1.8-1.7-3.5-5
			C75.7,118.6,74.1,114.8,60.9,109.7"/>
		<path class="st6" d="M55.1,99.4c0,0,2.9-7.4,10.7-13c7.9-5.6,10.5-3.1,10.7-2.4c0.2,0.7-2.2,1.3-5.7,2.3
			C67.2,87.1,63.2,87.9,55.1,99.4"/>
		<path class="st6" d="M73.7,107.5c0,0,6.8-0.5,14,3.6c7.2,4.1,6.2,7,5.7,7.4c-0.5,0.4-1.8-1.2-3.8-3.6
			C87.6,112.4,85.5,109.6,73.7,107.5"/>
		<path class="st6" d="M52.4,116.4c0,0,4.5,5,5.9,13.1c1.3,8.1-1.7,9.2-2.3,9.1c-0.6-0.1-0.2-2.2,0.5-5.1
			C57.1,130.3,58.1,127,52.4,116.4"/>
	</g>
	<polygon class="st3" points="25.4,96.2 22.6,96.2 21.7,98.8 20.9,96.1 18,96.1 20.3,94.5 19.5,91.8 21.7,93.4 24,91.9 23.2,94.5
		"/>
	<polygon class="st3" points="51.1,109.7 50.9,107.5 48.9,107.1 50.9,106.2 50.6,103.9 52.1,105.6 54.1,104.8 52.9,106.7
		54.3,108.4 52.2,107.9 	"/>
	<polygon class="st3" points="84.6,76.4 83.4,72.8 79.6,72.8 82.7,70.5 81.5,66.8 84.6,69.1 87.7,66.8 86.5,70.5 89.6,72.8
		85.8,72.8 	"/>
	<polygon class="st3" points="104.3,91 100.8,90.3 98.9,93.3 98.7,89.8 95.2,89 98.4,87.6 98.1,84 100.5,86.7 103.7,85.3
		101.9,88.4 	"/>
	<polygon class="st3" points="18,73.9 18.3,68.9 13.7,67.3 18.4,66 18.6,61.2 21.3,65.2 25.9,63.9 22.9,67.6 25.6,71.7 21,70 	"/>
	<polygon class="st3" points="1.7,78.5 0.2,79.2 1.8,79.5 1.9,81.1 2.8,79.7 4.3,80.1 3.2,78.9 3.9,77.4 2.5,78.1 1.4,77 	"/>
	<polygon class="st3" points="4.3,134.4 0,136.7 4.8,137.4 5.6,142.2 7.8,137.9 12.5,138.5 9.1,135.1 11.2,130.7 6.9,133 3.5,129.6
			"/>
	<polygon class="st3" points="43,155.1 40.7,154 39.1,155.7 39.4,153.3 37.2,152.1 39.7,151.7 40,149.3 41.2,151.5 43.6,151.1
		41.8,152.8 	"/>
	<polygon class="st3" points="62.2,151.1 62.7,149.6 61.4,148.6 63.1,148.6 63.5,146.9 64.1,148.6 65.8,148.6 64.4,149.6 65,151.1
		63.5,150.2 	"/>
	<polygon class="st3" points="97.9,136.6 92.3,134.6 88.7,139.4 88.9,133.4 83.1,131.7 88.9,129.9 88.9,123.9 92.3,128.7
		98.1,126.9 94.5,131.7 	"/>
	<polygon class="st3" points="102.2,117.2 101.8,116.1 100.5,116.1 101.4,115.4 100.9,114.2 102,114.8 103,114.1 102.6,115.3
		103.7,115.9 102.5,116 	"/>
	<polygon class="st3" points="47.5,68.8 45.9,66.9 43.5,67.9 44.8,65.7 43.1,63.8 45.6,64.3 46.9,62.1 47.2,64.7 49.6,65.2
		47.3,66.3 	"/>
	<g class="st1">
		<defs>
			<rect id="SVGID_11_" x="0" width="1068.4" height="541.9"/>
		</defs>
		<clipPath id="SVGID_12_">
			<use xlink:href="#SVGID_11_"  style="overflow:visible;"/>
		</clipPath>
		<path class="st7" d="M1019.2,45.6c0,0,11.7-8.5,29.1-9.3c17.4-0.8,19.2,5.5,18.8,6.8c-0.5,1.3-4.4-0.1-10.9-2.2
			C1049.9,38.8,1042.8,36,1019.2,45.6"/>
		<path class="st7" d="M1018.1,49.4c0,0,12.8,6.8,21.3,22.1c8.5,15.3,3.5,19.7,2,19.8c-1.3,0.1-1.9-4.1-2.8-10.8
			C1037.6,74.1,1037,66.5,1018.1,49.4"/>
		<path class="st7" d="M1015.4,36.8c0,0,0-11.5,7.6-22.9c7.6-11.5,12.4-9.7,13-8.7c0.6,0.8-2.2,2.9-6.5,6
			C1025.3,14.2,1020.3,17.3,1015.4,36.8"/>
		<path class="st7" d="M1011.7,45.7c0,0-13.5-5.1-30.6-1.4C964,48,963.9,54.6,964.6,55.8c0.7,1.1,4.3-1.2,9.9-4.9
			C980.1,47.2,986.2,42.6,1011.7,45.7"/>
		<path class="st7" d="M1012.3,42.9c0,0-4.2-10.2-15-17.6c-10.9-7.4-14.5-4.1-14.7-3.1c-0.2,1,2.9,1.7,7.9,2.9
			C995.3,26.4,1000.9,27.4,1012.3,42.9"/>
		<path class="st7" d="M1012.4,49.4c0,0-10.4,3.3-18.7,13.5c-8.4,10.2-5.3,14.1-4.3,14.5c1,0.4,1.9-2.8,3.6-7.5
			C994.6,65.1,996,59.6,1012.4,49.4"/>
		<path class="st7" d="M998.4,50.9c0,0-7.9,1.1-15.2,7.3c-7.3,6.2-5.5,9.4-4.9,9.8c0.6,0.4,1.8-1.7,3.5-5
			C983.6,59.8,985.3,56,998.4,50.9"/>
		<path class="st7" d="M1012.1,35c0,0,0.8-7.9-3.7-16.5c-4.4-8.5-8-7.5-8.5-7c-0.5,0.5,1.3,2.2,4.1,4.5
			C1006.8,18.4,1010.1,21,1012.1,35"/>
		<path class="st7" d="M1013.6,50.9c0,0-6.1,5.1-9,14.3c-2.9,9.2,0.4,11,1.1,10.9c0.7,0,0.6-2.4,0.4-6.1
			C1005.7,66.3,1005.2,62.2,1013.6,50.9"/>
		<path class="st7" d="M1025,48.5c0,0,7.9,1.1,15.2,7.3c7.3,6.3,5.5,9.4,4.9,9.8c-0.6,0.4-1.8-1.7-3.5-5
			C1039.9,57.5,1038.2,53.6,1025,48.5"/>
		<path class="st7" d="M1019.2,38.2c0,0,2.9-7.4,10.7-13c7.9-5.6,10.5-3.1,10.8-2.4c0.2,0.7-2.2,1.3-5.7,2.3
			C1031.4,25.9,1027.3,26.8,1019.2,38.2"/>
		<path class="st7" d="M1037.8,46.3c0,0,6.8-0.5,14,3.6c7.2,4.1,6.2,7,5.7,7.4c-0.5,0.4-1.8-1.2-3.8-3.6
			C1051.7,51.2,1049.6,48.4,1037.8,46.3"/>
		<path class="st7" d="M1016.6,55.2c0,0,4.5,5,5.9,13.1c1.3,8.1-1.7,9.2-2.3,9.1c-0.6-0.1-0.2-2.2,0.5-5.1
			C1021.2,69.2,1022.2,65.8,1016.6,55.2"/>
	</g>
	<polygon class="st3" points="989.6,35 986.7,35 985.9,37.6 985,34.9 982.2,34.9 984.4,33.3 983.6,30.6 985.9,32.2 988.1,30.7
		987.3,33.3 	"/>
	<polygon class="st3" points="1015.2,48.5 1015,46.3 1013,45.9 1015,45 1014.8,42.8 1016.2,44.4 1018.2,43.6 1017,45.5 1018.5,47.2
		1016.3,46.7 	"/>
	<polygon class="st3" points="1048.7,15.2 1047.5,11.6 1043.7,11.6 1046.8,9.3 1045.6,5.6 1048.7,7.9 1051.8,5.6 1050.6,9.3
		1053.7,11.6 1049.9,11.6 	"/>
	<polygon class="st3" points="1062.5,26.4 1059.3,27.8 1062.8,28.7 1063,32.1 1064.9,29.1 1068.4,29.9 1066,27.2 1067.8,24.1
		1064.6,25.6 1062.2,22.8 	"/>
	<polygon class="st3" points="982.8,0 982.5,4.8 977.9,6.1 982.4,7.8 982.2,12.7 985.2,8.8 989.7,10.5 987.1,6.5 990,2.8 985.4,4.1
			"/>
	<polygon class="st3" points="968.4,18.9 966.9,18.5 966,20 965.9,18.3 964.4,18 965.8,17.3 965.6,15.8 966.6,17 968.1,16.3
		967.4,17.7 	"/>
	<polygon class="st3" points="969.7,81 968.9,76.2 964.1,75.5 968.4,73.2 967.6,68.4 971.1,71.8 975.4,69.5 973.2,73.9 976.7,77.3
		971.9,76.7 	"/>
	<polygon class="st3" points="1007.1,93.9 1004.9,92.8 1003.2,94.5 1003.5,92.1 1001.3,90.9 1003.8,90.5 1004.1,88.1 1005.3,90.3
		1007.7,89.9 1005.9,91.6 	"/>
	<polygon class="st3" points="1026.4,89.9 1026.8,88.4 1025.5,87.4 1027.2,87.4 1027.7,85.8 1028.3,87.4 1029.9,87.4 1028.5,88.4
		1029.1,89.9 1027.7,89 	"/>
	<polygon class="st3" points="1062.1,75.4 1056.5,73.5 1052.9,78.2 1053,72.3 1047.3,70.5 1053,68.7 1053,62.7 1056.5,67.5
		1062.2,65.7 1058.6,70.5 	"/>
	<polygon class="st3" points="1066.4,56 1065.9,54.9 1064.6,54.9 1065.5,54.2 1065.1,53 1066.1,53.6 1067.1,52.9 1066.7,54.1
		1067.8,54.7 1066.6,54.8 	"/>
	<polygon class="st3" points="1011.7,7.6 1010,5.7 1007.6,6.7 1008.9,4.5 1007.2,2.6 1009.8,3.1 1011.1,1 1011.3,3.5 1013.7,4.1
		1011.4,5.1 	"/>
	<g class="st1">
		<defs>
			<rect id="SVGID_13_" x="161.3" y="95.3" width="745.3" height="204.5"/>
		</defs>
		<clipPath id="SVGID_14_">
			<use xlink:href="#SVGID_13_"  style="overflow:visible;"/>
		</clipPath>
		<defs>
			<filter id="Adobe_OpacityMaskFilter" filterUnits="userSpaceOnUse" x="168.5" y="95.3" width="733.7" height="204.5">

					<feColorMatrix  type="matrix" values="-1 0 0 0 1  0 -1 0 0 1  0 0 -1 0 1  0 0 0 1 0" color-interpolation-filters="sRGB" result="source"/>
			</filter>
		</defs>
		<mask maskUnits="userSpaceOnUse" x="168.5" y="95.3" width="733.7" height="204.5" id="SVGID_15_">
			<g class="st8">
				<g class="st9">
					<path class="st10" d="M528.1,156.5c0.6,0,1.2-0.5,1.2-1.1c0-0.6-0.5-1.1-1.2-1.1c-0.6,0-1.2,0.5-1.2,1.1
						C526.9,156,527.4,156.5,528.1,156.5"/>
					<path class="st10" d="M541.4,156.5c0.6,0,1.2-0.5,1.2-1.1c0-0.6-0.5-1.1-1.2-1.1c-0.6,0-1.2,0.5-1.2,1.1
						C540.2,156,540.8,156.5,541.4,156.5"/>
					<path class="st10" d="M890.1,226.4c3.9-2.1,6.1-3.5,6.3-3.6l-1.6-2.5c-0.6,0.4-60.6,38.4-121.9,20.6
						c-43.5-12.6-98.9-59.9-110.9-70.5v-17.7H661v-14.6h1c0,0-1.6-4.1-2.6-8c-0.8-3-1.8-7.6-2.2-9.6c0.4-0.1,0.7-0.4,0.7-0.7
						c0-0.3-0.3-0.6-0.7-0.7v-2.3h1.8v-0.5h-1.8v-2.7h-0.5v2.7h-1.7v0.5h1.7v2.3c-0.4,0.1-0.8,0.3-0.8,0.7c0,0.3,0.3,0.6,0.8,0.7
						c-0.4,1.8-1.4,5.7-2.3,8.8h-4.7l-5.1-22.4h-0.7V92.6h-1V107H642l-4.8,22.9h-4.7c-0.7-3-1.7-7.3-2.2-9.3
						c0.4-0.1,0.7-0.4,0.7-0.7c0-0.3-0.3-0.6-0.7-0.7v-2.3h1.8v-0.5h-1.8v-2.7h-0.5v2.7h-1.7v0.5h1.7v2.3c-0.4,0.1-0.8,0.3-0.8,0.7
						c0,0.3,0.3,0.6,0.8,0.7c-0.5,2-1.5,6.3-2.6,9.6c-1.4,4.4-3.1,8-3.1,8h1v14.6h-0.9v4.5h-82.2v-0.5h-5.2c0-0.1,0.1-0.3,0.1-0.4
						c0-0.7-0.7-1.4-1.7-1.5v-1.2h1.2v-0.5h-1.2v-1.4H535v1.4h-1.2v0.5h1.2v1.2c-1,0.1-1.7,0.7-1.7,1.5c0,0.1,0,0.3,0.1,0.4h-6.1
						v0.5h-82v-4.5h-0.9v-14.6h1c0,0-1.7-3.6-3.1-8c-1.1-3.3-2.1-7.6-2.6-9.6c0.4-0.1,0.8-0.3,0.8-0.7c0-0.4-0.3-0.6-0.8-0.7v-2.3
						h1.7v-0.5h-1.7v-2.7h-0.5v2.7h-1.8v0.5h1.8v2.3c-0.4,0.1-0.7,0.4-0.7,0.7c0,0.3,0.3,0.6,0.7,0.7c-0.4,2-1.4,6.4-2.2,9.3h-4.7
						l-4.8-22.9h-0.8V92.6h-1V107h-0.7l-5.1,22.4h-4.7c-1-3.2-1.9-7-2.3-8.8c0.4-0.1,0.8-0.3,0.8-0.7c0-0.4-0.3-0.6-0.8-0.7v-2.3
						h1.7v-0.5H413v-2.7h-0.5v2.7h-1.8v0.5h1.8v2.3c-0.4,0.1-0.7,0.4-0.7,0.7c0,0.3,0.3,0.6,0.7,0.7c-0.5,2-1.5,6.7-2.2,9.6
						c-1,3.9-2.6,8-2.6,8h1v14.6h-0.9v17.7c-12,10.6-67.4,57.9-110.9,70.5c-61.3,17.8-121.3-20.2-121.9-20.6l-1.6,2.5
						c0.1,0.1,2.3,1.5,6.3,3.6v28.5h-5.4v7.9h224.1v18.8h56.6v-18.8h79.3h1.5h79.3v18.8h56.6v-18.8h224.1v-7.9h-5.4V226.4z
						 M197.9,254.9h-17.4v-28c4.2,2.2,10.1,5.1,17.4,8.1V254.9z M216.3,254.9h-17.4v-19.5c5.2,2.1,11,4.2,17.4,6.1V254.9z
						 M234.6,254.9h-17.4v-13.1c5.4,1.6,11.3,3,17.4,4.2V254.9z M253,254.9h-17.4v-8.8c5.6,1,11.4,1.8,17.4,2.2V254.9z M266.9,254.9
						H254v-6.6c2.8,0.2,5.7,0.3,8.7,0.3c1.4,0,2.8,0,4.3-0.1V254.9z M289.7,254.9h-17.8v-6.6c5.9-0.4,11.8-1.2,17.8-2.5V254.9z
						 M308,254.9h-17.4v-9.3c2.3-0.5,4.7-1.1,7-1.8c3.4-1,6.8-2.2,10.3-3.5V254.9z M326.3,254.9H309v-15c5.7-2.3,11.5-5,17.4-8
						V254.9z M344.7,254.9h-17.4v-23.6c5.8-3.1,11.6-6.4,17.4-10V254.9z M363,254.9h-17.4v-34.1c6-3.7,11.8-7.6,17.4-11.5V254.9z
						 M381.4,254.9H364v-46.3c6.2-4.3,12-8.6,17.4-12.7V254.9z M399.7,254.1h-1.5v0.8h-15.8v-59.8c6.7-5.2,12.6-10,17.4-13.9V254.1z
						 M409.3,254.1h-8.5v-73.7c2.8-2.4,5.2-4.4,7-6v5.3h1.5V254.1z M420.8,243h-1.7v-15.7h1.7V243z M420.8,215.8h-1.7V209h1.7V215.8
						z M420.8,193.1h-1.7v-6.8h1.7V193.1z M420.8,167h-1.7v-11.1h1.7V167z M423.5,140.4h5.2v6.8h-5.2V140.4z M426.8,243h-1.7v-15.7
						h1.7V243z M426.8,215.8h-1.7V209h1.7V215.8z M426.8,193.1h-1.7v-6.8h1.7V193.1z M428.8,167h-5.2v-11.1h5.2V167z M432.8,243
						h-1.7v-15.7h1.7V243z M432.8,215.8h-1.7V209h1.7V215.8z M432.8,193.1h-1.7v-6.8h1.7V193.1z M433,167h-1.7v-11.1h1.7V167z
						 M621.8,162.6l2.7-2.7v5.2h-0.2L621.8,162.6z M622.2,165.1h-2.9l1.5-1.5L622.2,165.1z M622.7,159.5l-2,2l-2-2H622.7z
						 M616.6,159.5l3.1,3.1l-2.5,2.5h-1.2l-2.5-2.5L616.6,159.5L616.6,159.5z M613.8,165.1h-2.9l1.5-1.5L613.8,165.1z M614.4,159.5
						l-2,2l-2-2H614.4z M608.2,159.5l3.1,3.1l-2.5,2.5h-1.2l-2.5-2.5L608.2,159.5L608.2,159.5z M605.4,165.1h-2.9l1.5-1.5
						L605.4,165.1z M606,159.5l-2,2l-2-2H606z M599.8,159.5l3.1,3.1l-2.5,2.5h-1.2l-2.5-2.5L599.8,159.5L599.8,159.5z M597.1,165.1
						h-2.9l1.5-1.5L597.1,165.1z M597.7,159.5l-2,2l-2-2H597.7z M591.5,159.5l3.1,3.1l-2.5,2.5h-1.2l-2.5-2.5L591.5,159.5
						L591.5,159.5z M588.7,165.1h-2.9l1.5-1.5L588.7,165.1z M589.3,159.5l-2,2l-2-2H589.3z M583.1,159.5l3.1,3.1l-2.5,2.5h-1.2
						l-2.5-2.5L583.1,159.5L583.1,159.5z M580.4,165.1h-2.9l1.5-1.5L580.4,165.1z M580.9,159.5l-2,2l-2-2H580.9z M574.7,159.5
						l3.1,3.1l-2.5,2.5h-1.2l-2.5-2.5L574.7,159.5L574.7,159.5z M572,165.1h-2.9l1.5-1.5L572,165.1z M572.6,159.5l-2,2l-2-2H572.6z
						 M566.4,159.5l3.1,3.1l-2.5,2.5h-1.2l-2.5-2.5L566.4,159.5L566.4,159.5z M563.6,165.1h-2.9l1.5-1.5L563.6,165.1z M564.2,159.5
						l-2,2l-2-2H564.2z M558,159.5l3.1,3.1l-2.5,2.5h-1.2l-2.5-2.5L558,159.5L558,159.5z M555.3,165.1h-2.9l1.5-1.5L555.3,165.1z
						 M555.8,159.5l-2,2l-2-2H555.8z M549.7,159.5l3.1,3.1l-2.5,2.5H549l-2.5-2.5L549.7,159.5L549.7,159.5z M546.9,165.1H544
						l1.5-1.5L546.9,165.1z M547.5,159.5l-2,2l-2-2H547.5z M544.4,162.6l-2.1,2.1v-4.3L544.4,162.6z M527.2,164.6l-2-2l2-1.9V164.6z
						 M525.7,165.1h-2.9l1.5-1.5L525.7,165.1z M526.3,159.5l-2,2l-2-2H526.3z M520.1,159.5l3.1,3.1l-2.5,2.5h-1.2l-2.5-2.5
						L520.1,159.5L520.1,159.5z M517.3,165.1h-2.9l1.5-1.5L517.3,165.1z M517.9,159.5l-2,2l-2-2H517.9z M511.7,159.5l3.1,3.1
						l-2.5,2.5h-1.2l-2.5-2.5L511.7,159.5L511.7,159.5z M509,165.1H506l1.5-1.5L509,165.1z M509.5,159.5l-2,2l-2-2H509.5z
						 M503.3,159.5l3.1,3.1l-2.5,2.5h-1.2l-2.5-2.5L503.3,159.5L503.3,159.5z M500.6,165.1h-2.9l1.5-1.5L500.6,165.1z M501.2,159.5
						l-2,2l-2-2H501.2z M495,159.5l3.1,3.1l-2.5,2.5h-1.2l-2.5-2.5L495,159.5L495,159.5z M492.2,165.1h-2.9l1.5-1.5L492.2,165.1z
						 M492.8,159.5l-2,2l-2-2H492.8z M486.6,159.5l3.1,3.1l-2.5,2.5H486l-2.5-2.5L486.6,159.5L486.6,159.5z M483.9,165.1h-2.9
						l1.5-1.5L483.9,165.1z M484.5,159.5l-2,2l-2-2H484.5z M478.3,159.5l3.1,3.1l-2.5,2.5h-1.2l-2.5-2.5L478.3,159.5L478.3,159.5z
						 M475.5,165.1h-2.9l1.5-1.5L475.5,165.1z M476.1,159.5l-2,2l-2-2H476.1z M469.9,159.5l3.1,3.1l-2.5,2.5h-1.2l-2.5-2.5
						L469.9,159.5L469.9,159.5z M467.1,165.1h-2.9l1.5-1.5L467.1,165.1z M467.7,159.5l-2,2l-2-2H467.7z M461.5,159.5l3.1,3.1
						l-2.5,2.5h-1.2l-2.5-2.5L461.5,159.5L461.5,159.5z M458.8,165.1h-2.9l1.5-1.5L458.8,165.1z M459.4,159.5l-2,2l-2-2H459.4z
						 M453.2,159.5l3.1,3.1l-2.5,2.5h-1.2l-2.5-2.5L453.2,159.5L453.2,159.5z M450.4,165.1h-2.9l1.5-1.5L450.4,165.1z M451,159.5
						l-2,2l-2-2H451z M445.2,159.9l2.7,2.7l-2.5,2.5h-0.2V159.9z M625.9,254.1h-11.1v0.8h-79.3h-1.5h-79.3v-0.8h-11.1v-74.4h1.5
						v-10.7h84.6v0h10.1v0h84.6v10.7h1.5V254.1z M636.7,155.9h1.7V167h-1.7V155.9z M638.5,243h-1.7v-15.7h1.7V243z M638.5,215.8
						h-1.7V209h1.7V215.8z M638.5,193.1h-1.7v-6.8h1.7V193.1z M644.5,243h-1.7v-15.7h1.7V243z M644.5,215.8h-1.7V209h1.7V215.8z
						 M644.5,193.1h-1.7v-6.8h1.7V193.1z M646,167h-5.2v-11.1h5.2V167z M646.1,147.2h-5.2v-6.8h5.2V147.2z M648.8,155.9h1.7V167
						h-1.7V155.9z M650.6,243h-1.7v-15.7h1.7V243z M650.6,215.8h-1.7V209h1.7V215.8z M650.6,193.1h-1.7v-6.8h1.7V193.1z
						 M668.9,254.1h-8.5v-74.4h1.5v-5.3c1.8,1.6,4.2,3.6,7,6V254.1z M687.3,254.9h-15.8v-0.8h-1.5v-72.9c4.7,3.9,10.6,8.7,17.4,13.9
						V254.9z M705.6,254.9h-17.4v-59c5.3,4.1,11.2,8.4,17.4,12.7V254.9z M724,254.9h-17.4v-45.6c5.6,3.9,11.4,7.8,17.4,11.5V254.9z
						 M742.3,254.9H725v-33.5c5.7,3.5,11.5,6.9,17.4,10V254.9z M760.7,254.9h-17.4v-23c5.8,3,11.6,5.7,17.4,8V254.9z M779,254.9
						h-17.4v-14.6c3.5,1.4,7,2.6,10.3,3.5c2.3,0.7,4.7,1.3,7,1.8V254.9z M797.8,254.9H780v-9.1c6,1.3,12,2.1,17.8,2.5V254.9z
						 M815.7,254.9h-12.9v-6.4c1.4,0,2.9,0.1,4.3,0.1c2.9,0,5.8-0.1,8.7-0.3V254.9z M834.1,254.9h-17.4v-6.6
						c6-0.4,11.8-1.2,17.4-2.2V254.9z M852.4,254.9H835v-9c6.1-1.1,11.9-2.6,17.4-4.2V254.9z M870.7,254.9h-17.4v-13.4
						c6.3-1.9,12.2-4,17.4-6.1V254.9z M889.1,254.9h-17.4V235c7.2-3,13.1-5.9,17.4-8.1V254.9z"/>
				</g>
			</g>
		</mask>
		<g class="st11">
			<g>
				<defs>
					<rect id="SVGID_16_" x="168.5" y="95.3" width="733.7" height="204.5"/>
				</defs>
				<clipPath id="SVGID_17_">
					<use xlink:href="#SVGID_16_"  style="overflow:visible;"/>
				</clipPath>
				<polygon class="st12" points="536.2,246.3 536.2,211.6 496.7,203.4 				"/>
				<polygon class="st12" points="496.7,203.4 447.4,184.9 421.5,251.9 				"/>
				<polygon class="st12" points="455,203.4 421.5,251.9 455,281 				"/>
				<polygon class="st12" points="413.6,299.8 455,299.8 458.6,279.1 				"/>
				<polygon class="st12" points="413.6,299.8 458.6,279.1 421.5,251.9 				"/>
				<polygon class="st12" points="455,299.8 536.2,299.8 458.6,279.1 				"/>
				<polygon class="st12" points="458.6,279.1 536.2,299.8 536.2,299.8 503.7,266.5 				"/>
				<polygon class="st12" points="536.2,211.6 496.7,203.4 521.1,158.3 				"/>
				<polygon class="st12" points="521.1,158.3 496.7,203.4 487.8,134 				"/>
				<polygon class="st12" points="496.7,203.4 447.4,184.9 487.8,134 				"/>
				<polygon class="st12" points="487.8,134 447.4,184.9 448.8,151.5 				"/>
				<polygon class="st12" points="521.1,158.3 487.8,134 536.2,124.7 				"/>
				<polygon class="st12" points="536.2,211.6 521.1,158.3 536.2,124.7 				"/>
				<polygon class="st12" points="487.8,134 536.2,124.7 536.2,95.3 				"/>
				<polygon class="st12" points="448.8,151.5 487.8,134 472.8,95.3 				"/>
				<polygon class="st12" points="472.8,95.3 487.8,134 536.2,95.3 				"/>
				<polygon class="st12" points="417.3,123.3 448.8,151.5 472.8,95.3 				"/>
				<polygon class="st12" points="448.8,151.5 447.4,184.9 371.7,176.7 				"/>
				<polygon class="st12" points="448.8,151.5 417.3,123.3 371.7,176.7 				"/>
				<polygon class="st12" points="413.6,299.8 413.6,299.8 421.5,251.9 373.6,248.5 				"/>
				<polygon class="st12" points="421.5,251.9 411.2,213.1 373.6,248.5 				"/>
				<polygon class="st12" points="411.2,213.1 371.7,176.7 373.6,248.5 				"/>
				<polygon class="st12" points="363.3,284.4 413.5,299.8 413.6,299.8 373.6,248.5 				"/>
				<polygon class="st12" points="366.5,299.8 413.5,299.8 363.3,284.4 				"/>
				<polygon class="st12" points="373.6,248.5 371.7,176.7 323.8,242.2 				"/>
				<polygon class="st12" points="373.6,248.5 363.3,284.4 323.8,242.2 				"/>
				<polygon class="st12" points="310.6,299.8 366.5,299.8 363.3,284.4 				"/>
				<polygon class="st12" points="310.6,299.8 310.6,299.8 363.3,284.4 323.8,242.2 				"/>
				<polygon class="st12" points="279.1,262.1 310.6,299.8 323.8,242.2 				"/>
				<polygon class="st12" points="323.8,242.2 279.1,262.1 260.3,247 				"/>
				<polygon class="st12" points="244.6,299.8 310.6,299.8 279.1,262.1 				"/>
				<polygon class="st12" points="244.6,299.8 244.6,299.8 279.1,262.1 260.4,247 				"/>
				<polygon class="st12" points="216.2,299.8 244.6,299.8 260.3,247 				"/>
				<polygon class="st12" points="216.2,299.8 216.2,299.8 260.3,247 209.6,223.3 				"/>
				<polygon class="st12" points="168.5,299.8 216.2,299.8 209.6,223.3 				"/>
				<polygon class="st12" points="168.5,299.8 168.5,299.8 209.6,223.3 168.5,186 				"/>
				<polygon class="st12" points="260.4,247 209.6,223.3 262.2,171.4 				"/>
				<polygon class="st12" points="371.7,176.7 323.8,242.2 309.7,173.3 				"/>
				<polygon class="st12" points="323.8,242.2 260.3,247 309.7,173.3 				"/>
				<polygon class="st12" points="262.2,171.4 260.4,247 309.7,173.3 				"/>
				<polygon class="st12" points="398.7,95.3 417.3,123.3 472.8,95.3 				"/>
				<polygon class="st12" points="398.7,95.3 360.4,131.1 417.3,123.3 				"/>
				<polygon class="st12" points="417.3,123.3 371.7,176.7 360.4,131.1 				"/>
				<polygon class="st12" points="291.7,95.3 360.4,131.1 398.7,95.3 				"/>
				<polygon class="st12" points="371.7,176.7 309.7,173.3 360.4,131.1 				"/>
				<polygon class="st12" points="309.7,173.3 360.4,131.1 291.7,95.3 				"/>
				<polygon class="st12" points="447.4,184.9 421.5,251.9 411.6,211.6 				"/>
				<polygon class="st12" points="447.4,184.9 371.7,176.7 411.6,211.6 				"/>
				<polygon class="st12" points="421.5,251.9 411.2,213.1 411.6,211.6 				"/>
				<polygon class="st12" points="411.2,213.1 371.7,176.7 411.6,211.6 				"/>
				<polygon class="st12" points="534.4,246.3 534.5,211.6 574,203.4 				"/>
				<polygon class="st12" points="574,203.4 623.3,184.9 649.2,251.9 				"/>
				<polygon class="st12" points="614.3,199 649.2,251.9 614.3,280.1 				"/>
				<polygon class="st12" points="615.7,299.8 657.1,299.8 612,279.1 				"/>
				<polygon class="st12" points="612,279.1 657.1,299.8 649.2,251.9 				"/>
				<polygon class="st12" points="534.4,299.8 615.7,299.8 612,279.1 				"/>
				<polygon class="st12" points="534.4,299.8 534.4,299.8 612,279.1 566.9,266.5 				"/>
				<polygon class="st12" points="534.5,211.6 574,203.4 549.5,158.3 				"/>
				<polygon class="st12" points="549.5,158.3 574,203.4 582.9,134 				"/>
				<polygon class="st12" points="574,203.4 623.3,184.9 582.9,134 				"/>
				<polygon class="st12" points="582.9,134 623.3,184.9 621.9,151.5 				"/>
				<polygon class="st12" points="549.5,158.3 582.9,134 534.4,124.7 				"/>
				<polygon class="st12" points="534.5,211.6 549.5,158.3 534.4,124.7 				"/>
				<polygon class="st12" points="534.4,124.7 582.9,134 534.4,95.3 				"/>
				<polygon class="st12" points="582.9,134 621.9,151.5 597.9,95.3 				"/>
				<polygon class="st12" points="534.4,95.3 582.9,134 597.9,95.3 				"/>
				<polygon class="st12" points="621.9,151.5 653.4,123.3 597.9,95.3 				"/>
				<polygon class="st12" points="621.9,151.5 623.3,184.9 699,176.7 				"/>
				<polygon class="st12" points="621.9,151.5 653.4,123.3 699,176.7 				"/>
				<polygon class="st12" points="649.2,251.9 657.1,299.8 657.1,299.8 697.1,248.5 				"/>
				<polygon class="st12" points="649.2,251.9 659.5,213.1 697.1,248.5 				"/>
				<polygon class="st12" points="659.5,213.1 699,176.7 697.1,248.5 				"/>
				<polygon class="st12" points="657.1,299.8 657.1,299.8 707.4,284.4 697.1,248.5 				"/>
				<polygon class="st12" points="657.1,299.8 704.1,299.8 707.4,284.4 				"/>
				<polygon class="st12" points="697.1,248.5 699,176.7 746.9,242.2 				"/>
				<polygon class="st12" points="697.1,248.5 707.4,284.4 746.9,242.2 				"/>
				<polygon class="st12" points="704.1,299.8 760,299.8 707.4,284.4 				"/>
				<polygon class="st12" points="707.4,284.4 760,299.8 760,299.8 746.9,242.2 				"/>
				<polygon class="st12" points="760,299.8 791.5,262.1 746.9,242.2 				"/>
				<polygon class="st12" points="746.9,242.2 791.5,262.1 810.3,247 				"/>
				<polygon class="st12" points="760.1,299.8 826.1,299.8 791.5,262.1 				"/>
				<polygon class="st12" points="791.5,262.1 826.1,299.8 810.3,247 				"/>
				<polygon class="st12" points="826.1,299.8 854.5,299.8 810.3,247 				"/>
				<polygon class="st12" points="810.3,247 854.5,299.8 854.5,299.8 861.1,223.3 				"/>
				<polygon class="st12" points="854.5,299.8 902.2,299.8 902.2,299.8 861.1,223.3 				"/>
				<polygon class="st12" points="861.1,223.3 902.2,299.8 902.2,186 				"/>
				<polygon class="st12" points="861.1,223.3 902.2,186 902.2,185.9 870.5,128.7 				"/>
				<polygon class="st12" points="870.5,128.7 902.2,186 902.2,95.3 				"/>
				<polygon class="st12" points="810.3,247 861.1,223.3 808.4,171.4 				"/>
				<polygon class="st12" points="861.1,223.3 870.5,128.7 808.4,171.4 				"/>
				<polygon class="st12" points="808.4,171.4 870.5,128.7 819.7,133 				"/>
				<polygon class="st12" points="819.7,133 870.5,128.7 854.1,95.3 				"/>
				<polygon class="st12" points="854.1,95.3 870.5,128.7 902.2,95.3 				"/>
				<polygon class="st12" points="779,95.3 819.7,133 854.1,95.3 				"/>
				<polygon class="st12" points="699,176.7 746.9,242.2 761,173.3 				"/>
				<polygon class="st12" points="746.9,242.2 810.3,247 761,173.3 				"/>
				<polygon class="st12" points="761,173.3 819.7,133 779,95.3 				"/>
				<polygon class="st12" points="808.4,171.4 810.3,247 761,173.3 				"/>
				<polygon class="st12" points="808.4,171.4 819.7,133 761,173.3 				"/>
				<polygon class="st12" points="597.9,95.3 653.4,123.3 672,95.3 				"/>
				<polygon class="st12" points="672,95.3 653.4,123.3 710.2,131.1 				"/>
				<polygon class="st12" points="653.4,123.3 699,176.7 710.2,131.1 				"/>
				<polygon class="st12" points="672,95.3 710.2,131.1 779,95.3 				"/>
				<polygon class="st12" points="699,176.7 761,173.3 710.2,131.1 				"/>
				<polygon class="st12" points="710.2,131.1 761,173.3 779,95.3 				"/>
				<polygon class="st12" points="623.3,184.9 649.2,251.9 659,211.6 				"/>
				<polygon class="st12" points="623.3,184.9 699,176.7 659,211.6 				"/>
				<polygon class="st12" points="649.2,251.9 659.5,213.1 659,211.6 				"/>
				<polygon class="st12" points="659.5,213.1 699,176.7 659,211.6 				"/>
			</g>
		</g>
	</g>
	<rect x="398.2" y="253.9" class="st13" width="59" height="29"/>
	<rect x="614.3" y="254.9" class="st13" width="59" height="28"/>

		<rect x="451.4" y="238.5" transform="matrix(0.9179 -0.3968 0.3968 0.9179 -56.2547 214.6925)" class="st13" width="78.6" height="9.6"/>

		<rect x="575.4" y="204" transform="matrix(0.3968 -0.9179 0.9179 0.3968 126.6407 679.2947)" class="st13" width="9.6" height="78.6"/>
	<rect x="161.3" y="219.9" class="st13" width="15" height="63"/>
	<rect x="891.8" y="219.9" class="st13" width="15" height="63"/>
	<g class="st1">
		<defs>

				<rect id="SVGID_18_" x="233" y="379.6" transform="matrix(0.5 -0.866 0.866 0.5 -224.2011 478.5595)" width="138.8" height="107.6"/>
		</defs>
		<clipPath id="SVGID_19_">
			<use xlink:href="#SVGID_18_"  style="overflow:visible;"/>
		</clipPath>
		<path class="st14" d="M337,373.3c0,0-31.8,18.8-53.7,56.5c-23.7,41.1-25.7,57.9-15.7,63.6c10,5.7,23.5-4.3,47.2-45.4
			C336.7,410.3,337,373.3,337,373.3"/>
		<path class="st15" d="M331.9,382.2c0,0-27.3,17.1-46.5,50.4c-21,36.3-23,51-14.7,55.7c8.3,4.8,19.9-4.3,40.9-40.6
			C330.8,414.3,331.9,382.2,331.9,382.2"/>
		<path class="st16" d="M326.9,390.9c0,0-26.3,15.3-44.2,46.3c-19.5,33.7-21,47.5-12.7,52.3c8.3,4.8,19.5-3.5,38.9-37.2
			C326.9,421.3,326.9,390.9,326.9,390.9"/>
		<g class="st17">
			<g>
				<defs>
					<rect id="SVGID_20_" x="291.4" y="411.1" width="28.4" height="33.6"/>
				</defs>
				<clipPath id="SVGID_21_">
					<use xlink:href="#SVGID_20_"  style="overflow:visible;"/>
				</clipPath>
				<g class="st18">
					<defs>

							<rect id="SVGID_22_" x="290.7" y="420.1" transform="matrix(0.5 -0.866 0.866 0.5 -217.8198 478.5476)" width="29.8" height="15.6"/>
					</defs>
					<clipPath id="SVGID_23_">
						<use xlink:href="#SVGID_22_"  style="overflow:visible;"/>
					</clipPath>
					<path class="st19" d="M313,415c-3.7-2.2-8.5-0.9-10.3,2.3l-7.7,13.4c-1.9,3.2-0.5,7.9,3.2,10.1c3.7,2.2,8.5,0.9,10.3-2.3
						l7.7-13.4C318,421.9,316.7,417.2,313,415 M306.5,437.4c-1.3,2.3-4.5,2.9-7.2,1.4c-2.6-1.5-3.7-4.6-2.4-6.9l7.7-13.4
						c1.3-2.3,4.5-2.9,7.2-1.4c2.6,1.5,3.7,4.6,2.4,6.9L306.5,437.4z"/>
				</g>
			</g>
		</g>
		<g class="st17">
			<g>
				<defs>
					<rect id="SVGID_24_" x="270.3" y="458" width="21.2" height="25.1"/>
				</defs>
				<clipPath id="SVGID_25_">
					<use xlink:href="#SVGID_24_"  style="overflow:visible;"/>
				</clipPath>
				<g class="st20">
					<defs>

							<rect id="SVGID_26_" x="269.8" y="464.8" transform="matrix(0.5001 -0.866 0.866 0.5001 -267.0816 478.5189)" width="22.3" height="11.7"/>
					</defs>
					<clipPath id="SVGID_27_">
						<use xlink:href="#SVGID_26_"  style="overflow:visible;"/>
					</clipPath>
					<path class="st21" d="M286.5,460.9c-2.8-1.6-6.3-0.7-7.7,1.7l-5.8,10c-1.4,2.4-0.4,5.9,2.4,7.5c2.8,1.6,6.3,0.7,7.7-1.7l5.8-10
						C290.2,466.1,289.3,462.6,286.5,460.9 M281.6,477.7c-1,1.7-3.4,2.2-5.4,1c-2-1.1-2.8-3.5-1.8-5.2l5.8-10c1-1.7,3.4-2.2,5.4-1
						c2,1.1,2.8,3.5,1.8,5.2L281.6,477.7z"/>
				</g>
			</g>
		</g>
		<g class="st17">
			<g>
				<defs>
					<rect id="SVGID_28_" x="314.2" y="403.8" width="6.7" height="6.7"/>
				</defs>
				<clipPath id="SVGID_29_">
					<use xlink:href="#SVGID_28_"  style="overflow:visible;"/>
				</clipPath>
				<g class="st22">
					<defs>

							<rect id="SVGID_30_" x="315.1" y="404.7" transform="matrix(0.4999 -0.8661 0.8661 0.4999 -193.8721 478.5999)" width="4.9" height="4.9"/>
					</defs>
					<clipPath id="SVGID_31_">
						<use xlink:href="#SVGID_30_"  style="overflow:visible;"/>
					</clipPath>
					<path class="st23" d="M319.6,408.4c-0.7,1.2-2.2,1.6-3.3,0.9c-1.2-0.7-1.6-2.2-0.9-3.3c0.7-1.2,2.2-1.6,3.3-0.9
						C319.9,405.7,320.3,407.2,319.6,408.4"/>
				</g>
			</g>
		</g>
		<g class="st17">
			<g>
				<defs>
					<rect id="SVGID_32_" x="318.5" y="399.4" width="4.5" height="4.5"/>
				</defs>
				<clipPath id="SVGID_33_">
					<use xlink:href="#SVGID_32_"  style="overflow:visible;"/>
				</clipPath>
				<g class="st24">
					<defs>

							<rect id="SVGID_34_" x="319.1" y="400" transform="matrix(0.4999 -0.8661 0.8661 0.4999 -187.4589 478.6432)" width="3.3" height="3.3"/>
					</defs>
					<clipPath id="SVGID_35_">
						<use xlink:href="#SVGID_34_"  style="overflow:visible;"/>
					</clipPath>
					<path class="st25" d="M322.1,402.5c-0.5,0.8-1.4,1-2.2,0.6c-0.8-0.5-1-1.4-0.6-2.2c0.5-0.8,1.4-1,2.2-0.6
						C322.3,400.7,322.6,401.7,322.1,402.5"/>
				</g>
			</g>
		</g>
		<g class="st26">
			<g>
				<defs>
					<rect id="SVGID_36_" x="251.9" y="364.2" width="85.2" height="129.3"/>
				</defs>
				<clipPath id="SVGID_37_">
					<use xlink:href="#SVGID_36_"  style="overflow:visible;"/>
				</clipPath>
				<g class="st27">
					<defs>

							<rect id="SVGID_38_" x="225.1" y="419.8" transform="matrix(0.5 -0.866 0.866 0.5 -224.2005 469.4629)" width="138.8" height="18.2"/>
					</defs>
					<clipPath id="SVGID_39_">
						<use xlink:href="#SVGID_38_"  style="overflow:visible;"/>
					</clipPath>
					<path class="st28" d="M337,373.3c0,0-31.8,18.8-53.7,56.5c-23.7,41.1-25.7,57.9-15.7,63.6L337,373.3z"/>
				</g>
			</g>
		</g>
		<path class="st15" d="M296.3,468.5c-2.7,4.7-10,6.3-15.9,2.9c-5.9-3.4-8.1-10.5-5.4-15.2l11.3-19.7c2.7-4.7,10-6.3,15.9-2.9
			c5.9,3.4,8.1,10.5,5.4,15.2L296.3,468.5z"/>
		<g class="st26">
			<g>
				<defs>
					<rect id="SVGID_40_" x="280.5" y="433.6" width="32.4" height="43.9"/>
				</defs>
				<clipPath id="SVGID_41_">
					<use xlink:href="#SVGID_40_"  style="overflow:visible;"/>
				</clipPath>
				<g class="st29">
					<defs>

							<rect id="SVGID_42_" x="274.9" y="449.4" transform="matrix(0.5 -0.866 0.866 0.5 -246.1825 484.7054)" width="43.6" height="12.3"/>
					</defs>
					<clipPath id="SVGID_43_">
						<use xlink:href="#SVGID_42_"  style="overflow:visible;"/>
					</clipPath>
					<path class="st30" d="M302.3,433.6l-21.8,37.8c5.9,3.4,13.2,1.8,15.9-2.9l11.4-19.7C310.4,444.1,308.1,437,302.3,433.6"/>
				</g>
			</g>
		</g>
		<path class="st31" d="M300.5,436.6c-4.2-2.4-9.1-1.7-11.1,1.7l-11.3,19.7c-1.9,3.3-0.1,8,4.1,10.4c4.2,2.4,9.1,1.7,11.1-1.7
			l11.4-19.7C306.5,443.7,304.7,439,300.5,436.6"/>
		<path class="st32" d="M289.7,455.4c-2.7-1.5-5.8-2-8.6-2.6l-3,5.2c-1.9,3.3-0.1,8,4.1,10.4c4.2,2.4,9.1,1.7,11.1-1.7l3-5.2
			C294.3,459.4,292.3,456.9,289.7,455.4"/>
		<path class="st14" d="M272.8,420.8l-10-9.6c-2.5-2.4-6.5-2.3-8.9,0.2c-2.4,2.5-2.3,6.5,0.2,8.9l10,9.6c2.5,2.4,6.5,2.3,8.9-0.2
			C275.4,427.2,275.3,423.2,272.8,420.8"/>
		<g class="st17">
			<g>
				<defs>
					<rect id="SVGID_44_" x="251.6" y="410.3" width="24.9" height="21.9"/>
				</defs>
				<clipPath id="SVGID_45_">
					<use xlink:href="#SVGID_44_"  style="overflow:visible;"/>
				</clipPath>
				<g class="st33">
					<defs>

							<rect id="SVGID_46_" x="257.6" y="410.6" transform="matrix(0.5 -0.866 0.866 0.5 -232.7348 439.3148)" width="13" height="21.3"/>
					</defs>
					<clipPath id="SVGID_47_">
						<use xlink:href="#SVGID_46_"  style="overflow:visible;"/>
					</clipPath>
					<path class="st34" d="M271.7,421.4l-8.2-7.9c-2-2-5.3-1.9-7.3,0.2c-2,2-1.9,5.3,0.2,7.3l8.2,7.9c2,2,5.3,1.9,7.3-0.2
						C273.9,426.6,273.8,423.4,271.7,421.4"/>
				</g>
			</g>
		</g>
		<g class="st26">
			<g>
				<defs>
					<rect id="SVGID_48_" x="250.7" y="407.3" width="27.9" height="22.5"/>
				</defs>
				<clipPath id="SVGID_49_">
					<use xlink:href="#SVGID_48_"  style="overflow:visible;"/>
				</clipPath>
				<g class="st35">
					<defs>

							<rect id="SVGID_50_" x="259.2" y="405.6" transform="matrix(0.5 -0.866 0.866 0.5 -230.1232 438.5009)" width="11.1" height="25.8"/>
					</defs>
					<clipPath id="SVGID_51_">
						<use xlink:href="#SVGID_50_"  style="overflow:visible;"/>
					</clipPath>
					<path class="st36" d="M272.8,420.8l-10-9.6c-2.5-2.4-6.5-2.3-8.9,0.2l19.1,18.3C275.4,427.2,275.3,423.2,272.8,420.8"/>
				</g>
			</g>
		</g>
		<path class="st14" d="M322.4,468.5l10,9.6c2.5,2.4,2.6,6.4,0.2,8.9c-2.4,2.5-6.4,2.6-8.9,0.2l-10-9.6c-2.5-2.4-2.6-6.4-0.2-8.9
			C316,466.1,319.9,466.1,322.4,468.5"/>
		<g class="st17">
			<g>
				<defs>
					<rect id="SVGID_52_" x="310" y="466.2" width="24.9" height="21.9"/>
				</defs>
				<clipPath id="SVGID_53_">
					<use xlink:href="#SVGID_52_"  style="overflow:visible;"/>
				</clipPath>
				<g class="st37">
					<defs>

							<rect id="SVGID_54_" x="316" y="466.5" transform="matrix(0.5 -0.866 0.866 0.5 -251.9954 517.8058)" width="13" height="21.3"/>
					</defs>
					<clipPath id="SVGID_55_">
						<use xlink:href="#SVGID_54_"  style="overflow:visible;"/>
					</clipPath>
					<path class="st38" d="M321.9,469.5l8.2,7.9c2,2,2.1,5.2,0.2,7.3c-2,2-5.2,2.1-7.3,0.2l-8.2-7.9c-2-2-2.1-5.2-0.2-7.3
						C316.6,467.6,319.9,467.5,321.9,469.5"/>
				</g>
			</g>
		</g>
		<g class="st26">
			<g>
				<defs>
					<rect id="SVGID_56_" x="310.4" y="464.5" width="27.9" height="22.5"/>
				</defs>
				<clipPath id="SVGID_57_">
					<use xlink:href="#SVGID_56_"  style="overflow:visible;"/>
				</clipPath>
				<g class="st39">
					<defs>

							<rect id="SVGID_58_" x="318.9" y="462.8" transform="matrix(0.5 -0.866 0.866 0.5 -249.8236 518.8082)" width="11.1" height="25.8"/>
					</defs>
					<clipPath id="SVGID_59_">
						<use xlink:href="#SVGID_58_"  style="overflow:visible;"/>
					</clipPath>
					<path class="st40" d="M322.4,468.5l10,9.6c2.5,2.4,2.6,6.4,0.2,8.9l-19.1-18.3C316,466.1,319.9,466.1,322.4,468.5"/>
				</g>
			</g>
		</g>
		<path class="st41" d="M318.2,473.1c-0.5,0.5-1.3,0.5-1.8,0L268.3,427c-0.5-0.5-0.5-1.3,0-1.8c0.5-0.5,1.3-0.5,1.8,0l48.1,46.1
			C318.7,471.8,318.7,472.6,318.2,473.1"/>
		<g class="st42">
			<g>
				<defs>
					<rect id="SVGID_60_" x="259.6" y="425.2" width="66.9" height="48.7"/>
				</defs>
				<clipPath id="SVGID_61_">
					<use xlink:href="#SVGID_60_"  style="overflow:visible;"/>
				</clipPath>
				<g class="st43">
					<defs>

							<rect id="SVGID_62_" x="284.3" y="416" transform="matrix(0.5 -0.866 0.866 0.5 -242.8421 478.5438)" width="17.4" height="67.2"/>
					</defs>
					<clipPath id="SVGID_63_">
						<use xlink:href="#SVGID_62_"  style="overflow:visible;"/>
					</clipPath>
					<path class="st44" d="M268.3,427l48.1,46.1c0.5,0.5,1.3,0.5,1.8,0l-49.9-47.9C267.8,425.7,267.8,426.5,268.3,427"/>
				</g>
			</g>
		</g>
	</g>
	<g class="st1">
		<defs>

				<rect id="SVGID_64_" x="732.7" y="362.8" transform="matrix(0.866 -0.5 0.5 0.866 -114.7239 456.4102)" width="123.2" height="158.9"/>
		</defs>
		<clipPath id="SVGID_65_">
			<use xlink:href="#SVGID_64_"  style="overflow:visible;"/>
		</clipPath>
		<path class="st45" d="M754.6,373.5c0,0,36.5,21.5,61.4,64.7c27.2,47.1,29.4,66.3,18,72.9c-11.4,6.6-26.9-5-54.1-52
			C755,415.8,754.6,373.5,754.6,373.5"/>
		<path class="st46" d="M760.4,383.6c0,0,31.2,19.5,53.3,57.7c24,41.6,26.3,58.3,16.9,63.8c-9.4,5.5-22.8-5-46.8-46.5
			C761.7,420.4,760.4,383.6,760.4,383.6"/>
		<path class="st47" d="M766.2,393.5c0,0,30.1,17.5,50.6,53c22.3,38.6,24,54.4,14.6,59.9c-9.5,5.5-22.3-4-44.6-42.6
			C766.3,428.4,766.2,393.5,766.2,393.5"/>
		<g class="st48">
			<g>
				<defs>
					<rect id="SVGID_66_" x="774.4" y="416.7" width="32.5" height="38.4"/>
				</defs>
				<clipPath id="SVGID_67_">
					<use xlink:href="#SVGID_66_"  style="overflow:visible;"/>
				</clipPath>
				<g class="st49">
					<defs>

							<rect id="SVGID_68_" x="781.7" y="418.9" transform="matrix(0.866 -0.5 0.5 0.866 -112.0491 453.7508)" width="17.8" height="34.1"/>
					</defs>
					<clipPath id="SVGID_69_">
						<use xlink:href="#SVGID_68_"  style="overflow:visible;"/>
					</clipPath>
					<path class="st50" d="M782.1,421.2c4.3-2.5,9.7-1.1,11.8,2.6l8.9,15.4c2.1,3.7,0.6,9.1-3.6,11.5c-4.3,2.5-9.7,1.1-11.8-2.6
						l-8.9-15.4C776.4,429.1,777.9,423.7,782.1,421.2 M789.6,446.8c1.5,2.6,5.2,3.3,8.2,1.6s4.3-5.3,2.8-7.9l-8.9-15.4
						c-1.5-2.6-5.2-3.3-8.2-1.6c-3,1.8-4.3,5.3-2.8,7.9L789.6,446.8z"/>
				</g>
			</g>
		</g>
		<g class="st48">
			<g>
				<defs>
					<rect id="SVGID_70_" x="806.7" y="470.4" width="24.3" height="28.7"/>
				</defs>
				<clipPath id="SVGID_71_">
					<use xlink:href="#SVGID_70_"  style="overflow:visible;"/>
				</clipPath>
				<g class="st51">
					<defs>

							<rect id="SVGID_72_" x="812.2" y="472.1" transform="matrix(0.866 -0.5 0.5 0.866 -132.6914 474.3524)" width="13.3" height="25.5"/>
					</defs>
					<clipPath id="SVGID_73_">
						<use xlink:href="#SVGID_72_"  style="overflow:visible;"/>
					</clipPath>
					<path class="st52" d="M812.5,473.8c3.2-1.8,7.2-0.8,8.8,2l6.6,11.5c1.6,2.7,0.5,6.8-2.7,8.6c-3.2,1.8-7.2,0.8-8.8-2l-6.6-11.5
						C808.2,479.6,809.3,475.6,812.5,473.8 M818.1,492.9c1.1,2,3.9,2.5,6.2,1.2c2.3-1.3,3.2-4,2.1-5.9l-6.6-11.5
						c-1.1-2-3.9-2.5-6.2-1.2c-2.3,1.3-3.2,4-2.1,5.9L818.1,492.9z"/>
				</g>
			</g>
		</g>
		<g class="st48">
			<g>
				<defs>
					<rect id="SVGID_74_" x="773.1" y="408.4" width="7.7" height="7.7"/>
				</defs>
				<clipPath id="SVGID_75_">
					<use xlink:href="#SVGID_74_"  style="overflow:visible;"/>
				</clipPath>
				<g class="st53">
					<defs>

							<rect id="SVGID_76_" x="774.1" y="409.4" transform="matrix(0.866 -0.5 0.5 0.866 -102.0167 443.7167)" width="5.6" height="5.6"/>
					</defs>
					<clipPath id="SVGID_77_">
						<use xlink:href="#SVGID_76_"  style="overflow:visible;"/>
					</clipPath>
					<path class="st54" d="M774.5,413.6c0.8,1.3,2.5,1.8,3.8,1c1.3-0.8,1.8-2.5,1-3.8c-0.8-1.3-2.5-1.8-3.8-1
						C774.2,410.6,773.8,412.3,774.5,413.6"/>
				</g>
			</g>
		</g>
		<g class="st48">
			<g>
				<defs>
					<rect id="SVGID_78_" x="770.7" y="403.3" width="5.1" height="5.1"/>
				</defs>
				<clipPath id="SVGID_79_">
					<use xlink:href="#SVGID_78_"  style="overflow:visible;"/>
				</clipPath>
				<g class="st55">
					<defs>

							<rect id="SVGID_80_" x="771.4" y="404" transform="matrix(0.866 -0.5 0.5 0.866 -99.3314 441.0667)" width="3.7" height="3.7"/>
					</defs>
					<clipPath id="SVGID_81_">
						<use xlink:href="#SVGID_80_"  style="overflow:visible;"/>
					</clipPath>
					<path class="st56" d="M771.7,406.8c0.5,0.9,1.7,1.2,2.6,0.7c0.9-0.5,1.2-1.7,0.7-2.6c-0.5-0.9-1.7-1.2-2.6-0.7
						C771.5,404.8,771.2,405.9,771.7,406.8"/>
				</g>
			</g>
		</g>
		<g class="st57">
			<g>
				<defs>
					<rect id="SVGID_82_" x="754.6" y="363.1" width="97.5" height="148"/>
				</defs>
				<clipPath id="SVGID_83_">
					<use xlink:href="#SVGID_82_"  style="overflow:visible;"/>
				</clipPath>
				<g class="st58">
					<defs>

							<rect id="SVGID_84_" x="792.9" y="357.6" transform="matrix(0.866 -0.5 0.5 0.866 -110.9119 460.2058)" width="20.8" height="158.9"/>
					</defs>
					<clipPath id="SVGID_85_">
						<use xlink:href="#SVGID_84_"  style="overflow:visible;"/>
					</clipPath>
					<path class="st59" d="M754.6,373.5c0,0,36.5,21.5,61.4,64.7c27.2,47.1,29.4,66.3,18,72.9L754.6,373.5z"/>
				</g>
			</g>
		</g>
		<path class="st46" d="M801.2,482.4c3.1,5.4,11.4,7.2,18.2,3.3c6.7-3.9,9.3-12,6.2-17.4l-13-22.5c-3.1-5.4-11.4-7.2-18.2-3.3
			c-6.7,3.9-9.3,12-6.2,17.4L801.2,482.4z"/>
		<g class="st57">
			<g>
				<defs>
					<rect id="SVGID_86_" x="782.2" y="442.5" width="37.1" height="50.3"/>
				</defs>
				<clipPath id="SVGID_87_">
					<use xlink:href="#SVGID_86_"  style="overflow:visible;"/>
				</clipPath>
				<g class="st60">
					<defs>

							<rect id="SVGID_88_" x="793.8" y="442.6" transform="matrix(0.866 -0.5 0.5 0.866 -126.5104 463.0684)" width="14.1" height="49.9"/>
					</defs>
					<clipPath id="SVGID_89_">
						<use xlink:href="#SVGID_88_"  style="overflow:visible;"/>
					</clipPath>
					<path class="st61" d="M794.4,442.5l25,43.2c-6.7,3.9-15.1,2.1-18.2-3.3l-13-22.5C785.1,454.5,787.7,446.4,794.4,442.5"/>
				</g>
			</g>
		</g>
		<path class="st62" d="M796.4,445.9c4.8-2.8,10.5-1.9,12.7,1.9l13,22.5c2.2,3.8,0.1,9.2-4.7,11.9c-4.8,2.8-10.5,1.9-12.7-1.9
			l-13-22.5C789.5,454,791.6,448.7,796.4,445.9"/>
		<path class="st63" d="M808.8,467.4c3.1-1.8,6.6-2.3,9.8-3l3.4,5.9c2.2,3.8,0.1,9.2-4.7,11.9c-4.8,2.8-10.5,1.9-12.7-1.9l-3.4-5.9
			C803.5,472,805.8,469.2,808.8,467.4"/>
		<path class="st45" d="M828.2,427.8l11.5-11c2.9-2.7,7.4-2.6,10.2,0.2c2.7,2.9,2.6,7.4-0.2,10.2l-11.5,11
			c-2.9,2.7-7.4,2.6-10.2-0.2C825.2,435.1,825.3,430.6,828.2,427.8"/>
		<g class="st48">
			<g>
				<defs>
					<rect id="SVGID_90_" x="823.8" y="415.7" width="28.5" height="25.1"/>
				</defs>
				<clipPath id="SVGID_91_">
					<use xlink:href="#SVGID_90_"  style="overflow:visible;"/>
				</clipPath>
				<g class="st64">
					<defs>

							<rect id="SVGID_92_" x="825.9" y="420.8" transform="matrix(0.866 -0.5 0.5 0.866 -101.8496 476.4518)" width="24.4" height="14.9"/>
					</defs>
					<clipPath id="SVGID_93_">
						<use xlink:href="#SVGID_92_"  style="overflow:visible;"/>
					</clipPath>
					<path class="st65" d="M829.4,428.5l9.4-9c2.3-2.2,6.1-2.2,8.3,0.2c2.2,2.3,2.2,6.1-0.2,8.3l-9.4,9c-2.3,2.2-6.1,2.2-8.3-0.2
						C826.9,434.5,827,430.8,829.4,428.5"/>
				</g>
			</g>
		</g>
		<g class="st57">
			<g>
				<defs>
					<rect id="SVGID_94_" x="821.4" y="412.3" width="32" height="25.8"/>
				</defs>
				<clipPath id="SVGID_95_">
					<use xlink:href="#SVGID_94_"  style="overflow:visible;"/>
				</clipPath>
				<g class="st66">
					<defs>

							<rect id="SVGID_96_" x="822.6" y="418.9" transform="matrix(0.866 -0.5 0.5 0.866 -100.4179 475.684)" width="29.6" height="12.7"/>
					</defs>
					<clipPath id="SVGID_97_">
						<use xlink:href="#SVGID_96_"  style="overflow:visible;"/>
					</clipPath>
					<path class="st67" d="M828.2,427.8l11.5-11c2.9-2.7,7.4-2.6,10.2,0.2L828,438C825.2,435.1,825.3,430.6,828.2,427.8"/>
				</g>
			</g>
		</g>
		<path class="st45" d="M771.3,482.4l-11.5,11c-2.9,2.7-3,7.3-0.2,10.2c2.7,2.9,7.3,3,10.2,0.2l11.5-11c2.9-2.7,3-7.3,0.2-10.2
			C778.7,479.7,774.2,479.6,771.3,482.4"/>
		<g class="st48">
			<g>
				<defs>
					<rect id="SVGID_98_" x="757" y="479.8" width="28.5" height="25.1"/>
				</defs>
				<clipPath id="SVGID_99_">
					<use xlink:href="#SVGID_98_"  style="overflow:visible;"/>
				</clipPath>
				<g class="st68">
					<defs>

							<rect id="SVGID_100_" x="759.1" y="484.9" transform="matrix(0.866 -0.5 0.5 0.866 -142.8204 451.6223)" width="24.4" height="14.9"/>
					</defs>
					<clipPath id="SVGID_101_">
						<use xlink:href="#SVGID_100_"  style="overflow:visible;"/>
					</clipPath>
					<path class="st69" d="M771.9,483.6l-9.4,9c-2.3,2.2-2.4,6-0.2,8.3c2.2,2.3,6,2.4,8.3,0.2l9.4-9c2.3-2.2,2.4-6,0.2-8.3
						S774.3,481.3,771.9,483.6"/>
				</g>
			</g>
		</g>
		<g class="st57">
			<g>
				<defs>
					<rect id="SVGID_102_" x="753.1" y="477.8" width="32" height="25.8"/>
				</defs>
				<clipPath id="SVGID_103_">
					<use xlink:href="#SVGID_102_"  style="overflow:visible;"/>
				</clipPath>
				<g class="st70">
					<defs>

							<rect id="SVGID_104_" x="754.3" y="484.4" transform="matrix(0.866 -0.5 0.5 0.866 -142.3244 450.288)" width="29.6" height="12.7"/>
					</defs>
					<clipPath id="SVGID_105_">
						<use xlink:href="#SVGID_104_"  style="overflow:visible;"/>
					</clipPath>
					<path class="st71" d="M771.3,482.4l-11.5,11c-2.9,2.7-3,7.3-0.2,10.2l21.8-20.9C778.7,479.7,774.2,479.6,771.3,482.4"/>
				</g>
			</g>
		</g>
		<path class="st72" d="M776.1,487.7c0.5,0.6,1.5,0.6,2,0l55.1-52.8c0.6-0.5,0.6-1.5,0-2c-0.5-0.6-1.5-0.6-2,0l-55.1,52.8
			C775.6,486.2,775.6,487.1,776.1,487.7"/>
		<g class="st73">
			<g>
				<defs>
					<rect id="SVGID_106_" x="766.7" y="432.9" width="76.6" height="55.7"/>
				</defs>
				<clipPath id="SVGID_107_">
					<use xlink:href="#SVGID_106_"  style="overflow:visible;"/>
				</clipPath>
				<g class="st74">
					<defs>

							<rect id="SVGID_108_" x="766.5" y="450.8" transform="matrix(0.866 -0.5 0.5 0.866 -122.5272 464.2367)" width="76.9" height="20"/>
					</defs>
					<clipPath id="SVGID_109_">
						<use xlink:href="#SVGID_108_"  style="overflow:visible;"/>
					</clipPath>
					<path class="st75" d="M833.2,434.9l-55.1,52.8c-0.6,0.5-1.5,0.5-2,0l57.2-54.8C833.8,433.5,833.8,434.4,833.2,434.9"/>
				</g>
			</g>
		</g>
	</g>
	<g class="st1">
		<defs>

				<rect id="SVGID_110_" x="451.1" y="297.8" transform="matrix(0.5 -0.866 0.866 0.5 -39.9844 595.1432)" width="88.6" height="68.7"/>
		</defs>
		<clipPath id="SVGID_111_">
			<use xlink:href="#SVGID_110_"  style="overflow:visible;"/>
		</clipPath>
		<path class="st76" d="M517.6,293.8c0,0-20.3,12-34.3,36.1c-15.2,26.3-16.4,37-10,40.6c6.4,3.7,15-2.8,30.2-29
			C517.4,317.4,517.6,293.8,517.6,293.8"/>
		<path class="st77" d="M514.3,299.5c0,0-17.4,10.9-29.7,32.2c-13.4,23.2-14.7,32.5-9.4,35.6c5.3,3,12.7-2.8,26.1-26
			C513.6,320,514.3,299.5,514.3,299.5"/>
		<path class="st78" d="M511.1,305c0,0-16.8,9.8-28.2,29.6c-12.4,21.5-13.4,30.4-8.1,33.4c5.3,3.1,12.4-2.2,24.9-23.7
			C511.1,324.4,511.1,305,511.1,305"/>
		<g class="st79">
			<g>
				<defs>
					<rect id="SVGID_112_" x="488.4" y="318" width="18.1" height="21.4"/>
				</defs>
				<clipPath id="SVGID_113_">
					<use xlink:href="#SVGID_112_"  style="overflow:visible;"/>
				</clipPath>
				<g class="st80">
					<defs>

							<rect id="SVGID_114_" x="488" y="323.7" transform="matrix(0.5 -0.866 0.866 0.5 -35.9046 595.1496)" width="19" height="9.9"/>
					</defs>
					<clipPath id="SVGID_115_">
						<use xlink:href="#SVGID_114_"  style="overflow:visible;"/>
					</clipPath>
					<path class="st81" d="M502.2,320.4c-2.4-1.4-5.4-0.6-6.6,1.5l-4.9,8.6c-1.2,2-0.3,5.1,2,6.4c2.4,1.4,5.4,0.6,6.6-1.5l4.9-8.6
						C505.4,324.8,504.6,321.8,502.2,320.4 M498.1,334.7c-0.8,1.5-2.9,1.8-4.6,0.9c-1.7-1-2.4-3-1.5-4.4l4.9-8.6
						c0.8-1.5,2.9-1.8,4.6-0.9c1.7,1,2.4,3,1.5,4.4L498.1,334.7z"/>
				</g>
			</g>
		</g>
		<g class="st79">
			<g>
				<defs>
					<rect id="SVGID_116_" x="475" y="347.9" width="13.6" height="16"/>
				</defs>
				<clipPath id="SVGID_117_">
					<use xlink:href="#SVGID_116_"  style="overflow:visible;"/>
				</clipPath>
				<g class="st82">
					<defs>

							<rect id="SVGID_118_" x="474.6" y="352.2" transform="matrix(0.5 -0.8661 0.8661 0.5 -67.357 595.1767)" width="14.2" height="7.4"/>
					</defs>
					<clipPath id="SVGID_119_">
						<use xlink:href="#SVGID_118_"  style="overflow:visible;"/>
					</clipPath>
					<path class="st83" d="M485.3,349.8c-1.8-1-4-0.4-4.9,1.1l-3.7,6.4c-0.9,1.5-0.3,3.8,1.5,4.8c1.8,1,4,0.4,4.9-1.1l3.7-6.4
						C487.7,353,487.1,350.8,485.3,349.8 M482.2,360.4c-0.6,1.1-2.2,1.4-3.4,0.6c-1.3-0.7-1.8-2.2-1.2-3.3l3.7-6.4
						c0.6-1.1,2.2-1.4,3.4-0.6c1.3,0.7,1.8,2.2,1.2,3.3L482.2,360.4z"/>
				</g>
			</g>
		</g>
		<g class="st79">
			<g>
				<defs>
					<rect id="SVGID_120_" x="503" y="313.3" width="4.3" height="4.3"/>
				</defs>
				<clipPath id="SVGID_121_">
					<use xlink:href="#SVGID_120_"  style="overflow:visible;"/>
				</clipPath>
				<g class="st84">
					<defs>

							<rect id="SVGID_122_" x="503.5" y="313.9" transform="matrix(0.5 -0.866 0.866 0.5 -20.6215 595.1333)" width="3.1" height="3.1"/>
					</defs>
					<clipPath id="SVGID_123_">
						<use xlink:href="#SVGID_122_"  style="overflow:visible;"/>
					</clipPath>
					<path class="st85" d="M506.5,316.2c-0.4,0.7-1.4,1-2.1,0.6c-0.7-0.4-1-1.4-0.6-2.1c0.4-0.7,1.4-1,2.1-0.6
						C506.6,314.5,506.9,315.5,506.5,316.2"/>
				</g>
			</g>
		</g>
		<g class="st79">
			<g>
				<defs>
					<rect id="SVGID_124_" x="505.7" y="310.5" width="2.8" height="2.8"/>
				</defs>
				<clipPath id="SVGID_125_">
					<use xlink:href="#SVGID_124_"  style="overflow:visible;"/>
				</clipPath>
				<g class="st86">
					<defs>

							<rect id="SVGID_126_" x="506.1" y="310.8" transform="matrix(0.5003 -0.8658 0.8658 0.5003 -16.6267 594.9555)" width="2.1" height="2.1"/>
					</defs>
					<clipPath id="SVGID_127_">
						<use xlink:href="#SVGID_126_"  style="overflow:visible;"/>
					</clipPath>
					<path class="st87" d="M508.1,312.4c-0.3,0.5-0.9,0.7-1.4,0.4c-0.5-0.3-0.7-0.9-0.4-1.4s0.9-0.7,1.4-0.4
						C508.2,311.3,508.3,311.9,508.1,312.4"/>
				</g>
			</g>
		</g>
		<g class="st88">
			<g>
				<defs>
					<rect id="SVGID_128_" x="463.2" y="288" width="54.4" height="82.6"/>
				</defs>
				<clipPath id="SVGID_129_">
					<use xlink:href="#SVGID_128_"  style="overflow:visible;"/>
				</clipPath>
				<g class="st89">
					<defs>

							<rect id="SVGID_130_" x="446.1" y="323.5" transform="matrix(0.5 -0.866 0.866 0.5 -39.9918 589.316)" width="88.6" height="11.6"/>
					</defs>
					<clipPath id="SVGID_131_">
						<use xlink:href="#SVGID_130_"  style="overflow:visible;"/>
					</clipPath>
					<path class="st90" d="M517.6,293.8c0,0-20.3,12-34.3,36.1c-15.2,26.3-16.4,37-10,40.6L517.6,293.8z"/>
				</g>
			</g>
		</g>
		<path class="st77" d="M491.6,354.6c-1.7,3-6.4,4-10.1,1.9s-5.2-6.7-3.5-9.7l7.2-12.6c1.7-3,6.4-4,10.1-1.9
			c3.8,2.2,5.2,6.7,3.5,9.7L491.6,354.6z"/>
		<g class="st88">
			<g>
				<defs>
					<rect id="SVGID_132_" x="481.4" y="332.3" width="20.7" height="28"/>
				</defs>
				<clipPath id="SVGID_133_">
					<use xlink:href="#SVGID_132_"  style="overflow:visible;"/>
				</clipPath>
				<g class="st91">
					<defs>

							<rect id="SVGID_134_" x="477.9" y="342.4" transform="matrix(0.5 -0.866 0.866 0.5 -54.0105 599.0984)" width="27.8" height="7.9"/>
					</defs>
					<clipPath id="SVGID_135_">
						<use xlink:href="#SVGID_134_"  style="overflow:visible;"/>
					</clipPath>
					<path class="st92" d="M495.4,332.3l-13.9,24.1c3.8,2.2,8.4,1.1,10.1-1.9l7.2-12.6C500.6,339,499.1,334.5,495.4,332.3"/>
				</g>
			</g>
		</g>
		<path class="st93" d="M494.3,334.2c-2.7-1.5-5.8-1.1-7.1,1.1l-7.2,12.6c-1.2,2.1-0.1,5.1,2.6,6.7c2.7,1.5,5.8,1.1,7.1-1.1
			l7.2-12.6C498.1,338.7,496.9,335.8,494.3,334.2"/>
		<path class="st94" d="M487.3,346.2c-1.7-1-3.7-1.3-5.5-1.7l-1.9,3.3c-1.2,2.1-0.1,5.1,2.6,6.7c2.7,1.5,5.8,1.1,7.1-1.1l1.9-3.3
			C490.3,348.8,489,347.2,487.3,346.2"/>
		<path class="st76" d="M476.5,324.1l-6.4-6.1c-1.6-1.5-4.1-1.5-5.7,0.1c-1.5,1.6-1.5,4.1,0.1,5.7l6.4,6.1c1.6,1.5,4.1,1.5,5.7-0.1
			C478.2,328.2,478.1,325.7,476.5,324.1"/>
		<g class="st79">
			<g>
				<defs>
					<rect id="SVGID_136_" x="463" y="317.4" width="15.9" height="14"/>
				</defs>
				<clipPath id="SVGID_137_">
					<use xlink:href="#SVGID_136_"  style="overflow:visible;"/>
				</clipPath>
				<g class="st95">
					<defs>

							<rect id="SVGID_138_" x="466.8" y="317.6" transform="matrix(0.5 -0.866 0.866 0.5 -45.4277 570.0857)" width="8.3" height="13.6"/>
					</defs>
					<clipPath id="SVGID_139_">
						<use xlink:href="#SVGID_138_"  style="overflow:visible;"/>
					</clipPath>
					<path class="st96" d="M475.9,324.5l-5.2-5c-1.3-1.3-3.4-1.2-4.6,0.1c-1.3,1.3-1.2,3.4,0.1,4.6l5.2,5c1.3,1.3,3.4,1.2,4.6-0.1
						C477.2,327.9,477.2,325.8,475.9,324.5"/>
				</g>
			</g>
		</g>
		<g class="st88">
			<g>
				<defs>
					<rect id="SVGID_140_" x="462.5" y="315.5" width="17.8" height="14.4"/>
				</defs>
				<clipPath id="SVGID_141_">
					<use xlink:href="#SVGID_140_"  style="overflow:visible;"/>
				</clipPath>
				<g class="st97">
					<defs>

							<rect id="SVGID_142_" x="467.8" y="314.4" transform="matrix(0.5 -0.8661 0.8661 0.5 -43.752 569.5861)" width="7.1" height="16.5"/>
					</defs>
					<clipPath id="SVGID_143_">
						<use xlink:href="#SVGID_142_"  style="overflow:visible;"/>
					</clipPath>
					<path class="st98" d="M476.5,324.1l-6.4-6.1c-1.6-1.5-4.1-1.5-5.7,0.1l12.2,11.7C478.2,328.2,478.1,325.7,476.5,324.1"/>
				</g>
			</g>
		</g>
		<path class="st76" d="M508.3,354.6l6.4,6.1c1.6,1.5,1.7,4.1,0.1,5.7c-1.5,1.6-4.1,1.7-5.7,0.1l-6.4-6.1c-1.6-1.5-1.7-4.1-0.1-5.7
			C504.1,353.1,506.7,353,508.3,354.6"/>
		<g class="st79">
			<g>
				<defs>
					<rect id="SVGID_144_" x="500.3" y="353.1" width="15.9" height="14"/>
				</defs>
				<clipPath id="SVGID_145_">
					<use xlink:href="#SVGID_144_"  style="overflow:visible;"/>
				</clipPath>
				<g class="st99">
					<defs>

							<rect id="SVGID_146_" x="504.1" y="353.3" transform="matrix(0.5 -0.866 0.866 0.5 -57.7281 620.2335)" width="8.3" height="13.6"/>
					</defs>
					<clipPath id="SVGID_147_">
						<use xlink:href="#SVGID_146_"  style="overflow:visible;"/>
					</clipPath>
					<path class="st100" d="M507.9,355.2l5.2,5c1.3,1.3,1.4,3.3,0.1,4.6c-1.3,1.3-3.3,1.4-4.6,0.1l-5.2-5c-1.3-1.3-1.4-3.3-0.1-4.6
						C504.5,354,506.6,354,507.9,355.2"/>
				</g>
			</g>
		</g>
		<g class="st88">
			<g>
				<defs>
					<rect id="SVGID_148_" x="500.6" y="352" width="17.8" height="14.4"/>
				</defs>
				<clipPath id="SVGID_149_">
					<use xlink:href="#SVGID_148_"  style="overflow:visible;"/>
				</clipPath>
				<g class="st101">
					<defs>

							<rect id="SVGID_150_" x="506" y="351" transform="matrix(0.5 -0.866 0.866 0.5 -56.348 620.8511)" width="7.1" height="16.5"/>
					</defs>
					<clipPath id="SVGID_151_">
						<use xlink:href="#SVGID_150_"  style="overflow:visible;"/>
					</clipPath>
					<path class="st102" d="M508.3,354.6l6.4,6.1c1.6,1.5,1.7,4.1,0.1,5.7l-12.2-11.7C504.1,353.1,506.7,353,508.3,354.6"/>
				</g>
			</g>
		</g>
		<path class="st103" d="M505.6,357.5c-0.3,0.3-0.8,0.3-1.1,0l-30.7-29.5c-0.3-0.3-0.3-0.8,0-1.1c0.3-0.3,0.8-0.3,1.1,0l30.7,29.5
			C505.9,356.7,505.9,357.2,505.6,357.5"/>
		<g class="st104">
			<g>
				<defs>
					<rect id="SVGID_152_" x="468.1" y="327" width="42.7" height="31.1"/>
				</defs>
				<clipPath id="SVGID_153_">
					<use xlink:href="#SVGID_152_"  style="overflow:visible;"/>
				</clipPath>
				<g class="st105">
					<defs>

							<rect id="SVGID_154_" x="483.9" y="321" transform="matrix(0.5 -0.866 0.866 0.5 -51.8837 595.1456)" width="11.1" height="42.9"/>
					</defs>
					<clipPath id="SVGID_155_">
						<use xlink:href="#SVGID_154_"  style="overflow:visible;"/>
					</clipPath>
					<path class="st106" d="M473.7,328.1l30.7,29.5c0.3,0.3,0.8,0.3,1.1,0L473.7,327C473.4,327.3,473.4,327.8,473.7,328.1"/>
				</g>
			</g>
		</g>
	</g>
	<g class="st1">
		<defs>

				<rect id="SVGID_156_" x="584.7" y="342" transform="matrix(0.866 -0.5 0.5 0.866 -113.9281 366.1325)" width="83.2" height="107.3"/>
		</defs>
		<clipPath id="SVGID_157_">
			<use xlink:href="#SVGID_156_"  style="overflow:visible;"/>
		</clipPath>
		<path class="st107" d="M599.4,349.2c0,0,24.6,14.5,41.5,43.7c18.3,31.8,19.9,44.7,12.2,49.2c-7.7,4.4-18.2-3.4-36.5-35.1
			C599.7,377.8,599.4,349.2,599.4,349.2"/>
		<path class="st108" d="M603.4,356c0,0,21.1,13.2,36,39c16.2,28.1,17.8,39.4,11.4,43.1c-6.4,3.7-15.4-3.3-31.6-31.4
			C604.2,380.9,603.4,356,603.4,356"/>
		<path class="st109" d="M607.2,362.7c0,0,20.3,11.8,34.2,35.8c15,26.1,16.2,36.7,9.8,40.4c-6.4,3.7-15.1-2.7-30.1-28.7
			C607.3,386.3,607.2,362.7,607.2,362.7"/>
		<g class="st110">
			<g>
				<defs>
					<rect id="SVGID_158_" x="612.8" y="378.4" width="21.9" height="25.9"/>
				</defs>
				<clipPath id="SVGID_159_">
					<use xlink:href="#SVGID_158_"  style="overflow:visible;"/>
				</clipPath>
				<g class="st111">
					<defs>

							<rect id="SVGID_160_" x="617.8" y="379.9" transform="matrix(0.866 -0.5 0.5 0.866 -112.1218 364.3009)" width="12" height="23"/>
					</defs>
					<clipPath id="SVGID_161_">
						<use xlink:href="#SVGID_160_"  style="overflow:visible;"/>
					</clipPath>
					<path class="st112" d="M618,381.4c2.9-1.7,6.5-0.7,8,1.8l6,10.4c1.4,2.5,0.4,6.1-2.5,7.8c-2.9,1.7-6.5,0.7-8-1.8l-6-10.4
						C614.1,386.7,615.1,383.1,618,381.4 M623.1,398.7c1,1.8,3.5,2.2,5.6,1.1c2-1.2,2.9-3.6,1.9-5.3l-6-10.4c-1-1.8-3.5-2.2-5.6-1.1
						c-2,1.2-2.9,3.6-1.9,5.3L623.1,398.7z"/>
				</g>
			</g>
		</g>
		<g class="st110">
			<g>
				<defs>
					<rect id="SVGID_162_" x="634.6" y="414.7" width="16.4" height="19.4"/>
				</defs>
				<clipPath id="SVGID_163_">
					<use xlink:href="#SVGID_162_"  style="overflow:visible;"/>
				</clipPath>
				<g class="st113">
					<defs>

							<rect id="SVGID_164_" x="638.3" y="415.8" transform="matrix(0.8661 -0.5 0.5 0.8661 -126.0552 378.2151)" width="9" height="17.2"/>
					</defs>
					<clipPath id="SVGID_165_">
						<use xlink:href="#SVGID_164_"  style="overflow:visible;"/>
					</clipPath>
					<path class="st114" d="M638.5,416.9c2.2-1.2,4.9-0.5,6,1.3l4.5,7.8c1.1,1.9,0.3,4.6-1.8,5.8c-2.2,1.2-4.9,0.5-6-1.3l-4.5-7.8
						C635.6,420.9,636.4,418.2,638.5,416.9 M642.3,429.8c0.8,1.3,2.6,1.7,4.2,0.8c1.5-0.9,2.2-2.7,1.4-4l-4.5-7.8
						c-0.8-1.3-2.6-1.7-4.2-0.8c-1.5,0.9-2.2,2.7-1.4,4L642.3,429.8z"/>
				</g>
			</g>
		</g>
		<g class="st110">
			<g>
				<defs>
					<rect id="SVGID_166_" x="611.9" y="372.8" width="5.2" height="5.2"/>
				</defs>
				<clipPath id="SVGID_167_">
					<use xlink:href="#SVGID_166_"  style="overflow:visible;"/>
				</clipPath>
				<g class="st115">
					<defs>

							<rect id="SVGID_168_" x="612.6" y="373.5" transform="matrix(0.866 -0.5001 0.5001 0.866 -105.3527 357.6505)" width="3.8" height="3.8"/>
					</defs>
					<clipPath id="SVGID_169_">
						<use xlink:href="#SVGID_168_"  style="overflow:visible;"/>
					</clipPath>
					<path class="st116" d="M612.9,376.3c0.5,0.9,1.7,1.2,2.6,0.7c0.9-0.5,1.2-1.7,0.7-2.6c-0.5-0.9-1.7-1.2-2.6-0.7
						C612.7,374.2,612.4,375.4,612.9,376.3"/>
				</g>
			</g>
		</g>
		<g class="st110">
			<g>
				<defs>
					<rect id="SVGID_170_" x="610.3" y="369.4" width="3.4" height="3.4"/>
				</defs>
				<clipPath id="SVGID_171_">
					<use xlink:href="#SVGID_170_"  style="overflow:visible;"/>
				</clipPath>
				<g class="st117">
					<defs>

							<rect id="SVGID_172_" x="610.8" y="369.8" transform="matrix(0.866 -0.5 0.5 0.866 -103.5386 355.7621)" width="2.5" height="2.5"/>
					</defs>
					<clipPath id="SVGID_173_">
						<use xlink:href="#SVGID_172_"  style="overflow:visible;"/>
					</clipPath>
					<path class="st118" d="M611,371.7c0.3,0.6,1.1,0.8,1.7,0.5c0.6-0.3,0.8-1.1,0.5-1.7c-0.3-0.6-1.1-0.8-1.7-0.5
						C610.8,370.3,610.6,371.1,611,371.7"/>
				</g>
			</g>
		</g>
		<g class="st119">
			<g>
				<defs>
					<rect id="SVGID_174_" x="599.4" y="342.2" width="65.8" height="99.9"/>
				</defs>
				<clipPath id="SVGID_175_">
					<use xlink:href="#SVGID_174_"  style="overflow:visible;"/>
				</clipPath>
				<g class="st120">
					<defs>

							<rect id="SVGID_176_" x="625.3" y="338.5" transform="matrix(0.866 -0.5 0.5 0.866 -111.3536 368.6775)" width="14.1" height="107.3"/>
					</defs>
					<clipPath id="SVGID_177_">
						<use xlink:href="#SVGID_176_"  style="overflow:visible;"/>
					</clipPath>
					<path class="st121" d="M599.4,349.2c0,0,24.6,14.5,41.5,43.7c18.3,31.8,19.9,44.7,12.2,49.2L599.4,349.2z"/>
				</g>
			</g>
		</g>
		<path class="st108" d="M630.9,422.7c2.1,3.6,7.7,4.9,12.3,2.2c4.5-2.6,6.3-8.1,4.2-11.7l-8.8-15.2c-2.1-3.6-7.7-4.9-12.3-2.2
			c-4.5,2.6-6.3,8.1-4.2,11.7L630.9,422.7z"/>
		<g class="st119">
			<g>
				<defs>
					<rect id="SVGID_178_" x="618.1" y="395.8" width="25.1" height="33.9"/>
				</defs>
				<clipPath id="SVGID_179_">
					<use xlink:href="#SVGID_178_"  style="overflow:visible;"/>
				</clipPath>
				<g class="st122">
					<defs>

							<rect id="SVGID_180_" x="625.9" y="395.9" transform="matrix(0.866 -0.5 0.5 0.866 -121.8852 370.6192)" width="9.5" height="33.7"/>
					</defs>
					<clipPath id="SVGID_181_">
						<use xlink:href="#SVGID_180_"  style="overflow:visible;"/>
					</clipPath>
					<path class="st123" d="M626.3,395.8l16.8,29.2c-4.5,2.6-10.2,1.4-12.3-2.2l-8.8-15.2C620,403.9,621.8,398.4,626.3,395.8"/>
				</g>
			</g>
		</g>
		<path class="st124" d="M627.7,398.1c3.2-1.9,7.1-1.3,8.6,1.3l8.8,15.2c1.5,2.6,0.1,6.2-3.2,8.1c-3.2,1.9-7.1,1.3-8.6-1.3
			l-8.8-15.2C623,403.6,624.4,400,627.7,398.1"/>
		<path class="st125" d="M636,412.6c2.1-1.2,4.5-1.6,6.6-2l2.3,4c1.5,2.6,0.1,6.2-3.2,8.1c-3.2,1.9-7.1,1.3-8.6-1.3l-2.3-4
			C632.4,415.7,634,413.8,636,412.6"/>
		<path class="st107" d="M649.1,385.9l7.7-7.4c1.9-1.9,5-1.8,6.9,0.1c1.9,1.9,1.8,5-0.1,6.9l-7.7,7.4c-1.9,1.9-5,1.8-6.9-0.1
			C647.1,390.8,647.2,387.8,649.1,385.9"/>
		<g class="st110">
			<g>
				<defs>
					<rect id="SVGID_182_" x="646.2" y="377.7" width="19.3" height="16.9"/>
				</defs>
				<clipPath id="SVGID_183_">
					<use xlink:href="#SVGID_182_"  style="overflow:visible;"/>
				</clipPath>
				<g class="st126">
					<defs>

							<rect id="SVGID_184_" x="647.6" y="381.2" transform="matrix(0.866 -0.5 0.5 0.866 -105.2378 379.6594)" width="16.5" height="10"/>
					</defs>
					<clipPath id="SVGID_185_">
						<use xlink:href="#SVGID_184_"  style="overflow:visible;"/>
					</clipPath>
					<path class="st127" d="M649.9,386.4l6.3-6.1c1.6-1.5,4.1-1.5,5.6,0.1c1.5,1.6,1.5,4.1-0.1,5.6l-6.3,6.1
						c-1.6,1.5-4.1,1.5-5.6-0.1C648.3,390.4,648.3,387.9,649.9,386.4"/>
				</g>
			</g>
		</g>
		<g class="st119">
			<g>
				<defs>
					<rect id="SVGID_186_" x="644.6" y="375.4" width="21.6" height="17.4"/>
				</defs>
				<clipPath id="SVGID_187_">
					<use xlink:href="#SVGID_186_"  style="overflow:visible;"/>
				</clipPath>
				<g class="st128">
					<defs>

							<rect id="SVGID_188_" x="645.4" y="379.9" transform="matrix(0.866 -0.5 0.5 0.866 -104.2707 379.133)" width="20" height="8.6"/>
					</defs>
					<clipPath id="SVGID_189_">
						<use xlink:href="#SVGID_188_"  style="overflow:visible;"/>
					</clipPath>
					<path class="st129" d="M649.1,385.9l7.7-7.4c1.9-1.9,5-1.8,6.9,0.1L649,392.8C647.1,390.8,647.2,387.8,649.1,385.9"/>
				</g>
			</g>
		</g>
		<path class="st107" d="M610.7,422.7l-7.7,7.4c-1.9,1.9-2,4.9-0.1,6.9c1.9,1.9,4.9,2,6.9,0.1l7.7-7.4c1.9-1.9,2-4.9,0.1-6.9
			C615.7,420.9,612.6,420.9,610.7,422.7"/>
		<g class="st110">
			<g>
				<defs>
					<rect id="SVGID_190_" x="601.1" y="421" width="19.3" height="16.9"/>
				</defs>
				<clipPath id="SVGID_191_">
					<use xlink:href="#SVGID_190_"  style="overflow:visible;"/>
				</clipPath>
				<g class="st130">
					<defs>

							<rect id="SVGID_192_" x="602.5" y="424.4" transform="matrix(0.866 -0.5 0.5 0.866 -132.8961 362.8988)" width="16.5" height="10"/>
					</defs>
					<clipPath id="SVGID_193_">
						<use xlink:href="#SVGID_192_"  style="overflow:visible;"/>
					</clipPath>
					<path class="st131" d="M611.1,423.5l-6.3,6.1c-1.6,1.5-1.6,4-0.1,5.6c1.5,1.6,4,1.6,5.6,0.1l6.3-6.1c1.6-1.5,1.6-4,0.1-5.6
						C615.2,422.1,612.7,422,611.1,423.5"/>
				</g>
			</g>
		</g>
		<g class="st119">
			<g>
				<defs>
					<rect id="SVGID_194_" x="598.4" y="419.7" width="21.6" height="17.4"/>
				</defs>
				<clipPath id="SVGID_195_">
					<use xlink:href="#SVGID_194_"  style="overflow:visible;"/>
				</clipPath>
				<g class="st132">
					<defs>

							<rect id="SVGID_196_" x="599.2" y="424.1" transform="matrix(0.866 -0.5 0.5 0.866 -132.5628 362.0196)" width="20" height="8.6"/>
					</defs>
					<clipPath id="SVGID_197_">
						<use xlink:href="#SVGID_196_"  style="overflow:visible;"/>
					</clipPath>
					<path class="st133" d="M610.7,422.7l-7.7,7.4c-1.9,1.9-2,4.9-0.1,6.9l14.7-14.1C615.7,420.9,612.6,420.9,610.7,422.7"/>
				</g>
			</g>
		</g>
		<path class="st134" d="M614,426.3c0.4,0.4,1,0.4,1.4,0l37.2-35.6c0.4-0.4,0.4-1,0-1.4s-1-0.4-1.4,0L614,424.9
			C613.6,425.3,613.6,425.9,614,426.3"/>
		<g class="st135">
			<g>
				<defs>
					<rect id="SVGID_198_" x="607.6" y="389.3" width="51.7" height="37.6"/>
				</defs>
				<clipPath id="SVGID_199_">
					<use xlink:href="#SVGID_198_"  style="overflow:visible;"/>
				</clipPath>
				<g class="st136">
					<defs>

							<rect id="SVGID_200_" x="607.5" y="401.4" transform="matrix(0.866 -0.5 0.5 0.866 -119.1963 371.4125)" width="51.9" height="13.5"/>
					</defs>
					<clipPath id="SVGID_201_">
						<use xlink:href="#SVGID_200_"  style="overflow:visible;"/>
					</clipPath>
					<path class="st137" d="M652.5,390.7l-37.2,35.6c-0.4,0.4-1,0.4-1.4,0l38.6-37C652.9,389.7,652.9,390.3,652.5,390.7"/>
				</g>
			</g>
		</g>
	</g>
</g>
</svg>
