<?xml version="1.0" encoding="utf-8"?>
<!-- Generator: Adobe Illustrator 19.2.1, SVG Export Plug-In . SVG Version: 6.00 Build 0)  -->
<svg version="1.1" id="Layer_1" xmlns="http://www.w3.org/2000/svg" xmlns:xlink="http://www.w3.org/1999/xlink" x="0px" y="0px"
	 viewBox="0 0 144 165.7" style="enable-background:new 0 0 144 165.7;" xml:space="preserve">
<style type="text/css">
	.st0{fill:#7ECEF3;}
	.st1{fill:#014B73;}
	.st2{fill:#FFFFFF;}
</style>
<g>
	<polygon class="st0" points="72.3,0 0.5,41.4 0.5,124.3 72.3,165.7 144,124.3 144,41.4 	"/>
	<g>
		<g>
			<path class="st1" d="M105.6,74c-3.9-7.8-10.6-14-18.8-17.5c-3.3-1.4-6.7-2.3-10.2-2.7v-4.3h2.8c1.8,0,3.3-1.5,3.3-3.3v-1.7
				c0-4.2-3.4-7.7-7.7-7.7h-5.6c-4.2,0-7.7,3.4-7.7,7.7v1.7c0,1.8,1.5,3.3,3.3,3.3h2.7v4.2c-2.1,0.2-4.3,0.7-6.3,1.3l0,0
				c-1.5,0.4-2.9,1-4.3,1.6c-8.9,4-15.4,10.5-19.4,19.4c-1.6,3.7-2.6,7.4-2.9,11.1c-0.1,1.4,0.7,3.3,2.1,4.1
				c1.1,0.6,2.5,0.5,3.4,0.2c0.4-0.1,0.7-0.3,1-0.4c1.4-0.9,1.8-2.6,1.9-3.5c1.4-11.4,9.5-21,20.6-24.3c1.8-0.5,3.6-0.9,5.5-1.1
				c7.8-0.7,15.4,1.6,21.4,6.7s9.7,12.2,10.4,20c1,12.6-6.6,25-18.2,29.3c-0.8,0.3-1.6,0.6-2.3,0.8c-8.8,2.6-17.2,1.3-25.1-4
				c-1.5-1-2.8-2.1-4.1-3.4l4.8-1.5c0.7-0.3,1.1-0.9,1.1-1.7c0-0.7-0.4-1.4-1.1-1.7L40,99.4c-0.6-0.3-1.3-0.3-1.9-0.1
				c-1.3,0.4-2.1,1.6-2,2.9l1.8,17.7c0.1,0.6,0.3,1,0.8,1.4c0.7,0.5,1.8,0.4,2.5-0.3l3.2-4.5c2.9,3.2,6,5.7,9.4,7.5
				c9.6,5.1,19.2,6.3,28.5,3.5c3.3-1,6.6-2.5,9.7-4.4c8.1-5,13.9-12.7,16.4-21.7C110.9,92.2,109.9,82.6,105.6,74"/>
		</g>
		<g>
			<path class="st2" d="M93.1,79.1c-0.2-0.2-0.5-0.3-0.9-0.1l-0.5,0.2c-0.4,0.1-0.8,0.3-1.2,0.4c-4,1.5-8.7,3.2-13.4,5
				c-1.3-1.1-3-1.8-4.8-1.8c-4.2,0-7.6,3.4-7.6,7.6s3.4,7.6,7.6,7.6s7.6-3.4,7.6-7.6c0-0.1,0-0.2,0-0.3c3.4-2.4,7.1-5,11.1-7.9
				c0.5-0.4,1-0.8,1.5-1.2c0.2-0.2,0.4-0.4,0.7-0.6c0.2-0.1,0.2-0.4,0.2-0.6C93.4,79.5,93.3,79.3,93.1,79.1"/>
		</g>
	</g>
</g>
</svg>
