<?xml version="1.0" encoding="utf-8"?>
<!-- Generator: Adobe Illustrator 19.2.1, SVG Export Plug-In . SVG Version: 6.00 Build 0)  -->
<svg version="1.1" id="Layer_1" xmlns="http://www.w3.org/2000/svg" xmlns:xlink="http://www.w3.org/1999/xlink" x="0px" y="0px"
	 viewBox="0 0 144 165.7" style="enable-background:new 0 0 144 165.7;" xml:space="preserve">
<style type="text/css">
	.st0{fill:#014B73;}
	.st1{fill:#7ECEF3;}
	.st2{fill:#FFFFFF;}
</style>
<polygon class="st0" points="72.3,0 0.5,41.4 0.5,124.3 72.3,165.7 144,124.3 144,41.4 "/>
<g>
	<g>
		<path class="st1" d="M83.7,93.5c12.1-12.2,32.4-47.1,28.7-50.3c-3.7-3.1-37.2,16.5-49.8,28.2 M61,73c-11.8,12.1-33,46.7-28.6,50.3
			c4.3,3.5,36.9-16.3,49.7-28.2 M94.1,63.1c2,1.6-8.8,18.9-15.4,25.2c-3.6-3.8-7.4-7.7-11-11.5C75,70.8,92.1,61.5,94.1,63.1
			 M50.5,103.4c-2.3-1.8,9-19,15.4-25.2l11,11.5C69.6,95.8,52.8,105.2,50.5,103.4"/>
	</g>
</g>
<rect x="65.7" y="46.5" transform="matrix(0.7253 -0.6884 0.6884 0.7253 -36.1455 69.5093)" class="st0" width="6.7" height="67"/>
<g>
	<g>
		<path class="st2" d="M54.9,65.9l35.4,37.3c-0.3,0.4-0.3,1,0.1,1.4s1.1,0.4,1.5,0l0.8-0.8c0.4-0.4,0.4-1.1,0-1.5s-1-0.4-1.4-0.1
			L56,64.9c1.3-1.3-4.5-9.7-5.7-11.1l-6.7-7c-1.3-1.3-3.3-1.4-4.7-0.1l-1.2,1.2c-1.3,1.3-1.4,3.3-0.1,4.7l6.7,7
			C45.5,60.9,53.6,67.1,54.9,65.9"/>
	</g>
	<g>
		<path class="st2" d="M90.3,101c1.3-1.3,9.5,5,10.7,6.3l6.7,7c1.3,1.3,1.2,3.4-0.1,4.7l-1.2,1.2c-1.3,1.3-3.4,1.2-4.7-0.1l-6.7-7
			c-1.3-1.3-7-9.8-5.7-11.1"/>
	</g>
</g>
</svg>
