<?xml version="1.0" encoding="utf-8"?>
<!-- Generator: Adobe Illustrator 19.2.1, SVG Export Plug-In . SVG Version: 6.00 Build 0)  -->
<svg version="1.1" id="Layer_1" xmlns="http://www.w3.org/2000/svg" xmlns:xlink="http://www.w3.org/1999/xlink" x="0px" y="0px"
	 viewBox="0 0 144 165.7" style="enable-background:new 0 0 144 165.7;" xml:space="preserve">
<style type="text/css">
	.st0{fill:#7ECEF3;}
	.st1{fill:#014B73;}
	.st2{fill:#FFFFFF;}
</style>
<g>
	<polygon class="st0" points="72.3,0 0.5,41.4 0.5,124.3 72.3,165.7 144,124.3 144,41.4 	"/>
	<g>
		<g>
			<path class="st1" d="M110.7,108.1h7.4l-10-25.4l10-20.4h-7.2l-9.4,19.9V62.4h-7.2v45.8h7.2V94.1l2.2-4.2L110.7,108.1z M67.2,97.2
				c0,7.3,3.9,11.5,10.9,11.5c7.1,0,10.9-4.2,10.9-11.5V73.3c0-7.3-3.9-11.5-10.9-11.5c-7.1,0-10.9,4.2-10.9,11.5V97.2z M74.4,72.9
				c0-3.3,1.4-4.5,3.7-4.5s3.7,1.2,3.7,4.5v24.7c0,3.3-1.4,4.5-3.7,4.5s-3.7-1.2-3.7-4.5V72.9z M50.2,73.2h5.6v34.9H63V62.4h-4.8
				c-1.1,3.1-2.4,5.8-7.9,5.8L50.2,73.2L50.2,73.2z"/>
		</g>
		<g>
			<path class="st2" d="M41.5,77.8h6.8v-4.5c0-7.3-3.6-11.5-10.6-11.5S27.1,66,27.1,73.3c0,8,3.1,11,4.6,15.5h-4.4v5.6h5.3
				c-0.1,4.7-2.8,7.5-6.2,7.5v6.3h21.4v-6.5H35.5c2-1.6,3.3-3.9,3.7-7.2h7.5v-5.6h-7.9c-1.2-5-4.4-7.8-4.4-16c0-3.3,1.3-4.5,3.6-4.5
				s3.6,1.2,3.6,4.5L41.5,77.8L41.5,77.8z"/>
		</g>
	</g>
</g>
</svg>
