<?xml version="1.0" encoding="utf-8"?>
<!-- Generator: Adobe Illustrator 19.2.1, SVG Export Plug-In . SVG Version: 6.00 Build 0)  -->
<svg version="1.1" id="Layer_1" xmlns="http://www.w3.org/2000/svg" xmlns:xlink="http://www.w3.org/1999/xlink" x="0px" y="0px"
	 viewBox="0 0 144 165.7" style="enable-background:new 0 0 144 165.7;" xml:space="preserve">
<style type="text/css">
	.st0{fill:#014B73;}
	.st1{fill:#7ECEF3;}
	.st2{fill:#FFFFFF;}
</style>
<g>
	<polygon class="st0" points="72.3,0 0.5,41.4 0.5,124.3 72.3,165.7 144,124.3 144,41.4 	"/>
	<g>
		<g>
			<path class="st1" d="M30.1,68.9h3.2c5.3,0,10-2.6,13-6.6c3,4,7.6,6.6,13,6.6c5.3,0,10-2.6,13-6.6c3,4,7.6,6.6,13,6.6
				s10-2.6,13-6.6c3,4,7.6,6.6,13,6.6h3.2c1.8,0,3.2-1.5,3.2-3.2c0-1.8-1.4-3.2-3.2-3.2h-3.2c-5.4,0-9.7-4.4-9.7-9.7
				c0-1.8-1.4-3.2-3.2-3.2c-1.8,0-3.2,1.5-3.2,3.2c0,5.4-4.4,9.7-9.7,9.7s-9.7-4.4-9.7-9.7c0-1.8-1.4-3.2-3.2-3.2
				c-1.8,0-3.2,1.5-3.2,3.2c0,5.4-4.4,9.7-9.7,9.7c-5.4,0-9.7-4.4-9.7-9.7c0-1.8-1.4-3.2-3.2-3.2s-3.2,1.5-3.2,3.2
				c0,5.4-4.4,9.7-9.7,9.7h-3.2c-1.8,0-3.2,1.5-3.2,3.2C26.8,67.5,28.3,68.9,30.1,68.9 M114.5,88.4h-3.2c-5.4,0-9.7-4.4-9.7-9.7
				c0-1.8-1.4-3.2-3.2-3.2c-1.8,0-3.2,1.5-3.2,3.2c0,5.4-4.4,9.7-9.7,9.7s-9.7-4.4-9.7-9.7c0-1.8-1.4-3.2-3.2-3.2
				c-1.8,0-3.2,1.5-3.2,3.2c0,5.4-4.4,9.7-9.7,9.7c-5.4,0-9.7-4.4-9.7-9.7c0-1.8-1.4-3.2-3.2-3.2s-3.2,1.5-3.2,3.2
				c0,5.4-4.4,9.7-9.7,9.7h-3.2c-1.8,0-3.2,1.5-3.2,3.2s1.4,3.2,3.2,3.2h3.2c5.3,0,10-2.6,13-6.6c3,4,7.6,6.6,13,6.6
				c5.3,0,10-2.6,13-6.6c3,4,7.6,6.6,13,6.6s10-2.6,13-6.6c3,4,7.6,6.6,13,6.6h3.2c1.8,0,3.2-1.4,3.2-3.2S116.3,88.4,114.5,88.4
				 M114.5,114.4h-3.2c-5.4,0-9.7-4.4-9.7-9.7c0-1.8-1.4-3.2-3.2-3.2c-1.8,0-3.2,1.4-3.2,3.2c0,5.4-4.4,9.7-9.7,9.7
				s-9.7-4.4-9.7-9.7c0-1.8-1.4-3.2-3.2-3.2c-1.8,0-3.2,1.4-3.2,3.2c0,5.4-4.4,9.7-9.7,9.7c-5.4,0-9.7-4.4-9.7-9.7
				c0-1.8-1.4-3.2-3.2-3.2s-3.2,1.4-3.2,3.2c0,5.4-4.4,9.7-9.7,9.7h-3.2c-1.8,0-3.2,1.4-3.2,3.2c0,1.8,1.4,3.2,3.2,3.2h3.2
				c5.3,0,10-2.6,13-6.6c3,4,7.6,6.6,13,6.6c5.3,0,10-2.6,13-6.6c3,4,7.6,6.6,13,6.6s10-2.6,13-6.6c3,4,7.6,6.6,13,6.6h3.2
				c1.8,0,3.2-1.4,3.2-3.2C117.7,115.8,116.3,114.4,114.5,114.4"/>
		</g>
		<g>
			<path class="st2" d="M117.7,91.7c0-1.8-1.4-3.2-3.2-3.2h-3.2c-5.4,0-9.7-4.4-9.7-9.7c0-1.8-1.5-3.2-3.2-3.2
				c-1.8,0-3.2,1.5-3.2,3.2c0,5.4-4.4,9.7-9.7,9.7s-9.7-4.4-9.7-9.7c0-1.8-1.4-3.2-3.2-3.2S69,77,69,78.8c0,5.4-4.4,9.7-9.7,9.7
				s-9.7-4.4-9.7-9.7c0-1.8-1.4-3.2-3.2-3.2s-3.2,1.5-3.2,3.2c0,5.4-4.4,9.7-9.7,9.7h-3.2c-1.8,0-3.2,1.5-3.2,3.2
				c0,1.8,1.4,3.2,3.2,3.2h3.2c5.3,0,10-2.6,13-6.6c3,4,7.6,6.6,13,6.6c5.3,0,10-2.6,13-6.6c3,4,7.6,6.6,13,6.6c5.3,0,10-2.6,13-6.6
				c3,4,7.6,6.6,13,6.6h3.2C116.3,95,117.7,93.5,117.7,91.7"/>
		</g>
	</g>
</g>
</svg>
