<?xml version="1.0" encoding="utf-8"?>
<!-- Generator: Adobe Illustrator 19.2.1, SVG Export Plug-In . SVG Version: 6.00 Build 0)  -->
<svg version="1.1" id="Layer_1" xmlns="http://www.w3.org/2000/svg" xmlns:xlink="http://www.w3.org/1999/xlink" x="0px" y="0px"
   viewBox="0 0 1089.4 397.9" style="enable-background:new 0 0 1089.4 397.9;" xml:space="preserve">
<style type="text/css">
  .st0{fill:#7CCDF2;}
  .st1{font-family:'BebasNeueBold';}
  .st2{font-size:27px;}
  .st3{fill:#FFFFFF;}
  .st4{fill:#E30521;}
  .st5{fill:#F29100;}
  .st6{fill:#A5CC19;}
</style>
<g>
  <path class="st0" d="M2.9,56.8c0.6,0,1-0.1,1.4-0.2c0.4-0.1,0.7-0.3,0.9-0.5c0.2-0.2,0.4-0.5,0.6-0.8c0.1-0.3,0.3-0.6,0.4-0.9h2
    v18.9h-3V58.9H2.9V56.8z"/>
  <path class="st0" d="M20.5,54.4V57l-4.4,16.3h-3l4.3-16.2h-5.9v-2.7H20.5z"/>
  <path class="st0" d="M25.8,70.6c0.2,0,0.3,0,0.5,0c0.2,0,0.4,0,0.5,0c0.5,0,0.9-0.1,1.2-0.4s0.5-0.7,0.5-1.5V54.4h3v14.2
    c0,1-0.1,1.7-0.4,2.3c-0.2,0.6-0.5,1.1-0.9,1.4c-0.4,0.4-0.9,0.6-1.4,0.7c-0.5,0.1-1,0.2-1.6,0.2c-0.3,0-0.5,0-0.7,0
    s-0.5,0-0.7-0.1V70.6z"/>
  <path class="st0" d="M36.4,54.4V69c0,0.7,0.1,1.2,0.4,1.4c0.3,0.3,0.7,0.4,1.1,0.4s0.8-0.1,1.1-0.4c0.3-0.3,0.4-0.7,0.4-1.4V54.4
    h2.8v14.4c0,1.5-0.4,2.7-1.1,3.5c-0.7,0.8-1.8,1.2-3.3,1.2s-2.6-0.4-3.3-1.2c-0.7-0.8-1.1-2-1.1-3.5V54.4H36.4z"/>
  <path class="st0" d="M47,59.6v13.7h-2.7V54.4H48l3.1,11.3V54.4h2.6v18.9h-3.1L47,59.6z"/>
  <path class="st0" d="M58.8,62.4h4.1v2.7h-4.1v5.5h5.1v2.7h-8.1V54.4h8.1v2.7h-5.1V62.4z"/>
  <path class="st0" d="M75.8,59c0-0.8-0.1-1.4-0.4-1.7c-0.3-0.3-0.7-0.4-1.1-0.4s-0.8,0.1-1.1,0.4c-0.3,0.3-0.4,0.8-0.4,1.4v2H70
    v-1.8c0-1.5,0.4-2.7,1.1-3.5c0.7-0.8,1.8-1.2,3.3-1.2s2.6,0.4,3.3,1.2c0.7,0.8,1.1,2,1.1,3.5c0,1-0.1,1.9-0.4,2.7
    c-0.3,0.8-0.7,1.5-1.1,2.2c-0.4,0.7-0.9,1.3-1.4,1.8c-0.5,0.6-1,1.1-1.4,1.6c-0.4,0.5-0.8,1-1.1,1.5c-0.3,0.5-0.4,1-0.4,1.5
    c0,0.2,0,0.3,0,0.4h5.6v2.7H70V71c0-0.9,0.1-1.7,0.4-2.4s0.7-1.3,1.1-1.9c0.4-0.6,0.9-1.1,1.4-1.6c0.5-0.5,1-1.1,1.4-1.6
    s0.8-1.2,1.1-1.9C75.7,60.8,75.8,60,75.8,59z"/>
  <path class="st0" d="M80.4,58.9c0-1.5,0.4-2.7,1.2-3.5c0.8-0.8,1.9-1.2,3.3-1.2s2.6,0.4,3.3,1.2c0.8,0.8,1.2,2,1.2,3.5v9.8
    c0,1.5-0.4,2.7-1.2,3.5c-0.8,0.8-1.9,1.2-3.3,1.2s-2.6-0.4-3.3-1.2c-0.8-0.8-1.2-2-1.2-3.5V58.9z M83.4,69c0,0.7,0.1,1.2,0.4,1.4
    c0.3,0.3,0.7,0.4,1.1,0.4s0.8-0.1,1.1-0.4c0.3-0.3,0.4-0.8,0.4-1.4V58.7c0-0.7-0.1-1.2-0.4-1.4c-0.3-0.3-0.7-0.4-1.1-0.4
    s-0.8,0.1-1.1,0.4c-0.3,0.3-0.4,0.8-0.4,1.4V69z"/>
  <path class="st0" d="M93.2,56.8c0.6,0,1-0.1,1.4-0.2c0.4-0.1,0.7-0.3,0.9-0.5c0.2-0.2,0.4-0.5,0.6-0.8c0.1-0.3,0.3-0.6,0.4-0.9h2
    v18.9h-3V58.9h-2.3V56.8z"/>
  <path class="st0" d="M110.8,54.4V57l-4.4,16.3h-3l4.3-16.2h-5.9v-2.7H110.8z"/>
</g>
<text transform="matrix(1 0 0 1 111.644 73.3007)" class="st0 st1 st2"> </text>
<g>
  <path class="st3" d="M1.1,81.4h3v16.2h4.9v2.7H1.1V81.4z"/>
  <path class="st3" d="M13.2,89.4h4.1v2.7h-4.1v5.5h5.1v2.7h-8.1V81.4h8.1v2.7h-5.1V89.4z"/>
  <path class="st3" d="M28.8,93.3v2.5c0,1.5-0.4,2.7-1.1,3.5c-0.7,0.8-1.8,1.2-3.3,1.2s-2.6-0.4-3.3-1.2c-0.7-0.8-1.1-2-1.1-3.5v-9.8
    c0-1.5,0.4-2.7,1.1-3.5c0.7-0.8,1.8-1.2,3.3-1.2s2.6,0.4,3.3,1.2c0.7,0.8,1.1,2,1.1,3.5v1.8H26v-2c0-0.7-0.1-1.2-0.4-1.4
    c-0.3-0.3-0.7-0.4-1.1-0.4s-0.8,0.1-1.1,0.4c-0.3,0.3-0.4,0.8-0.4,1.4V96c0,0.7,0.1,1.2,0.4,1.4c0.3,0.3,0.7,0.4,1.1,0.4
    s0.8-0.1,1.1-0.4S26,96.6,26,96v-2.7H28.8z"/>
  <path class="st3" d="M33.6,100.3h-3V81.4h3v8.1h3.4v-8.1h3v18.9h-3v-8.1h-3.4V100.3z"/>
  <path class="st3" d="M42.1,81.4h3v16.2H50v2.7h-7.9V81.4z"/>
  <path class="st3" d="M60.9,100.3h-3l-0.5-3.4h-3.6l-0.5,3.4h-2.7l3-18.9h4.3L60.9,100.3z M54.1,94.3H57l-1.4-9.6L54.1,94.3z"/>
  <path class="st3" d="M62.3,81.4H67c1.5,0,2.6,0.4,3.3,1.2c0.7,0.8,1.1,2,1.1,3.5v9.6c0,1.5-0.4,2.7-1.1,3.5
    c-0.7,0.8-1.8,1.2-3.3,1.2h-4.7V81.4z M65.2,84.1v13.5h1.7c0.5,0,0.8-0.1,1.1-0.4c0.3-0.3,0.4-0.7,0.4-1.4v-9.8
    c0-0.7-0.1-1.2-0.4-1.4c-0.3-0.3-0.6-0.4-1.1-0.4H65.2z"/>
  <path class="st3" d="M76.2,89.4h4.1v2.7h-4.1v5.5h5.1v2.7h-8.1V81.4h8.1v2.7h-5.1V89.4z"/>
</g>
<text transform="matrix(1 0 0 1 82.1343 100.3007)" class="st3 st1 st2"> </text>
<g>
  <path class="st3" d="M5.5,116.8h4.2v6c0,1.5-0.4,2.7-1.1,3.5c-0.7,0.8-1.8,1.2-3.3,1.2s-2.6-0.4-3.3-1.2c-0.7-0.8-1.1-2-1.1-3.5
    v-9.8c0-1.5,0.4-2.7,1.1-3.5c0.7-0.8,1.8-1.2,3.3-1.2s2.6,0.4,3.3,1.2c0.7,0.8,1.1,2,1.1,3.5v1.8H6.9v-2c0-0.7-0.1-1.2-0.4-1.4
    c-0.3-0.3-0.7-0.4-1.1-0.4c-0.5,0-0.8,0.1-1.1,0.4c-0.3,0.3-0.4,0.8-0.4,1.4V123c0,0.7,0.1,1.2,0.4,1.4s0.7,0.4,1.1,0.4
    c0.5,0,0.8-0.1,1.1-0.4c0.3-0.3,0.4-0.7,0.4-1.4v-3.5H5.5V116.8z"/>
  <path class="st3" d="M11.6,108.4h3v16.2h4.9v2.7h-7.9V108.4z"/>
  <path class="st3" d="M20.5,112.9c0-1.5,0.4-2.7,1.2-3.5c0.8-0.8,1.9-1.2,3.3-1.2s2.6,0.4,3.3,1.2c0.8,0.8,1.2,2,1.2,3.5v9.8
    c0,1.5-0.4,2.7-1.2,3.5c-0.8,0.8-1.9,1.2-3.3,1.2s-2.6-0.4-3.3-1.2c-0.8-0.8-1.2-2-1.2-3.5V112.9z M23.5,123c0,0.7,0.1,1.2,0.4,1.4
    c0.3,0.3,0.7,0.4,1.1,0.4c0.5,0,0.8-0.1,1.1-0.4c0.3-0.3,0.4-0.8,0.4-1.4v-10.2c0-0.7-0.1-1.2-0.4-1.4c-0.3-0.3-0.7-0.4-1.1-0.4
    c-0.5,0-0.8,0.1-1.1,0.4c-0.3,0.3-0.4,0.8-0.4,1.4V123z"/>
  <path class="st3" d="M34.3,108.4V123c0,0.7,0.1,1.2,0.4,1.4s0.7,0.4,1.1,0.4c0.5,0,0.8-0.1,1.1-0.4s0.4-0.7,0.4-1.4v-14.6h2.8v14.4
    c0,1.5-0.4,2.7-1.1,3.5c-0.7,0.8-1.8,1.2-3.3,1.2s-2.6-0.4-3.3-1.2c-0.7-0.8-1.1-2-1.1-3.5v-14.4H34.3z"/>
  <path class="st3" d="M50.8,120.3v2.5c0,1.5-0.4,2.7-1.1,3.5c-0.7,0.8-1.8,1.2-3.3,1.2s-2.6-0.4-3.3-1.2c-0.7-0.8-1.1-2-1.1-3.5
    v-9.8c0-1.5,0.4-2.7,1.1-3.5c0.7-0.8,1.8-1.2,3.3-1.2s2.6,0.4,3.3,1.2c0.7,0.8,1.1,2,1.1,3.5v1.8H48v-2c0-0.7-0.1-1.2-0.4-1.4
    c-0.3-0.3-0.7-0.4-1.1-0.4s-0.8,0.1-1.1,0.4c-0.3,0.3-0.4,0.8-0.4,1.4V123c0,0.7,0.1,1.2,0.4,1.4c0.3,0.3,0.7,0.4,1.1,0.4
    s0.8-0.1,1.1-0.4c0.3-0.3,0.4-0.7,0.4-1.4v-2.7H50.8z"/>
  <path class="st3" d="M55.6,116.4h4.1v2.7h-4.1v5.5h5.1v2.7h-8.1v-18.9h8.1v2.7h-5.1V116.4z"/>
  <path class="st3" d="M62.2,112.9c0-1.5,0.4-2.7,1.1-3.5c0.7-0.8,1.8-1.2,3.3-1.2s2.6,0.4,3.3,1.2c0.7,0.8,1.1,2,1.1,3.5v0.6h-2.8
    v-0.8c0-0.7-0.1-1.2-0.4-1.4c-0.3-0.3-0.6-0.4-1.1-0.4c-0.5,0-0.8,0.1-1.1,0.4c-0.3,0.3-0.4,0.8-0.4,1.4c0,0.6,0.1,1.2,0.4,1.7
    s0.6,1,1.1,1.4c0.4,0.4,0.9,0.9,1.4,1.3s1,0.9,1.4,1.4c0.4,0.5,0.8,1.1,1.1,1.8s0.4,1.4,0.4,2.3c0,1.5-0.4,2.7-1.1,3.5
    c-0.7,0.8-1.8,1.2-3.3,1.2s-2.6-0.4-3.3-1.2c-0.7-0.8-1.1-2-1.1-3.5v-1.2h2.8v1.3c0,0.7,0.1,1.2,0.4,1.4c0.3,0.3,0.7,0.4,1.1,0.4
    s0.8-0.1,1.1-0.4c0.3-0.3,0.4-0.7,0.4-1.4c0-0.6-0.1-1.2-0.4-1.7c-0.3-0.5-0.6-1-1.1-1.4s-0.9-0.9-1.4-1.3c-0.5-0.4-1-0.9-1.4-1.4
    c-0.4-0.5-0.8-1.1-1.1-1.8C62.3,114.6,62.2,113.8,62.2,112.9z"/>
  <path class="st3" d="M71.8,108.4H81v2.7h-3.1v16.2h-3v-16.2h-3.1V108.4z"/>
  <path class="st3" d="M85.2,116.4h4.1v2.7h-4.1v5.5h5.1v2.7h-8.1v-18.9h8.1v2.7h-5.1V116.4z"/>
  <path class="st3" d="M98.4,127.3c0-0.1-0.1-0.2-0.1-0.4s-0.1-0.2-0.1-0.4c0-0.2,0-0.4-0.1-0.6c0-0.3,0-0.6,0-0.9v-3
    c0-0.9-0.2-1.5-0.5-1.9c-0.3-0.4-0.8-0.5-1.5-0.5h-1v7.7h-3v-18.9h4.5c1.5,0,2.7,0.4,3.4,1.1c0.7,0.7,1,1.8,1,3.3v1.5
    c0,1.9-0.6,3.2-1.9,3.8c0.8,0.3,1.3,0.8,1.6,1.5s0.4,1.5,0.4,2.5v2.9c0,0.5,0,0.9,0.1,1.2s0.1,0.7,0.3,1.1H98.4z M95.2,111.1v5.8
    h1.2c0.6,0,1-0.1,1.3-0.4c0.3-0.3,0.5-0.8,0.5-1.6V113c0-0.7-0.1-1.2-0.4-1.5c-0.2-0.3-0.6-0.5-1.1-0.5H95.2z"/>
  <path class="st3" d="M102.7,112.9c0-1.5,0.4-2.7,1.1-3.5c0.7-0.8,1.8-1.2,3.3-1.2s2.6,0.4,3.3,1.2c0.7,0.8,1.1,2,1.1,3.5v0.6h-2.8
    v-0.8c0-0.7-0.1-1.2-0.4-1.4c-0.3-0.3-0.6-0.4-1.1-0.4c-0.5,0-0.8,0.1-1.1,0.4c-0.3,0.3-0.4,0.8-0.4,1.4c0,0.6,0.1,1.2,0.4,1.7
    s0.6,1,1.1,1.4c0.4,0.4,0.9,0.9,1.4,1.3s1,0.9,1.4,1.4c0.4,0.5,0.8,1.1,1.1,1.8s0.4,1.4,0.4,2.3c0,1.5-0.4,2.7-1.1,3.5
    c-0.7,0.8-1.8,1.2-3.3,1.2s-2.6-0.4-3.3-1.2c-0.7-0.8-1.1-2-1.1-3.5v-1.2h2.8v1.3c0,0.7,0.1,1.2,0.4,1.4c0.3,0.3,0.7,0.4,1.1,0.4
    s0.8-0.1,1.1-0.4c0.3-0.3,0.4-0.7,0.4-1.4c0-0.6-0.1-1.2-0.4-1.7c-0.3-0.5-0.6-1-1.1-1.4s-0.9-0.9-1.4-1.3c-0.5-0.4-1-0.9-1.4-1.4
    c-0.4-0.5-0.8-1.1-1.1-1.8C102.8,114.6,102.7,113.8,102.7,112.9z"/>
  <path class="st3" d="M116.1,127.3h-3v-18.9h3v8.1h3.4v-8.1h3v18.9h-3v-8.1h-3.4V127.3z"/>
  <path class="st3" d="M124.7,108.4h3v18.9h-3V108.4z"/>
  <path class="st3" d="M136,127.3c0-0.1-0.1-0.2-0.1-0.4s-0.1-0.2-0.1-0.4c0-0.2,0-0.4-0.1-0.6c0-0.3,0-0.6,0-0.9v-3
    c0-0.9-0.2-1.5-0.5-1.9c-0.3-0.4-0.8-0.5-1.5-0.5h-1v7.7h-3v-18.9h4.5c1.5,0,2.7,0.4,3.4,1.1c0.7,0.7,1,1.8,1,3.3v1.5
    c0,1.9-0.6,3.2-1.9,3.8c0.8,0.3,1.3,0.8,1.6,1.5s0.4,1.5,0.4,2.5v2.9c0,0.5,0,0.9,0.1,1.2s0.1,0.7,0.3,1.1H136z M132.8,111.1v5.8
    h1.2c0.6,0,1-0.1,1.3-0.4c0.3-0.3,0.5-0.8,0.5-1.6V113c0-0.7-0.1-1.2-0.4-1.5c-0.2-0.3-0.6-0.5-1.1-0.5H132.8z"/>
  <path class="st3" d="M143.6,116.4h4.1v2.7h-4.1v5.5h5.1v2.7h-8.1v-18.9h8.1v2.7h-5.1V116.4z"/>
</g>
<g>
  <path class="st0" d="M977.5,96.8c0-0.8-0.1-1.4-0.4-1.7c-0.3-0.3-0.7-0.4-1.1-0.4s-0.8,0.1-1.1,0.4c-0.3,0.3-0.4,0.8-0.4,1.4v2
    h-2.8v-1.8c0-1.5,0.4-2.7,1.1-3.5c0.7-0.8,1.8-1.2,3.3-1.2s2.6,0.4,3.3,1.2c0.7,0.8,1.1,2,1.1,3.5c0,1-0.1,1.9-0.4,2.7
    c-0.3,0.8-0.7,1.5-1.1,2.2c-0.4,0.7-0.9,1.3-1.4,1.8c-0.5,0.6-1,1.1-1.4,1.6c-0.4,0.5-0.8,1-1.1,1.5c-0.3,0.5-0.4,1-0.4,1.5
    c0,0.2,0,0.3,0,0.4h5.6v2.7h-8.6v-2.3c0-0.9,0.1-1.7,0.4-2.4s0.7-1.3,1.1-1.9c0.4-0.6,0.9-1.1,1.4-1.6c0.5-0.5,1-1.1,1.4-1.6
    s0.8-1.2,1.1-1.9C977.3,98.5,977.5,97.7,977.5,96.8z"/>
  <path class="st0" d="M984.1,94.5c0.6,0,1-0.1,1.4-0.2c0.4-0.1,0.7-0.3,0.9-0.5c0.2-0.2,0.4-0.5,0.6-0.8c0.1-0.3,0.3-0.6,0.4-0.9h2
    V111h-3V96.6h-2.3V94.5z"/>
  <path class="st0" d="M996.4,108.3c0.2,0,0.3,0,0.5,0c0.2,0,0.4,0,0.5,0c0.5,0,0.9-0.1,1.2-0.4s0.5-0.7,0.5-1.5V92.1h3v14.2
    c0,1-0.1,1.7-0.4,2.3c-0.2,0.6-0.5,1.1-0.9,1.4c-0.4,0.4-0.9,0.6-1.4,0.7c-0.5,0.1-1,0.2-1.6,0.2c-0.3,0-0.5,0-0.7,0
    c-0.2,0-0.5,0-0.7-0.1V108.3z"/>
  <path class="st0" d="M1006.9,92.1v14.6c0,0.7,0.1,1.2,0.4,1.4c0.3,0.3,0.7,0.4,1.1,0.4c0.5,0,0.8-0.1,1.1-0.4s0.4-0.7,0.4-1.4V92.1
    h2.8v14.4c0,1.5-0.4,2.7-1.1,3.5c-0.7,0.8-1.8,1.2-3.3,1.2s-2.6-0.4-3.3-1.2c-0.7-0.8-1.1-2-1.1-3.5V92.1H1006.9z"/>
  <path class="st0" d="M1017.5,97.3V111h-2.7V92.1h3.7l3.1,11.3V92.1h2.6V111h-3.1L1017.5,97.3z"/>
  <path class="st0" d="M1029.3,100.1h4.1v2.7h-4.1v5.5h5.1v2.7h-8.1V92.1h8.1v2.7h-5.1V100.1z"/>
  <path class="st0" d="M1046.4,96.8c0-0.8-0.1-1.4-0.4-1.7c-0.3-0.3-0.7-0.4-1.1-0.4s-0.8,0.1-1.1,0.4c-0.3,0.3-0.4,0.8-0.4,1.4v2
    h-2.8v-1.8c0-1.5,0.4-2.7,1.1-3.5c0.7-0.8,1.8-1.2,3.3-1.2s2.6,0.4,3.3,1.2c0.7,0.8,1.1,2,1.1,3.5c0,1-0.1,1.9-0.4,2.7
    c-0.3,0.8-0.7,1.5-1.1,2.2c-0.4,0.7-0.9,1.3-1.4,1.8c-0.5,0.6-1,1.1-1.4,1.6c-0.4,0.5-0.8,1-1.1,1.5c-0.3,0.5-0.4,1-0.4,1.5
    c0,0.2,0,0.3,0,0.4h5.6v2.7h-8.6v-2.3c0-0.9,0.1-1.7,0.4-2.4s0.7-1.3,1.1-1.9c0.4-0.6,0.9-1.1,1.4-1.6c0.5-0.5,1-1.1,1.4-1.6
    s0.8-1.2,1.1-1.9C1046.2,98.5,1046.4,97.7,1046.4,96.8z"/>
  <path class="st0" d="M1050.9,96.7c0-1.5,0.4-2.7,1.2-3.5c0.8-0.8,1.9-1.2,3.3-1.2s2.6,0.4,3.3,1.2c0.8,0.8,1.2,2,1.2,3.5v9.8
    c0,1.5-0.4,2.7-1.2,3.5c-0.8,0.8-1.9,1.2-3.3,1.2s-2.6-0.4-3.3-1.2c-0.8-0.8-1.2-2-1.2-3.5V96.7z M1053.9,106.7
    c0,0.7,0.1,1.2,0.4,1.4c0.3,0.3,0.7,0.4,1.1,0.4s0.8-0.1,1.1-0.4c0.3-0.3,0.4-0.8,0.4-1.4V96.5c0-0.7-0.1-1.2-0.4-1.4
    c-0.3-0.3-0.7-0.4-1.1-0.4s-0.8,0.1-1.1,0.4c-0.3,0.3-0.4,0.8-0.4,1.4V106.7z"/>
  <path class="st0" d="M1063.7,94.5c0.6,0,1-0.1,1.4-0.2c0.4-0.1,0.7-0.3,0.9-0.5c0.2-0.2,0.4-0.5,0.6-0.8c0.1-0.3,0.3-0.6,0.4-0.9h2
    V111h-3V96.6h-2.3V94.5z"/>
  <path class="st0" d="M1081.3,92.1v2.6l-4.4,16.3h-3l4.3-16.2h-5.9v-2.7H1081.3z"/>
</g>
<text transform="matrix(1 0 0 1 1082.1704 111.0306)" class="st0 st1 st2"> </text>
<g>
  <path class="st3" d="M970.7,120.1h9.2v2.7h-3.1V139h-3v-16.2h-3.1V120.1z"/>
  <path class="st3" d="M981,124.7c0-1.5,0.4-2.7,1.2-3.5c0.8-0.8,1.9-1.2,3.3-1.2s2.6,0.4,3.3,1.2c0.8,0.8,1.2,2,1.2,3.5v9.8
    c0,1.5-0.4,2.7-1.2,3.5c-0.8,0.8-1.9,1.2-3.3,1.2s-2.6-0.4-3.3-1.2c-0.8-0.8-1.2-2-1.2-3.5V124.7z M983.9,134.7
    c0,0.7,0.1,1.2,0.4,1.4c0.3,0.3,0.7,0.4,1.1,0.4s0.8-0.1,1.1-0.4c0.3-0.3,0.4-0.8,0.4-1.4v-10.2c0-0.7-0.1-1.2-0.4-1.4
    c-0.3-0.3-0.7-0.4-1.1-0.4s-0.8,0.1-1.1,0.4c-0.3,0.3-0.4,0.8-0.4,1.4V134.7z"/>
  <path class="st3" d="M998.5,129l-1.1,10.1h-4.1l-2.1-18.9h2.9l1.6,14.9l1.4-14.9h2.9l1.5,15l1.5-15h2.6l-2.1,18.9h-3.9L998.5,129z"
    />
  <path class="st3" d="M1010.1,128.1h4.1v2.7h-4.1v5.5h5.1v2.7h-8.1v-18.9h8.1v2.7h-5.1V128.1z"/>
  <path class="st3" d="M1023.3,139c0-0.1-0.1-0.2-0.1-0.4s-0.1-0.2-0.1-0.4c0-0.2,0-0.4-0.1-0.6c0-0.3,0-0.6,0-0.9v-3
    c0-0.9-0.2-1.5-0.5-1.9c-0.3-0.4-0.8-0.5-1.5-0.5h-1v7.7h-3v-18.9h4.5c1.5,0,2.7,0.4,3.4,1.1c0.7,0.7,1,1.8,1,3.3v1.5
    c0,1.9-0.6,3.2-1.9,3.8c0.8,0.3,1.3,0.8,1.6,1.5s0.4,1.5,0.4,2.5v2.9c0,0.5,0,0.9,0.1,1.2s0.1,0.7,0.3,1.1H1023.3z M1020,122.8v5.8
    h1.2c0.6,0,1-0.1,1.3-0.4c0.3-0.3,0.5-0.8,0.5-1.6v-1.9c0-0.7-0.1-1.2-0.4-1.5c-0.2-0.3-0.6-0.5-1.1-0.5H1020z"/>
  <path class="st3" d="M1036.6,120.1c1.5,0,2.7,0.4,3.4,1.1c0.7,0.7,1,1.8,1,3.3v0.7c0,1-0.2,1.8-0.5,2.4c-0.3,0.6-0.8,1.1-1.5,1.4
    c0.8,0.3,1.4,0.8,1.7,1.5c0.3,0.7,0.5,1.5,0.5,2.6v1.5c0,1.5-0.4,2.6-1.1,3.3s-1.9,1.1-3.4,1.1h-4.7v-18.9H1036.6z M1035.1,122.8v5
    h1.2c0.6,0,1-0.1,1.3-0.4c0.3-0.3,0.5-0.8,0.5-1.6v-1.1c0-0.7-0.1-1.2-0.4-1.5c-0.2-0.3-0.6-0.5-1.1-0.5H1035.1z M1035.1,130.5v5.8
    h1.7c0.5,0,0.9-0.1,1.1-0.4s0.4-0.8,0.4-1.5v-1.6c0-0.9-0.1-1.5-0.4-1.8c-0.3-0.3-0.8-0.5-1.5-0.5H1035.1z"/>
  <path class="st3" d="M1049.3,139c0-0.1-0.1-0.2-0.1-0.4s-0.1-0.2-0.1-0.4c0-0.2,0-0.4-0.1-0.6c0-0.3,0-0.6,0-0.9v-3
    c0-0.9-0.2-1.5-0.5-1.9c-0.3-0.4-0.8-0.5-1.5-0.5h-1v7.7h-3v-18.9h4.5c1.5,0,2.7,0.4,3.4,1.1c0.7,0.7,1,1.8,1,3.3v1.5
    c0,1.9-0.6,3.2-1.9,3.8c0.8,0.3,1.3,0.8,1.6,1.5s0.4,1.5,0.4,2.5v2.9c0,0.5,0,0.9,0.1,1.2s0.1,0.7,0.3,1.1H1049.3z M1046,122.8v5.8
    h1.2c0.6,0,1-0.1,1.3-0.4c0.3-0.3,0.5-0.8,0.5-1.6v-1.9c0-0.7-0.1-1.2-0.4-1.5c-0.2-0.3-0.6-0.5-1.1-0.5H1046z"/>
  <path class="st3" d="M1053.9,120.1h3V139h-3V120.1z"/>
  <path class="st3" d="M1059,120.1h4.7c1.5,0,2.6,0.4,3.3,1.2c0.7,0.8,1.1,2,1.1,3.5v9.6c0,1.5-0.4,2.7-1.1,3.5
    c-0.7,0.8-1.8,1.2-3.3,1.2h-4.7V120.1z M1062,122.8v13.5h1.7c0.5,0,0.8-0.1,1.1-0.4c0.3-0.3,0.4-0.7,0.4-1.4v-9.8
    c0-0.7-0.1-1.2-0.4-1.4c-0.3-0.3-0.6-0.4-1.1-0.4H1062z"/>
  <path class="st3" d="M1074.5,128.5h4.2v6c0,1.5-0.4,2.7-1.1,3.5c-0.7,0.8-1.8,1.2-3.3,1.2s-2.6-0.4-3.3-1.2c-0.7-0.8-1.1-2-1.1-3.5
    v-9.8c0-1.5,0.4-2.7,1.1-3.5c0.7-0.8,1.8-1.2,3.3-1.2s2.6,0.4,3.3,1.2c0.7,0.8,1.1,2,1.1,3.5v1.8h-2.8v-2c0-0.7-0.1-1.2-0.4-1.4
    c-0.3-0.3-0.7-0.4-1.1-0.4s-0.8,0.1-1.1,0.4c-0.3,0.3-0.4,0.8-0.4,1.4v10.2c0,0.7,0.1,1.2,0.4,1.4c0.3,0.3,0.7,0.4,1.1,0.4
    s0.8-0.1,1.1-0.4c0.3-0.3,0.4-0.7,0.4-1.4v-3.5h-1.3V128.5z"/>
  <path class="st3" d="M1083.5,128.1h4.1v2.7h-4.1v5.5h5.1v2.7h-8.1v-18.9h8.1v2.7h-5.1V128.1z"/>
</g>
<text transform="matrix(1 0 0 1 1089.4341 139.0292)" class="st3 st1 st2"> </text>
<g>
  <path class="st3" d="M971.6,148.1h3v16.2h4.9v2.7h-7.9V148.1z"/>
  <path class="st3" d="M980.5,152.7c0-1.5,0.4-2.7,1.2-3.5c0.8-0.8,1.9-1.2,3.3-1.2s2.6,0.4,3.3,1.2c0.8,0.8,1.2,2,1.2,3.5v9.8
    c0,1.5-0.4,2.7-1.2,3.5c-0.8,0.8-1.9,1.2-3.3,1.2s-2.6-0.4-3.3-1.2c-0.8-0.8-1.2-2-1.2-3.5V152.7z M983.5,162.7
    c0,0.7,0.1,1.2,0.4,1.4c0.3,0.3,0.7,0.4,1.1,0.4s0.8-0.1,1.1-0.4c0.3-0.3,0.4-0.8,0.4-1.4v-10.2c0-0.7-0.1-1.2-0.4-1.4
    c-0.3-0.3-0.7-0.4-1.1-0.4s-0.8,0.1-1.1,0.4c-0.3,0.3-0.4,0.8-0.4,1.4V162.7z"/>
  <path class="st3" d="M994.1,153.3V167h-2.7v-18.9h3.7l3.1,11.3v-11.3h2.6V167h-3.1L994.1,153.3z"/>
  <path class="st3" d="M1003,148.1h4.7c1.5,0,2.6,0.4,3.3,1.2c0.7,0.8,1.1,2,1.1,3.5v9.6c0,1.5-0.4,2.7-1.1,3.5
    c-0.7,0.8-1.8,1.2-3.3,1.2h-4.7V148.1z M1005.9,150.8v13.5h1.7c0.5,0,0.8-0.1,1.1-0.4c0.3-0.3,0.4-0.7,0.4-1.4v-9.8
    c0-0.7-0.1-1.2-0.4-1.4c-0.3-0.3-0.6-0.4-1.1-0.4H1005.9z"/>
  <path class="st3" d="M1013.8,152.7c0-1.5,0.4-2.7,1.2-3.5c0.8-0.8,1.9-1.2,3.3-1.2s2.6,0.4,3.3,1.2c0.8,0.8,1.2,2,1.2,3.5v9.8
    c0,1.5-0.4,2.7-1.2,3.5c-0.8,0.8-1.9,1.2-3.3,1.2s-2.6-0.4-3.3-1.2c-0.8-0.8-1.2-2-1.2-3.5V152.7z M1016.7,162.7
    c0,0.7,0.1,1.2,0.4,1.4c0.3,0.3,0.7,0.4,1.1,0.4s0.8-0.1,1.1-0.4c0.3-0.3,0.4-0.8,0.4-1.4v-10.2c0-0.7-0.1-1.2-0.4-1.4
    c-0.3-0.3-0.7-0.4-1.1-0.4s-0.8,0.1-1.1,0.4c-0.3,0.3-0.4,0.8-0.4,1.4V162.7z"/>
  <path class="st3" d="M1027.3,153.3V167h-2.7v-18.9h3.7l3.1,11.3v-11.3h2.6V167h-3.1L1027.3,153.3z"/>
</g>
<path class="st0" d="M29,238.2c21.1-6.1,41.6-14.5,60.8-25.2c9.9-5.5,19.2-12.3,30.2-15.6c11.2-3.4,23.1-4.3,34.8-5.2
  c21.4-1.7,43.2-2.4,64-8c9.8-2.6,18.7-6.8,27.8-11.2c5.2-2.5,10.4-4.8,16.2-5.5c5.5-0.7,11.1,0,16.6,0.1
  c15.6,0.3,26.3-7.2,27.9-22.9c1.3-12.4-4.9-34,8.2-41.9c9.9-5.9,21.7,0.6,28.8,7.7c8,8.1,14.5,18.1,21.3,27.1
  c7.8,10.4,32.1,37.7,12.6,48.3c-6.5,3.5-14.5,4.1-20.5,8.5c-4.3,3.2-7.5,10.2-1.9,13.6c8.3,5.1,18.7,3,27.3,0
  c6.4-2.2,12.8-5.2,19.7-5.2c6.8,0,15.5,5.2,13.7,13c-0.6,2.4,1.4,4,3.7,3.7c17.1-2.7,33.6,12.1,35.4,28.6
  c1.2,10.1-5.2,17.7-8.3,26.8c-2.5,7.3-2.3,15.5,0.2,22.7c5.9,16.9,22.1,23.2,38.2,27.7c22.4,6.2,44.7,12.3,67.1,18.5
  c8,2.2,15.1,4.4,21.5-2.1c7.5-7.6,14.1-16.3,21-24.3c4.6-5.4,13.1-12.2,12.7-20.1c-0.3-5.4-4.7-9.2-8.6-12.5
  c-2.2-1.9-4.9-3.8-6.4-6.3c-2.9-4.7,0.6-8.9,5.4-10.2c9.3-2.7,19.4,4.2,29,3.5c18.4-1.4,30.7-16.8,47.2-22.9
  c7.3-2.7,16.4-4.5,23.8-1.1c8.9,4.1,9.9,13.9,9.7,22.5c-0.2,7.5-0.9,15.5,2.1,22.6c2.8,6.5,8.3,10.9,15,13.1
  c15,5.1,30.8-0.8,46.1,2.1c8.7,1.7,15.2,6,17.2,14.9c1.6,6.8,3.3,13.8,11,15.9c6.8,1.8,14.9-2.2,21.3,1.3c3.6,2,6.1,5.9,8.2,9.3
  c5.1,8.2,8.7,17.3,14.7,24.9c4.9,6.2,11.7,10.6,19.8,7.8c15.9-5.3,19.8-25.3,36.7-29.3c10.3-2.4,18.1,1.4,26.6,6.5
  c5.6,3.4,12.8,5.3,18.1,0.1c4.7-4.8,4.8-12.3,2.8-18.2c-2.8-8-12.8-20.9-2.3-27.2c6.6-4,9-9.6,6.1-17.1c-3.3-8.5-10.3-14.4-5.2-24
  c10.3-19.3,28.4-2.9,40.8,3.6c5.7,3,11.4,4.5,17.7,3.1c3.8-0.8,2.2-6.5-1.6-5.7c-14.5,3.1-25.7-14-39.7-16
  c-13.5-1.9-25.7,10.3-25.2,23.5c0.1,3.3,1.2,6.2,2.7,9c2.1,4,7.2,9.5,5.6,14.4c-1.2,3.7-6.9,4.9-9.2,8.2c-2,2.8-2.7,6.4-2.6,9.8
  c0.3,9.1,7.9,16.1,8.2,24.9c0.2,6.4-4.3,10.9-10.7,7.8c-4.1-2-7.5-5-11.7-6.8c-15.8-6.7-32.2-0.6-42.3,12.3
  c-5.7,7.2-16.3,22-26.6,13.1c-7-6.1-10.7-16-15.2-24c-3.9-7-8.9-15.3-17.4-17c-9-1.8-20.4,4.4-23.8-7.6c-1.9-7-2.9-13.1-9.1-17.8
  c-12.2-9.3-28.5-6-42.6-5.7c-8,0.2-17.4-0.3-23.6-5.9c-7.1-6.4-6-16.5-5.7-25.1c0.4-14.3-4-28.4-20.2-30.8c-16.4-2.3-30,7.1-43,15.4
  c-8.1,5.2-17.1,10.6-27.1,10.1c-9.1-0.4-17.7-5.9-26.9-3.3c-5.6,1.6-11,6-11,12.2c0,5.6,4,9.6,8,13c2.2,1.9,4.7,3.7,6.5,6
  c3.6,4.7,0.1,8.7-3.2,12.5c-7.4,8.7-14.9,17.3-22.3,25.9c-4,4.6-6.9,9.2-13.8,7.7c-5.7-1.2-11.3-3.1-16.9-4.6
  c-11.2-3.1-22.3-6.2-33.5-9.2c-10.2-2.8-20.5-5.4-30.6-8.6c-9.6-3-19.2-7.6-24.4-16.6c-5.4-9.5-4.8-19.9-0.2-29.5
  c3.5-7.4,6.9-14.1,6.3-22.5c-1-13.9-10.7-26.8-23.4-32.5c-6.3-2.9-12.9-3.6-19.7-2.5c1.2,1.2,2.5,2.4,3.7,3.7
  c2.8-11.6-8.5-20.5-19.5-20.5c-14.8,0-31.4,14.8-45.4,4.9c0.5,0.9,1,1.7,1.5,2.6c-0.4-6.5,8.2-8,13-9.6c5.6-1.9,11.7-4,15.5-8.7
  c9.3-11.4,0.7-28.1-6.5-38.1c-6.2-8.6-12.8-17-19.2-25.5c-5.3-7-10.5-14.5-17.4-20.1c-10.6-8.5-28-11.8-37.4,0.2
  c-7.9,10-5.2,24.2-5.3,35.9c-0.1,6.3-0.5,13.5-5.2,18.3c-6.8,6.8-17.8,4.6-26.4,4.4c-19.4-0.4-35.4,12.6-53.8,17.4
  c-20,5.2-40.9,5.9-61.4,7.6c-11.1,0.9-22.4,1.8-33.2,4.6c-10.8,2.8-19.7,8.3-29.2,13.9c-20.4,12-42.3,21.2-65,27.8
  C23.7,233.5,25.2,239.2,29,238.2"/>
<path class="st4" d="M28.2,163.7C12.6,163.7,0,175.9,0,190.8c0,20.6,28.2,49.9,28.2,49.9s28.2-29.3,28.2-49.9
  C56.4,175.9,43.8,163.7,28.2,163.7 M28.2,200.8c-5.8,0-10.5-4.7-10.5-10.5s4.7-10.5,10.5-10.5s10.5,4.7,10.5,10.5
  C38.7,196.1,34,200.8,28.2,200.8"/>
<g>
  <path class="st3" d="M290.6,48.8c0-1.5,0.4-2.7,1.2-3.5c0.8-0.8,1.9-1.2,3.3-1.2s2.6,0.4,3.3,1.2c0.8,0.8,1.2,2,1.2,3.5v9.8
    c0,1.5-0.4,2.7-1.2,3.5c-0.8,0.8-1.9,1.2-3.3,1.2s-2.6-0.4-3.3-1.2c-0.8-0.8-1.2-2-1.2-3.5V48.8z M293.5,58.8
    c0,0.7,0.1,1.2,0.4,1.4c0.3,0.3,0.7,0.4,1.1,0.4s0.8-0.1,1.1-0.4c0.3-0.3,0.4-0.8,0.4-1.4V48.6c0-0.7-0.1-1.2-0.4-1.4
    c-0.3-0.3-0.7-0.4-1.1-0.4s-0.8,0.1-1.1,0.4c-0.3,0.3-0.4,0.8-0.4,1.4V58.8z"/>
  <path class="st3" d="M311,44.3l-3.1,9.2l3.3,9.7h-3.1l-2.4-7.5l-2.5,7.5h-2.8l3.3-9.7l-3.1-9.2h3.1l2.2,7l2.3-7H311z"/>
  <path class="st3" d="M315.7,52.7h3.8v2.7h-3.8v7.8h-3V44.3h7.9V47h-4.9V52.7z"/>
  <path class="st3" d="M321.8,48.8c0-1.5,0.4-2.7,1.2-3.5c0.8-0.8,1.9-1.2,3.3-1.2s2.6,0.4,3.3,1.2c0.8,0.8,1.2,2,1.2,3.5v9.8
    c0,1.5-0.4,2.7-1.2,3.5c-0.8,0.8-1.9,1.2-3.3,1.2s-2.6-0.4-3.3-1.2c-0.8-0.8-1.2-2-1.2-3.5V48.8z M324.7,58.8
    c0,0.7,0.1,1.2,0.4,1.4c0.3,0.3,0.7,0.4,1.1,0.4s0.8-0.1,1.1-0.4c0.3-0.3,0.4-0.8,0.4-1.4V48.6c0-0.7-0.1-1.2-0.4-1.4
    c-0.3-0.3-0.7-0.4-1.1-0.4s-0.8,0.1-1.1,0.4c-0.3,0.3-0.4,0.8-0.4,1.4V58.8z"/>
  <path class="st3" d="M338.9,63.2c0-0.1-0.1-0.2-0.1-0.4s-0.1-0.2-0.1-0.4c0-0.2,0-0.4-0.1-0.6c0-0.3,0-0.6,0-0.9v-3
    c0-0.9-0.2-1.5-0.5-1.9c-0.3-0.4-0.8-0.5-1.5-0.5h-1v7.7h-3V44.3h4.5c1.5,0,2.7,0.4,3.4,1.1c0.7,0.7,1,1.8,1,3.3v1.5
    c0,1.9-0.6,3.2-1.9,3.8c0.8,0.3,1.3,0.8,1.6,1.5s0.4,1.5,0.4,2.5v2.9c0,0.5,0,0.9,0.1,1.2s0.1,0.7,0.3,1.1H338.9z M335.7,47v5.8
    h1.2c0.6,0,1-0.1,1.3-0.4c0.3-0.3,0.5-0.8,0.5-1.6v-1.9c0-0.7-0.1-1.2-0.4-1.5c-0.2-0.3-0.6-0.5-1.1-0.5H335.7z"/>
  <path class="st3" d="M343.6,44.3h4.7c1.5,0,2.6,0.4,3.3,1.2c0.7,0.8,1.1,2,1.1,3.5v9.6c0,1.5-0.4,2.7-1.1,3.5
    c-0.7,0.8-1.8,1.2-3.3,1.2h-4.7V44.3z M346.5,47v13.5h1.7c0.5,0,0.8-0.1,1.1-0.4c0.3-0.3,0.4-0.7,0.4-1.4v-9.8
    c0-0.7-0.1-1.2-0.4-1.4c-0.3-0.3-0.6-0.4-1.1-0.4H346.5z"/>
</g>
<g>
  <path class="st5" d="M321.6,116.5c-10.5,0-19-8.5-19-19s8.5-19,19-19s19,8.5,19,19S332.1,116.5,321.6,116.5z M321.6,85.4
    c-6.7,0-12.1,5.4-12.1,12.1c0,6.7,5.4,12.1,12.1,12.1s12.1-5.4,12.1-12.1C333.7,90.8,328.3,85.4,321.6,85.4z"/>
</g>
<g>
  <path class="st3" d="M642.3,206.9l2-13.4h4.1v18.9h-2.8v-13.6l-2.1,13.6h-2.8l-2.2-13.4v13.4h-2.6v-18.9h4.1L642.3,206.9z"/>
  <path class="st3" d="M660.2,212.4h-3l-0.5-3.4H653l-0.5,3.4h-2.7l3-18.9h4.3L660.2,212.4z M653.4,206.4h2.9l-1.4-9.6L653.4,206.4z"
    />
  <path class="st3" d="M667.8,212.4c0-0.1-0.1-0.2-0.1-0.4s-0.1-0.2-0.1-0.4c0-0.2,0-0.4-0.1-0.6c0-0.3,0-0.6,0-0.9v-3
    c0-0.9-0.2-1.5-0.5-1.9c-0.3-0.4-0.8-0.5-1.5-0.5h-1v7.7h-3v-18.9h4.5c1.5,0,2.7,0.4,3.4,1.1c0.7,0.7,1,1.8,1,3.3v1.5
    c0,1.9-0.6,3.2-1.9,3.8c0.8,0.3,1.3,0.8,1.6,1.5s0.4,1.5,0.4,2.5v2.9c0,0.5,0,0.9,0.1,1.2s0.1,0.7,0.3,1.1H667.8z M664.5,196.2v5.8
    h1.2c0.6,0,1-0.1,1.3-0.4c0.3-0.3,0.5-0.8,0.5-1.6v-1.9c0-0.7-0.1-1.2-0.4-1.5c-0.2-0.3-0.6-0.5-1.1-0.5H664.5z"/>
  <path class="st3" d="M672.4,193.5h3v16.2h4.9v2.7h-7.9V193.5z"/>
  <path class="st3" d="M681.3,198c0-1.5,0.4-2.7,1.2-3.5c0.8-0.8,1.9-1.2,3.3-1.2s2.6,0.4,3.3,1.2c0.8,0.8,1.2,2,1.2,3.5v9.8
    c0,1.5-0.4,2.7-1.2,3.5c-0.8,0.8-1.9,1.2-3.3,1.2s-2.6-0.4-3.3-1.2c-0.8-0.8-1.2-2-1.2-3.5V198z M684.3,208c0,0.7,0.1,1.2,0.4,1.4
    c0.3,0.3,0.7,0.4,1.1,0.4s0.8-0.1,1.1-0.4c0.3-0.3,0.4-0.8,0.4-1.4v-10.2c0-0.7-0.1-1.2-0.4-1.4c-0.3-0.3-0.7-0.4-1.1-0.4
    s-0.8,0.1-1.1,0.4c-0.3,0.3-0.4,0.8-0.4,1.4V208z"/>
  <path class="st3" d="M698.8,202.3l-1.1,10.1h-4.1l-2.1-18.9h2.9l1.6,14.9l1.4-14.9h2.9l1.5,15l1.5-15h2.6l-2.1,18.9h-3.9
    L698.8,202.3z"/>
</g>
<g>
  <path class="st5" d="M670.6,265.6c-10.5,0-19-8.5-19-19c0-10.5,8.5-19,19-19c10.5,0,19,8.5,19,19
    C689.6,257.1,681.1,265.6,670.6,265.6z M670.6,234.6c-6.7,0-12.1,5.4-12.1,12.1c0,6.7,5.4,12.1,12.1,12.1s12.1-5.4,12.1-12.1
    C682.7,240,677.3,234.6,670.6,234.6z"/>
</g>
<g>
  <path class="st3" d="M907.8,390.1l-0.9,1.7v5.8h-3v-18.9h3v8.2l3.9-8.2h3l-4.1,8.4l4.1,10.5h-3.1L907.8,390.1z"/>
  <path class="st3" d="M915.1,378.8h3v18.9h-3V378.8z"/>
  <path class="st3" d="M922.9,384v13.7h-2.7v-18.9h3.7l3.1,11.3v-11.3h2.6v18.9h-3.1L922.9,384z"/>
  <path class="st3" d="M936.2,387.1h4.2v6c0,1.5-0.4,2.7-1.1,3.5c-0.7,0.8-1.8,1.2-3.3,1.2s-2.6-0.4-3.3-1.2c-0.7-0.8-1.1-2-1.1-3.5
    v-9.8c0-1.5,0.4-2.7,1.1-3.5c0.7-0.8,1.8-1.2,3.3-1.2s2.6,0.4,3.3,1.2c0.7,0.8,1.1,2,1.1,3.5v1.8h-2.8v-2c0-0.7-0.1-1.2-0.4-1.4
    c-0.3-0.3-0.7-0.4-1.1-0.4s-0.8,0.1-1.1,0.4c-0.3,0.3-0.4,0.8-0.4,1.4v10.2c0,0.7,0.1,1.2,0.4,1.4c0.3,0.3,0.7,0.4,1.1,0.4
    s0.8-0.1,1.1-0.4c0.3-0.3,0.4-0.7,0.4-1.4v-3.5h-1.3V387.1z"/>
  <path class="st3" d="M941.9,383.3c0-1.5,0.4-2.7,1.1-3.5c0.7-0.8,1.8-1.2,3.3-1.2s2.6,0.4,3.3,1.2c0.7,0.8,1.1,2,1.1,3.5v0.6h-2.8
    v-0.8c0-0.7-0.1-1.2-0.4-1.4c-0.3-0.3-0.6-0.4-1.1-0.4c-0.5,0-0.8,0.1-1.1,0.4c-0.3,0.3-0.4,0.8-0.4,1.4c0,0.6,0.1,1.2,0.4,1.7
    s0.6,1,1.1,1.4c0.4,0.4,0.9,0.9,1.4,1.3s1,0.9,1.4,1.4c0.4,0.5,0.8,1.1,1.1,1.8s0.4,1.4,0.4,2.3c0,1.5-0.4,2.7-1.1,3.5
    c-0.7,0.8-1.8,1.2-3.3,1.2s-2.6-0.4-3.3-1.2c-0.7-0.8-1.1-2-1.1-3.5V392h2.8v1.3c0,0.7,0.1,1.2,0.4,1.4c0.3,0.3,0.7,0.4,1.1,0.4
    s0.8-0.1,1.1-0.4c0.3-0.3,0.4-0.7,0.4-1.4c0-0.6-0.1-1.2-0.4-1.7c-0.3-0.5-0.6-1-1.1-1.4s-0.9-0.9-1.4-1.3c-0.5-0.4-1-0.9-1.4-1.4
    c-0.4-0.5-0.8-1.1-1.1-1.8C942,385,941.9,384.2,941.9,383.3z"/>
  <path class="st3" d="M951.5,378.8h9.2v2.7h-3.1v16.2h-3v-16.2h-3.1V378.8z"/>
  <path class="st3" d="M961.7,383.3c0-1.5,0.4-2.7,1.2-3.5c0.8-0.8,1.9-1.2,3.3-1.2s2.6,0.4,3.3,1.2c0.8,0.8,1.2,2,1.2,3.5v9.8
    c0,1.5-0.4,2.7-1.2,3.5c-0.8,0.8-1.9,1.2-3.3,1.2s-2.6-0.4-3.3-1.2c-0.8-0.8-1.2-2-1.2-3.5V383.3z M964.7,393.3
    c0,0.7,0.1,1.2,0.4,1.4c0.3,0.3,0.7,0.4,1.1,0.4s0.8-0.1,1.1-0.4c0.3-0.3,0.4-0.8,0.4-1.4v-10.2c0-0.7-0.1-1.2-0.4-1.4
    c-0.3-0.3-0.7-0.4-1.1-0.4s-0.8,0.1-1.1,0.4c-0.3,0.3-0.4,0.8-0.4,1.4V393.3z"/>
  <path class="st3" d="M975.3,384v13.7h-2.7v-18.9h3.7l3.1,11.3v-11.3h2.6v18.9H979L975.3,384z"/>
</g>
<g>
  <path class="st5" d="M943,374.9c-10.5,0-19-8.5-19-19s8.5-19,19-19s19,8.5,19,19S953.5,374.9,943,374.9z M943,343.8
    c-6.7,0-12.1,5.4-12.1,12.1c0,6.7,5.4,12.1,12.1,12.1s12.1-5.4,12.1-12.1C955.1,349.2,949.6,343.8,943,343.8z"/>
</g>
<g>
  <path class="st3" d="M346.3,295.5c0-1.5,0.4-2.7,1.1-3.5c0.7-0.8,1.8-1.2,3.3-1.2s2.6,0.4,3.3,1.2c0.7,0.8,1.1,2,1.1,3.5v0.6h-2.8
    v-0.8c0-0.7-0.1-1.2-0.4-1.4c-0.3-0.3-0.6-0.4-1.1-0.4c-0.5,0-0.8,0.1-1.1,0.4c-0.3,0.3-0.4,0.8-0.4,1.4c0,0.6,0.1,1.2,0.4,1.7
    s0.6,1,1.1,1.4c0.4,0.4,0.9,0.9,1.4,1.3s1,0.9,1.4,1.4c0.4,0.5,0.8,1.1,1.1,1.8s0.4,1.4,0.4,2.3c0,1.5-0.4,2.7-1.1,3.5
    c-0.7,0.8-1.8,1.2-3.3,1.2s-2.6-0.4-3.3-1.2c-0.7-0.8-1.1-2-1.1-3.5v-1.2h2.8v1.3c0,0.7,0.1,1.2,0.4,1.4c0.3,0.3,0.7,0.4,1.1,0.4
    s0.8-0.1,1.1-0.4c0.3-0.3,0.4-0.7,0.4-1.4c0-0.6-0.1-1.2-0.4-1.7c-0.3-0.5-0.6-1-1.1-1.4s-0.9-0.9-1.4-1.3c-0.5-0.4-1-0.9-1.4-1.4
    c-0.4-0.5-0.8-1.1-1.1-1.8C346.4,297.2,346.3,296.4,346.3,295.5z"/>
  <path class="st3" d="M355.9,291h9.2v2.7H362v16.2h-3v-16.2h-3.1V291z"/>
  <path class="st3" d="M372.6,309.9c0-0.1-0.1-0.2-0.1-0.4s-0.1-0.2-0.1-0.4c0-0.2,0-0.4-0.1-0.6c0-0.3,0-0.6,0-0.9v-3
    c0-0.9-0.2-1.5-0.5-1.9c-0.3-0.4-0.8-0.5-1.5-0.5h-1v7.7h-3V291h4.5c1.5,0,2.7,0.4,3.4,1.1c0.7,0.7,1,1.8,1,3.3v1.5
    c0,1.9-0.6,3.2-1.9,3.8c0.8,0.3,1.3,0.8,1.6,1.5s0.4,1.5,0.4,2.5v2.9c0,0.5,0,0.9,0.1,1.2s0.1,0.7,0.3,1.1H372.6z M369.3,293.7v5.8
    h1.2c0.6,0,1-0.1,1.3-0.4c0.3-0.3,0.5-0.8,0.5-1.6v-1.9c0-0.7-0.1-1.2-0.4-1.5c-0.2-0.3-0.6-0.5-1.1-0.5H369.3z"/>
  <path class="st3" d="M380.2,298.9h4.1v2.7h-4.1v5.5h5.1v2.7h-8.1V291h8.1v2.7h-5.1V298.9z"/>
  <path class="st3" d="M396.8,309.9h-3l-0.5-3.4h-3.6l-0.5,3.4h-2.7l3-18.9h4.3L396.8,309.9z M390,303.9h2.9l-1.4-9.6L390,303.9z"/>
  <path class="st3" d="M396.3,291h9.2v2.7h-3.1v16.2h-3v-16.2h-3.1V291z"/>
  <path class="st3" d="M406.7,291h3v16.2h4.9v2.7h-7.9V291z"/>
  <path class="st3" d="M417,303.6l-3.8-12.6h3.1l2.3,8.6l2.3-8.6h2.8l-3.8,12.6v6.3h-3V303.6z"/>
</g>
<g>
  <path class="st5" d="M453.4,321.4c-10.5,0-19-8.5-19-19s8.5-19,19-19c10.5,0,19,8.5,19,19S463.9,321.4,453.4,321.4z M453.4,290.3
    c-6.7,0-12.1,5.4-12.1,12.1c0,6.7,5.4,12.1,12.1,12.1s12.1-5.4,12.1-12.1C465.5,295.8,460.1,290.3,453.4,290.3z"/>
</g>
<rect x="0" class="st4" width="114" height="42.9"/>
<g>
  <path class="st3" d="M27.2,15.2c0-1.9,0.4-3.3,1.3-4.3s2.2-1.5,4-1.5c1.8,0,3.1,0.5,4,1.5c0.9,1,1.3,2.4,1.3,4.3v0.7h-3.4v-1
    c0-0.8-0.2-1.4-0.5-1.8c-0.3-0.3-0.8-0.5-1.3-0.5s-1,0.2-1.3,0.5c-0.3,0.3-0.5,0.9-0.5,1.8c0,0.8,0.2,1.5,0.5,2.1
    c0.4,0.6,0.8,1.2,1.3,1.7c0.5,0.5,1.1,1.1,1.7,1.6c0.6,0.5,1.2,1.1,1.7,1.8c0.5,0.6,1,1.4,1.3,2.2c0.4,0.8,0.5,1.8,0.5,2.9
    c0,1.9-0.5,3.3-1.4,4.3s-2.3,1.5-4,1.5s-3.1-0.5-4-1.5s-1.4-2.4-1.4-4.3v-1.4h3.4v1.6c0,0.8,0.2,1.4,0.5,1.7s0.8,0.5,1.4,0.5
    s1-0.2,1.4-0.5c0.3-0.3,0.5-0.9,0.5-1.7c0-0.8-0.2-1.5-0.5-2.1c-0.4-0.6-0.8-1.2-1.3-1.7c-0.5-0.5-1.1-1.1-1.7-1.6
    c-0.6-0.5-1.2-1.1-1.7-1.8c-0.5-0.6-1-1.4-1.3-2.2C27.4,17.3,27.2,16.3,27.2,15.2z"/>
  <path class="st3" d="M39,9.6h11.2v3.3h-3.8v19.8h-3.6V12.9H39V9.6z"/>
  <path class="st3" d="M62.3,32.7h-3.7L58,28.6h-4.5l-0.6,4.2h-3.3l3.7-23.1h5.3L62.3,32.7z M54,25.4h3.5l-1.7-11.7L54,25.4z"/>
  <path class="st3" d="M71.6,32.7c0-0.2-0.1-0.3-0.1-0.4c0-0.1-0.1-0.3-0.1-0.5c0-0.2-0.1-0.5-0.1-0.8c0-0.3,0-0.7,0-1.2v-3.6
    c0-1.1-0.2-1.8-0.6-2.3c-0.4-0.4-1-0.7-1.8-0.7h-1.3v9.4H64V9.6h5.5c1.9,0,3.3,0.4,4.1,1.3s1.3,2.2,1.3,4v1.8
    c0,2.4-0.8,3.9-2.4,4.7c0.9,0.4,1.6,1,1.9,1.8c0.3,0.8,0.5,1.9,0.5,3.1v3.6c0,0.6,0,1.1,0.1,1.5c0,0.4,0.2,0.9,0.3,1.3H71.6z
     M67.6,12.9V20H69c0.7,0,1.2-0.2,1.6-0.5c0.4-0.4,0.6-1,0.6-1.9v-2.3c0-0.8-0.1-1.4-0.4-1.8s-0.8-0.6-1.4-0.6H67.6z"/>
  <path class="st3" d="M76.2,9.6h11.2v3.3h-3.8v19.8H80V12.9h-3.8V9.6z"/>
</g>
<rect x="970.5" y="37.5" class="st6" width="114" height="41"/>
<g>
  <path class="st3" d="M996.1,56.4h4.7v3.3h-4.7v9.5h-3.6V46.1h9.6v3.3h-6V56.4z"/>
  <path class="st3" d="M1003.9,46.1h3.6v23.1h-3.6V46.1z"/>
  <path class="st3" d="M1013.4,52.5v16.7h-3.3V46.1h4.6l3.7,13.8V46.1h3.2v23.1h-3.7L1013.4,52.5z"/>
  <path class="st3" d="M1024.2,46.1h3.6v23.1h-3.6V46.1z"/>
  <path class="st3" d="M1030,51.7c0-1.9,0.4-3.3,1.3-4.3c0.9-1,2.2-1.5,4-1.5s3.1,0.5,4,1.5c0.9,1,1.3,2.4,1.3,4.3v0.7h-3.4v-1
    c0-0.8-0.2-1.4-0.5-1.8c-0.3-0.3-0.8-0.5-1.3-0.5s-1,0.2-1.3,0.5c-0.3,0.3-0.5,0.9-0.5,1.8c0,0.8,0.2,1.5,0.5,2.1
    c0.4,0.6,0.8,1.2,1.3,1.7c0.5,0.5,1.1,1.1,1.7,1.6s1.2,1.1,1.7,1.8c0.5,0.6,1,1.4,1.3,2.2c0.4,0.8,0.5,1.8,0.5,2.9
    c0,1.9-0.5,3.3-1.4,4.3c-0.9,1-2.3,1.5-4,1.5s-3.1-0.5-4-1.5c-0.9-1-1.4-2.4-1.4-4.3v-1.4h3.4v1.6c0,0.8,0.2,1.4,0.5,1.7
    s0.8,0.5,1.4,0.5c0.6,0,1-0.2,1.4-0.5s0.5-0.9,0.5-1.7c0-0.8-0.2-1.5-0.5-2.1c-0.4-0.6-0.8-1.2-1.3-1.7c-0.5-0.5-1.1-1.1-1.7-1.6
    c-0.6-0.5-1.2-1.1-1.7-1.8s-1-1.4-1.3-2.2C1030.2,53.7,1030,52.8,1030,51.7z"/>
  <path class="st3" d="M1046.5,69.2h-3.6V46.1h3.6V56h4.1v-9.9h3.7v23.1h-3.7v-9.9h-4.1V69.2z"/>
  <path class="st3" d="M1057.4,64.1l-0.5-8.3v-9.6h3.6v9.6l-0.5,8.3H1057.4z M1060.5,65.7v3.5h-3.5v-3.5H1060.5z"/>
</g>
<path class="st6" d="M1004.8,203.5c-15.6,0-28.2,12.2-28.2,27.1c0,20.6,28.2,49.9,28.2,49.9s28.2-29.3,28.2-49.9
  C1033,215.7,1020.3,203.5,1004.8,203.5 M1004.8,240.5c-5.8,0-10.5-4.7-10.5-10.5s4.7-10.5,10.5-10.5c5.8,0,10.5,4.7,10.5,10.5
  C1015.2,235.9,1010.5,240.5,1004.8,240.5"/>
</svg>
