<!-- Generator: Adobe Illustrator 19.2.1, SVG Export Plug-In  -->
<svg version="1.1"
	 xmlns="http://www.w3.org/2000/svg" xmlns:xlink="http://www.w3.org/1999/xlink" xmlns:a="http://ns.adobe.com/AdobeSVGViewerExtensions/3.0/"
	 x="0px" y="0px" width="60px" height="49px" viewBox="0 0 60 49" style="enable-background:new 0 0 60 49;" xml:space="preserve">
<style type="text/css">
	.st0{fill:#FFFFFF;}
</style>
<defs>
</defs>
<path class="st0" d="M19,49c-7,0-13.5-2-19-5.5c0.9,0.2,2,0.2,2.9,0.2c5.8,0,11-2,15.3-5.2c-5.4-0.2-9.9-3.7-11.5-8.6
	C7.5,30,8.3,30,9,30c1.1,0,2.1-0.2,3.2-0.5c-5.7-1.1-9.9-6.1-9.9-12.1v-0.2c1.7,0.9,3.5,1.5,5.5,1.5c-3.4-2.1-5.5-6-5.5-10.3
	c0-2.3,0.6-4.4,1.7-6.3c6.1,7.5,15.2,12.4,25.4,12.9c-0.2-0.9-0.3-1.8-0.3-2.8C29.1,5.5,34.6,0,41.5,0c3.5,0,6.7,1.5,9,3.8
	c2.8-0.6,5.5-1.5,7.8-3.1c-0.9,2.9-2.9,5.4-5.4,6.9c2.4-0.3,4.9-0.9,7-2c-1.7,2.4-3.7,4.6-6.1,6.4c0,0.5,0,1.1,0,1.5
	C54,30.2,41.6,49,19,49"/>
</svg>
